<svg xmlns="http://www.w3.org/2000/svg" width="3127" height="777" fill="none"><path stroke="#571FE4" stroke-miterlimit="10" stroke-width=".552" d="M3126.25 1c-114.53 78.181-234.27 149.793-362.58 202.39-41.6 17.054-84.35 32.159-128.8 38.917-90.64 13.78-182.55-7.74-274.18-10.628-116.38-3.671-233.42 23.928-336.42 78.065-77.51 40.739-164.71 99.829-252.39 114.658-79.65 13.471-165.33-59.824-235.87-88.422-72.25-29.289-153.05-35.527-229.35-20.461-39.97 7.895-78.85 21.631-114.69 41.031-34.28 18.556-64.15 53.089-104.79 25.949-13.43-8.972-22.71-22.796-34.26-34.097-40.12-39.27-110.278-42.34-153.672-6.719"/><path stroke="#571FE4" stroke-miterlimit="10" stroke-width=".552" d="M3121.19 3.452c-111.92 79.23-230.43 151.592-358.03 203.996-42.49 17.479-86.14 32.126-131.37 39.668-54.57 9.027-109.72 5.681-165.04.922-37.76-3.246-75.6-7.155-113.41-8.248-74.69-2.153-149.64 7.166-221.1 26.793-41.78 11.477-82.36 26.489-121.03 44.884-27.17 12.859-55.42 27.754-84.39 42.257-40.75 20.339-82.95 39.883-125.82 52.399-15.4 4.51-30.87 8.116-46.36 10.484-64.05 9.75-131.89-31.541-192.91-61.917-16.36-8.182-32.22-15.58-47.41-21.001-62.43-22.487-130.5-28.129-196.4-18.335a428.137 428.137 0 0 0-33.82 6.421c-39.9 9.247-78.75 24.187-114.91 44.261-21.41 11.892-41.28 29.592-63.13 35.184-13.45 3.445-27.6 2.236-43.33-7.602-13.75-8.596-23.56-21.879-35.54-32.794-41.557-37.945-112.279-41.291-156.921-6.128"/><path stroke="#571FE4" stroke-miterlimit="10" stroke-width=".552" d="M3116.14 5.897c-109.32 80.285-226.59 153.392-353.49 205.603-43.39 17.91-87.94 32.099-133.95 40.413-55.27 9.86-111.24 7.453-167.43 3.357-38.37-2.794-76.85-6.377-115.29-7.382-75.94-1.998-152.13 6.51-224.78 24.37-42.47 10.44-83.71 24.104-123.06 40.92-27.7 11.721-56.42 25.347-85.82 38.553-41.39 18.495-84.17 36.139-127.81 47.507-15.64 4.107-31.37 7.403-47.14 9.568-65.3 8.883-134.46-30.415-196.59-58.345-16.62-7.542-32.75-14.233-48.17-19.058-63.27-19.798-131.51-23.061-197.32-10.959a441.685 441.685 0 0 0-33.76 7.586c-39.84 10.6-78.65 26.743-115.12 47.496-21.61 12.3-41.81 30.089-64.07 35.957-13.72 3.616-28.1 2.59-44.08-6.741-14.07-8.22-24.4-20.957-36.8-31.491-43.001-36.62-114.297-40.242-160.176-5.543"/><path stroke="#571FE4" stroke-miterlimit="10" stroke-width=".552" d="M3111.1 8.343c-106.72 81.334-222.77 155.198-348.96 207.21-44.27 18.335-89.73 32.065-136.51 41.164-55.98 10.699-112.77 9.225-169.83 5.791-38.98-2.335-78.09-5.592-117.17-6.52-77.18-1.838-154.63 5.852-228.45 21.94-43.17 9.408-85.03 21.83-125.1 36.957-28.21 10.655-57.43 22.934-87.24 34.848-42.04 16.651-85.38 32.396-129.79 42.61-15.89 3.704-31.88 6.691-47.91 8.657-66.57 8.016-137.11-29.123-200.29-54.779-16.89-6.862-33.26-12.913-48.93-17.12-64.08-17.214-132.52-17.992-198.23-3.577a455.462 455.462 0 0 0-33.7 8.75c-39.78 11.953-78.55 29.3-115.33 50.732-21.81 12.709-42.34 30.585-65.01 36.73-13.99 3.793-28.61 2.954-44.83-5.885-14.401-7.84-25.239-20.041-38.075-30.194-44.437-35.295-116.297-39.198-163.423-4.952"/><path stroke="#571FE4" stroke-miterlimit="10" stroke-width=".552" d="M3106.04 10.794c-104.11 82.383-218.92 156.998-344.4 208.822-45.18 18.766-91.51 32.126-139.09 41.909-56.66 11.644-114.28 10.998-172.23 8.232-39.58-1.883-79.32-4.809-119.04-5.653-78.42-1.679-157.12 5.2-232.13 19.516-43.86 8.37-86.38 19.478-127.12 32.993-28.75 9.54-58.44 20.521-88.68 31.149-42.68 14.807-86.6 28.653-131.78 37.713-16.13 3.301-32.38 5.979-48.68 7.74-67.82 7.15-139.69-27.947-203.98-51.212-17.16-6.211-33.77-11.594-49.68-15.182-64.87-14.63-133.54-12.925-199.15 3.798a468.242 468.242 0 0 0-33.64 9.916c-39.71 13.305-78.46 31.855-115.55 53.961-22 13.118-42.86 31.077-65.95 37.503-14.25 3.97-29.11 3.318-45.575-5.024-14.729-7.458-26.075-19.119-39.341-28.891-45.879-33.97-118.308-38.149-166.67-4.367"/><path stroke="#571FE4" stroke-miterlimit="10" stroke-width=".552" d="M3101 13.24c-101.51 83.437-215.09 158.802-339.87 210.428-46.07 19.191-93.29 32.115-141.66 42.655-57.35 12.499-115.81 12.769-174.62 10.666-40.19-1.424-80.56-4.025-120.92-4.792-79.67-1.518-159.62 4.544-235.81 17.092-44.56 7.338-87.74 17.121-129.15 29.029-29.28 8.42-59.42 18.186-90.11 27.445-43.28 13.068-87.83 24.799-133.76 32.816-16.38 2.86-32.88 5.267-49.46 6.824-69.09 6.282-142.28-26.777-207.67-47.64-17.42-5.56-34.29-10.274-50.43-13.245-65.67-12.063-134.55-7.856-200.08 11.18a486.312 486.312 0 0 0-33.58 11.08c-39.65 14.664-78.37 34.418-115.77 57.197-22.19 13.526-43.39 31.574-66.89 38.276-14.512 4.146-29.617 3.683-46.318-4.163-15.061-7.077-26.914-18.196-40.611-27.587-47.314-32.645-120.311-37.101-169.922-3.777"/><path stroke="#571FE4" stroke-miterlimit="10" stroke-width=".552" d="M3095.95 15.691c-98.9 84.487-211.25 160.603-335.33 212.035-46.96 19.622-95.08 32.099-144.23 43.406-58.05 13.355-117.33 14.536-177.02 13.101-40.79-.972-81.8-3.241-122.79-3.926-80.91-1.358-162.11 3.893-239.5 14.664-45.24 6.299-89.09 14.763-131.17 25.065-29.81 7.298-60.42 15.784-91.53 23.739-43.93 11.241-89.05 21.041-135.74 27.92-16.63 2.451-33.4 4.56-50.24 5.907-70.35 5.416-144.86-25.606-211.37-44.073-17.67-4.908-34.78-8.961-51.19-11.302-66.44-9.495-135.56-2.788-200.99 18.556-11.26 3.655-22.43 7.751-33.53 12.24-39.58 16.016-78.27 36.973-115.98 60.432-22.38 13.934-43.91 32.07-67.824 39.049-14.774 4.323-30.139 4.052-47.071-3.302-15.398-6.691-27.754-17.28-41.876-26.29-48.755-31.32-122.321-36.057-173.168-3.186"/><path stroke="#571FE4" stroke-miterlimit="10" stroke-width=".552" d="M3090.9 18.137c-96.31 85.535-207.42 162.402-330.79 213.641-47.85 20.047-96.87 32.077-146.81 44.151-58.74 14.205-118.85 16.309-179.41 15.536-41.4-.514-83.04-2.457-124.67-3.064-82.15-1.198-164.6 3.235-243.17 12.239-45.94 5.267-90.45 12.406-133.2 21.101-30.36 6.178-61.44 13.383-92.96 20.041-44.59 9.408-90.27 17.28-137.73 23.022-16.88 2.043-33.91 3.848-51.02 4.991-71.61 4.549-147.43-24.441-215.05-40.507-17.94-4.262-35.3-7.646-51.95-9.363-67.23-6.94-136.57 2.28-201.92 25.937-11.23 4.047-22.39 8.541-33.46 13.405-39.51 17.368-78.18 39.529-116.2 63.661-22.57 14.343-44.442 32.568-68.762 39.822-15.039 4.494-30.657 4.428-47.816-2.446-15.74-6.304-28.593-16.358-43.146-24.987-50.19-30.001-124.325-35.008-176.42-2.6"/><path stroke="#571FE4" stroke-miterlimit="10" stroke-width=".552" d="M3085.85 20.582c-93.7 86.59-203.58 164.208-326.25 215.254-48.74 20.477-98.65 32.054-149.37 44.901-59.44 15.05-120.38 18.081-181.81 17.976-42.01-.061-84.28-1.673-126.55-2.197-83.4-1.038-167.1 2.578-246.85 9.816-46.63 4.229-91.81 10.037-135.23 17.137-30.9 5.051-62.44 10.981-94.39 16.336-45.22 7.58-91.48 13.526-139.71 18.125-17.12 1.634-34.41 3.136-51.79 4.075-72.87 3.682-150-23.282-218.75-36.941-18.19-3.616-35.79-6.332-52.69-7.425-68.01-4.395-137.59 7.348-202.84 33.318-11.21 4.445-22.34 9.325-33.41 14.57-39.45 18.721-78.08 42.086-116.41 66.896-22.77 14.752-44.969 33.06-69.703 40.596-15.304 4.67-31.182 4.808-48.562-1.585-16.082-5.913-29.432-15.442-44.415-23.685-51.632-28.675-126.335-33.959-179.666-2.009"/><path stroke="#571FE4" stroke-miterlimit="10" stroke-width=".552" d="M3080.8 23.034c-91.09 87.638-199.74 166.007-321.71 216.86-49.64 20.902-100.45 32.032-151.96 45.647-60.13 15.894-121.9 19.853-184.2 20.41-42.61.398-85.52-.894-128.42-1.336-84.64-.877-169.59 1.927-250.53 7.387a2430.524 2430.524 0 0 0-137.25 13.179c-31.44 3.925-63.45 8.579-95.82 12.631-45.87 5.748-92.69 9.772-141.7 13.229-17.37 1.225-34.92 2.423-52.57 3.157-74.13 2.816-152.57-22.127-222.44-33.368-18.45-2.97-36.3-5.024-53.45-5.488-68.78-1.855-138.6 12.417-203.76 40.695-11.2 4.836-22.31 10.109-33.35 15.734-39.38 20.074-77.98 44.648-116.627 70.132-22.955 15.161-45.497 33.556-70.639 41.368-15.569 4.848-31.707 5.19-49.313-.723-16.43-5.521-30.271-14.52-45.685-22.387-53.067-27.351-128.344-32.916-182.918-1.425"/><path stroke="#571FE4" stroke-miterlimit="10" stroke-width=".552" d="M3075.75 25.48c-88.48 88.687-195.9 167.813-317.16 218.467-50.53 21.333-102.24 32.01-154.53 46.397-60.84 16.74-123.42 21.626-186.61 22.846-43.21.85-86.75-.111-130.29-.469-85.89-.718-172.09 1.269-254.21 4.963-48.02 2.159-94.54 5.3-139.29 9.214-31.97 2.794-64.46 6.178-97.24 8.933-46.53 3.909-93.91 6.018-143.69 8.337-17.6.817-35.42 1.711-53.33 2.241-75.4 1.949-155.14-20.979-226.14-29.802-18.71-2.324-36.81-3.715-54.21-3.55-69.54.674-139.61 17.485-204.68 48.076-11.18 5.234-22.27 10.893-33.29 16.9-39.31 21.426-77.88 47.203-116.835 73.361-23.149 15.569-46.022 34.053-71.578 42.141-15.834 5.024-32.231 5.576-50.058.138-16.778-5.123-31.127-13.57-46.955-21.084-54.563-25.91-130.348-31.867-186.17-.834"/><path stroke="#571FE4" stroke-miterlimit="10" stroke-width=".552" d="M3070.7 27.925c-85.88 89.742-192.07 169.613-312.62 220.074-51.43 21.758-104.03 31.982-157.1 47.143-61.53 17.578-124.95 23.397-189 25.28-43.83 1.308-88 .673-132.17.392-87.14-.558-174.59.613-257.9 2.539-48.7 1.127-95.9 2.926-141.3 5.251-32.52 1.662-65.47 3.771-98.67 5.228-47.17 2.07-95.13 2.269-145.68 3.44-17.85.414-35.92.999-54.11 1.325-76.66 1.082-157.7-19.837-229.83-26.236-18.96-1.684-37.31-2.412-54.97-1.606-70.31 3.191-140.62 22.553-205.6 55.451-11.16 5.626-22.22 11.683-33.22 18.065-39.25 22.779-77.799 49.76-117.058 76.597-23.343 15.977-46.552 34.544-72.517 42.913-16.094 5.201-32.761 5.969-50.803.994-17.132-4.72-31.966-12.648-48.225-19.787-55.999-24.584-132.358-30.817-189.416-.243"/><path stroke="#571FE4" stroke-miterlimit="10" stroke-width=".552" d="M3065.65 30.377c-83.28 90.79-188.24 171.417-308.08 221.685-52.32 22.188-105.82 31.955-159.68 47.894-62.22 18.417-126.47 25.164-191.4 27.715-44.42 1.761-89.22 1.457-134.04 1.258-88.38-.397-177.08-.038-261.57.116-49.4.089-97.27.552-143.34 1.287-33.06.53-66.48 1.363-100.1 1.523-47.82.232-96.34-1.479-147.66-1.457-18.09.005-36.43.287-54.88.414-77.92.215-160.26-18.699-233.52-22.663-19.22-1.044-37.81-1.11-55.72.331-71.07 5.703-141.63 27.621-206.52 62.833-11.14 6.023-22.19 12.466-33.17 19.229-39.184 24.138-77.698 52.316-117.272 79.832-23.535 16.386-47.076 35.041-73.455 43.687-16.359 5.372-33.297 6.36-51.554 1.855-17.479-4.312-32.805-11.726-49.495-18.484-57.434-23.254-134.362-29.774-192.668.342"/><path stroke="#571FE4" stroke-miterlimit="10" stroke-width=".552" d="M3060.6 32.822c-80.67 91.84-184.49 172.981-303.54 223.292-53.25 22.509-107.61 31.922-162.24 48.639-62.93 19.252-127.99 26.937-193.8 30.156-45.03 2.219-90.47 2.241-135.92 2.12-89.62-.238-179.57-.696-265.25-2.314-50.09-.944-98.63-1.833-145.36-2.677-33.6-.608-67.5-1.049-101.53-2.176-48.47-1.606-97.54-5.228-149.64-6.354-18.34-.398-36.94-.425-55.67-.503-79.18-.651-162.82-17.567-237.21-19.096-19.47-.403-38.31.193-56.47 2.269-71.84 8.209-142.64 32.689-207.44 70.209-11.13 6.415-22.15 13.25-33.11 20.394-39.116 25.49-77.602 54.872-117.485 83.062-23.729 16.794-47.606 35.538-74.394 44.459-16.623 5.549-33.826 6.758-52.299 2.717-17.832-3.903-33.644-10.805-50.759-17.181-58.869-21.924-136.371-28.725-195.914.933"/><path stroke="#571FE4" stroke-miterlimit="10" stroke-width=".552" d="M3055.55 35.268c-78.06 92.894-180.66 174.78-299 224.899-54.15 22.934-109.4 31.888-164.82 49.384-63.63 20.085-129.51 28.709-196.19 32.59-45.64 2.672-91.71 3.025-137.8 2.987-90.87-.083-182.06-1.347-268.93-4.737-50.79-1.982-100-4.218-147.39-6.642-34.15-1.75-68.5-3.456-102.95-5.88-49.13-3.45-98.77-8.971-151.63-11.251-18.59-.801-37.45-1.132-56.44-1.419-80.44-1.518-165.39-16.436-240.91-15.53-19.73.237-38.82 1.496-57.23 4.207-72.61 10.705-143.65 37.757-208.36 77.59-11.1 6.807-22.1 14.034-33.05 21.559-39.049 26.843-77.507 57.434-117.699 86.297-23.922 17.198-48.131 36.029-75.333 45.233-16.888 5.725-34.362 7.16-53.044 3.577-18.192-3.489-34.478-9.888-52.029-15.883-60.305-20.599-138.376-27.677-199.166 1.518"/><path stroke="#571FE4" stroke-miterlimit="10" stroke-width=".552" d="M3050.5 37.719c-75.46 93.943-176.82 176.585-294.45 226.505-55.04 23.359-111.2 31.856-167.39 50.135-64.33 20.919-131.04 30.481-198.59 35.025-46.25 3.13-92.95 3.809-139.67 3.848-92.11.077-184.56-2.004-272.61-7.161a6087.649 6087.649 0 0 1-149.42-10.605c-34.69-2.888-69.51-5.869-104.38-9.585-49.78-5.3-99.98-12.714-153.62-16.148-18.83-1.204-37.95-1.844-57.21-2.336-81.7-2.385-167.95-15.314-244.6-11.963-19.98.872-39.32 2.793-57.98 6.15-73.39 13.195-144.67 42.825-209.29 84.972-11.085 7.205-22.061 14.823-32.987 22.724-38.983 28.195-77.408 59.99-117.915 89.532-24.115 17.606-48.655 36.526-76.271 46.006-17.153 5.901-34.897 7.569-53.795 4.438-18.545-3.075-35.317-8.966-53.299-14.58-61.74-19.274-140.385-26.633-202.412 2.109"/><path stroke="#571FE4" stroke-miterlimit="10" stroke-width=".552" d="M3045.45 40.165c-72.86 94.992-172.88 178.623-289.91 228.112-55.9 23.9-113 31.822-169.97 50.88-65.03 21.753-132.56 32.253-200.98 37.46-46.85 3.583-94.18 4.587-141.55 4.714-93.36.238-187.06-2.661-276.29-9.589a4178.493 4178.493 0 0 1-151.45-14.57c-35.23-4.036-70.52-8.281-105.81-13.283-50.42-7.144-101.19-16.458-155.6-21.046-19.07-1.606-38.46-2.556-57.99-3.252-82.96-3.251-170.51-14.194-248.29-8.391-20.24 1.512-39.83 4.091-58.74 8.088-74.15 15.679-145.68 47.893-210.204 92.348-11.064 7.596-22.023 15.607-32.932 23.888-38.917 29.548-77.315 62.546-118.13 92.762-24.309 18.015-49.186 37.023-77.205 46.779-17.412 6.073-35.433 7.977-54.54 5.294-18.898-2.655-36.146-8.082-54.569-13.277-63.142-18.076-142.389-25.584-205.664 2.694"/><path stroke="#571FE4" stroke-miterlimit="10" stroke-width=".552" d="M3040.4 42.611c-70.25 96.047-169.05 180.428-285.37 229.724-56.79 24.325-114.78 31.79-172.54 51.632-65.73 22.58-134.08 34.019-203.38 39.899-47.46 4.041-95.42 5.372-143.42 5.576-94.61.398-189.56-3.312-279.98-12.013-52.86-5.085-104.09-11.384-153.47-18.534-35.77-5.178-71.53-10.699-107.24-16.988-51.07-8.993-102.41-20.201-157.58-25.942-19.32-2.01-38.96-3.269-58.77-4.168-84.22-4.119-173.07-13.085-251.97-4.826-20.5 2.148-40.34 5.383-59.5 10.026-74.93 18.158-146.69 52.962-211.128 99.729-11.047 7.995-21.978 16.392-32.871 25.049-38.85 30.9-77.215 65.102-118.346 95.997-24.501 18.423-49.71 37.514-78.142 47.551-17.678 6.25-35.969 8.392-55.286 6.156-19.252-2.23-36.985-7.166-55.839-11.98-64.577-16.751-144.398-24.535-208.915 3.285"/><path stroke="#571FE4" stroke-miterlimit="10" stroke-width=".552" d="M3035.36 45.063c-67.65 97.095-165.22 182.227-280.84 231.33-57.67 24.756-116.57 31.751-175.11 52.377-66.43 23.408-135.6 35.792-205.77 42.334-48.07 4.494-96.66 6.156-145.29 6.443-95.86.557-192.05-3.97-283.66-14.437-53.55-6.123-105.45-13.781-155.5-22.498-36.31-6.327-72.54-13.112-108.66-20.692-51.72-10.849-103.62-23.939-159.57-30.834-19.57-2.413-39.47-3.981-59.54-5.085-85.49-4.985-175.64-11.975-255.67-1.259-20.76 2.777-40.84 6.675-60.25 11.964-75.72 20.626-147.704 58.03-212.05 107.105-11.031 8.386-21.94 17.175-32.811 26.213-38.784 32.253-77.121 67.664-118.555 99.227-24.695 18.832-50.24 38.011-79.081 48.324-17.943 6.427-36.499 8.812-56.037 7.017-19.605-1.799-37.824-6.244-57.108-10.677-66.019-15.431-146.403-23.491-212.162 3.876"/><path stroke="#571FE4" stroke-miterlimit="10" stroke-width=".552" d="M3030.3 47.508c-65.04 98.145-161.37 184.028-276.29 232.937-58.57 25.181-118.37 31.712-177.69 53.128-67.13 24.237-137.13 37.564-208.17 44.769-48.67 4.952-97.9 6.94-147.17 7.304-97.09.718-194.54-4.621-287.33-16.866-54.25-7.155-106.82-16.177-157.53-26.462-36.85-7.475-73.55-15.53-110.09-24.391-52.37-12.698-104.84-27.676-161.56-35.731-19.8-2.816-39.97-4.693-60.31-6.002-86.75-5.852-178.21-10.865-259.37 2.314-21.01 3.412-41.34 7.966-61 13.901-76.5 23.094-148.718 63.098-212.97 114.487-11.009 8.784-21.902 17.965-32.75 27.378-38.718 33.611-77.028 70.22-118.771 102.462-24.888 19.24-50.764 38.508-80.02 49.103-18.208 6.603-37.034 9.231-56.782 7.878-19.963-1.369-38.663-5.328-58.378-9.374-67.454-14.106-148.412-22.443-215.414 4.46"/><path stroke="#571FE4" stroke-miterlimit="10" stroke-width=".552" d="M3025.26 49.954c-62.44 99.199-157.55 185.833-271.75 234.543-59.47 25.612-120.17 31.674-180.26 53.873-67.84 25.065-138.65 39.336-210.57 47.204-49.28 5.405-99.13 7.723-149.04 8.171-98.35.877-197.04-5.278-291.01-19.29-54.95-8.193-108.17-18.573-159.56-30.426-37.38-8.624-74.55-17.948-111.52-28.096-53.01-14.553-106.05-31.414-163.54-40.628-20.06-3.213-40.48-5.405-61.09-6.918-88.02-6.718-180.78-9.76-263.06 5.88-21.27 4.041-41.85 9.259-61.76 15.845-77.28 25.562-149.725 68.166-213.888 121.863-10.992 9.175-21.857 18.749-32.695 28.543-38.657 34.963-76.928 72.776-118.986 105.697-25.076 19.649-51.295 38.999-80.958 49.876-18.473 6.779-37.57 9.656-57.528 8.734-20.317-.933-39.502-4.406-59.648-8.077-68.895-12.781-150.416-21.394-218.66 5.051"/><path stroke="#571FE4" stroke-miterlimit="10" stroke-width=".552" d="M3020.21 52.405C2960.37 152.653 2866.5 240.038 2753 288.56c-60.36 26.036-121.97 31.629-182.84 54.623-68.54 25.888-140.17 41.109-212.96 49.644-49.88 5.863-100.38 8.508-150.92 9.032-99.59 1.038-199.54-5.935-294.69-21.713-55.64-9.226-109.53-20.974-161.59-34.39a2634.309 2634.309 0 0 1-112.95-31.8c-53.65-16.408-107.27-35.152-165.52-45.526-20.3-3.616-40.99-6.117-61.87-7.834-89.27-7.585-183.35-8.662-266.75 9.447-21.53 4.676-42.37 10.55-62.52 17.782-78.07 28.019-150.733 73.235-214.808 129.244-10.976 9.573-21.819 19.533-32.634 29.708-38.591 36.317-76.834 75.333-119.202 108.927-25.269 20.058-51.819 39.497-81.897 50.649-18.732 6.951-38.099 10.081-58.278 9.595-20.665-.497-40.341-3.489-60.912-6.774-70.336-11.456-152.426-20.344-221.912 5.637"/><path stroke="#571FE4" stroke-miterlimit="10" stroke-width=".552" d="M3015.15 54.85c-57.22 101.298-149.87 189.439-262.66 237.763-61.25 26.467-123.76 31.591-185.41 55.369-69.25 26.71-141.69 42.881-215.36 52.078-50.49 6.316-101.61 9.287-152.8 9.899-100.83 1.198-202.02-6.586-298.37-24.142-56.33-10.264-110.88-23.376-163.61-38.354-38.46-10.926-76.57-22.785-114.37-35.499-54.3-18.263-108.49-38.884-167.51-50.423-20.55-4.013-41.5-6.823-62.65-8.745-90.54-8.452-185.92-7.569-270.44 13.013-21.78 5.306-42.87 11.837-63.27 19.721-78.869 30.475-151.745 78.302-215.727 136.625-10.953 9.965-21.779 20.317-32.573 30.873-38.524 37.669-76.74 77.889-119.416 112.162-25.463 20.466-52.349 39.993-82.836 51.422-18.997 7.127-38.629 10.511-59.024 10.456-21.018-.055-41.18-2.567-62.181-5.477-71.772-10.13-154.436-19.301-225.159 6.228"/><path stroke="#571FE4" stroke-miterlimit="10" stroke-width=".552" d="M3010.11 57.296c-54.62 102.352-146.03 191.238-258.13 239.369-62.14 26.893-125.6 31.425-187.98 56.115-70.01 27.4-143.22 44.647-217.76 54.513-51.09 6.774-102.84 10.07-154.66 10.76-102.08 1.358-204.52-7.243-302.06-26.566-57.02-11.296-112.24-25.777-165.63-42.318-39-12.08-77.58-25.203-115.8-39.204-54.94-20.118-109.73-42.5-169.5-55.319-20.8-4.378-42-7.536-63.42-9.662-91.8-9.319-188.5-6.47-274.13 16.585-22.05 5.935-43.38 13.129-64.03 21.659-79.666 32.932-152.762 83.37-216.65 144.001-10.937 10.357-21.736 21.106-32.518 32.037-38.458 39.022-76.641 80.451-119.632 115.398-25.656 20.874-52.873 40.485-83.774 52.194-19.262 7.305-39.16 10.943-59.769 11.318-21.371.387-42.019-1.645-63.452-4.174-73.212-8.805-156.439-18.252-228.41 6.819"/><path stroke="#571FE4" stroke-miterlimit="10" stroke-width=".552" d="M3005.06 59.748c-52.03 103.401-142.2 193.038-253.59 240.976-63.04 27.322-127.39 31.397-190.55 56.865-70.71 28.234-144.74 46.419-220.15 56.948-51.71 7.226-104.09 10.854-156.55 11.627-103.32 1.518-207.01-7.895-305.73-28.991-57.71-12.333-113.59-28.178-167.66-46.281-39.53-13.234-78.55-27.693-117.23-42.908-55.54-22.073-110.95-46.249-171.48-60.217-21.05-4.781-42.51-8.248-64.2-10.578-93.06-10.186-191.08-5.377-277.82 20.152-22.31 6.564-43.9 14.415-64.78 23.601-80.468 35.384-153.774 88.439-217.574 151.383-10.92 10.755-21.697 21.89-32.457 33.203-38.392 40.374-76.547 83.006-119.847 118.627-25.849 21.283-53.398 40.981-84.713 52.967-19.527 7.481-39.689 11.373-60.52 12.174-21.719.833-42.858-.729-64.721-2.871-74.648-7.481-158.449-17.209-231.662 7.403"/><path stroke="#571FE4" stroke-miterlimit="10" stroke-width=".552" d="M3000.01 62.193c-49.42 104.45-138.36 194.843-249.04 242.588-63.93 27.748-129.19 31.364-193.13 57.61-71.4 29.073-146.26 48.192-222.54 59.389-52.31 7.685-105.33 11.638-158.43 12.488-104.57 1.678-209.51-8.552-309.41-31.414-58.4-13.366-114.94-30.586-169.69-50.246-40.06-14.387-79.56-30.105-118.66-46.607-56.19-23.922-112.17-49.992-173.47-65.113-21.29-5.184-43.01-8.961-64.97-11.495-94.32-11.052-193.67-4.289-281.52 23.718-22.56 7.194-44.41 15.701-65.534 25.54-81.273 37.834-154.783 93.507-218.494 158.758-10.898 11.147-21.659 22.675-32.397 34.368-38.326 41.727-76.453 85.562-120.057 121.862-26.042 21.692-53.928 41.479-85.651 53.741-19.792 7.657-40.22 11.809-61.265 13.034-22.067 1.287-43.698.194-65.991-1.573-76.089-6.156-160.454-16.16-234.908 7.994"/><path stroke="#571FE4" stroke-miterlimit="10" stroke-width=".552" d="M2994.96 64.639c-46.81 105.504-134.52 196.643-244.5 244.194-64.83 28.179-130.99 31.331-195.7 58.361-72.11 29.907-147.79 49.964-224.95 61.823-52.91 8.143-106.56 12.422-160.29 13.355-105.81 1.839-212.01-9.209-313.09-33.843-59.1-14.404-116.3-32.987-171.72-54.209-40.6-15.542-80.56-32.513-120.09-50.312-56.82-25.766-113.38-53.735-175.44-70.005-21.54-5.587-43.52-9.673-65.75-12.411-95.58-11.92-196.25-3.197-285.21 27.284a568.547 568.547 0 0 0-66.29 27.478c-82.079 40.28-155.793 98.575-219.416 166.14-10.882 11.544-21.614 23.458-32.336 35.532-38.26 43.085-76.354 88.119-120.272 125.098-26.236 22.1-54.453 41.969-86.59 54.513-20.052 7.828-40.744 12.251-62.011 13.896-22.414 1.734-44.537 1.11-67.261-.271-77.529-4.83-162.463-15.11-238.159 8.58"/><path stroke="#571FE4" stroke-miterlimit="10" stroke-width=".552" d="M2989.91 67.09c-44.21 106.553-130.69 198.449-239.96 245.801-65.72 28.604-132.78 31.298-198.27 59.107-72.81 30.74-149.32 51.736-227.35 64.257-53.52 8.596-107.8 13.206-162.17 14.222-107.06 1.993-214.5-9.86-316.77-36.267-59.79-15.436-117.61-35.482-173.75-58.168-41.1-16.761-81.56-34.925-121.51-54.016-57.48-27.61-114.6-57.483-177.44-74.902-21.78-5.99-44.02-10.385-66.52-13.327-96.84-12.787-198.9-2.269-288.9 30.856-23.107 8.408-45.434 18.274-67.048 29.415-82.89 42.732-156.81 103.644-220.333 173.516-10.865 11.936-21.575 24.248-32.28 36.697-38.194 44.438-76.26 90.675-120.488 128.328-26.429 22.503-54.983 42.467-87.528 55.286-20.317 8.005-41.269 12.687-62.762 14.757-22.757 2.192-45.376 2.032-68.53 1.033-78.966-3.506-164.468-14.067-241.407 9.17"/><path stroke="#571FE4" stroke-miterlimit="10" stroke-width=".552" d="M2984.86 69.537c-41.6 107.602-126.85 200.248-235.42 247.407-66.61 29.034-134.57 31.27-200.84 59.858-73.51 31.573-150.84 53.502-229.74 66.692-54.13 9.054-109.04 13.99-164.05 15.083-108.31 2.153-217-10.517-320.46-38.69-60.48-16.475-118.96-37.868-175.77-62.133-41.63-17.904-82.57-37.337-122.94-57.715-58.11-29.454-115.82-61.226-179.42-79.799-22.03-6.398-44.53-11.097-67.3-14.244-98.1-13.653-201.47-1.148-292.593 34.423a587.386 587.386 0 0 0-67.796 31.353c-83.796 45.012-157.82 108.712-221.255 180.898-10.843 12.333-21.537 25.031-32.22 37.856-38.127 45.79-76.161 93.237-120.703 131.563-26.622 22.912-55.507 42.963-88.467 56.059-20.582 8.182-41.793 13.129-63.507 15.613-23.099 2.645-46.215 2.948-69.795 2.33-80.406-2.181-166.476-13.018-244.658 9.761"/><path stroke="#571FE4" stroke-miterlimit="10" stroke-width=".552" d="M2979.81 71.982c-39 108.657-123.02 202.048-230.88 249.014-67.5 29.46-136.36 31.238-203.42 60.603-74.21 32.413-152.35 55.275-232.14 69.127-54.73 9.507-110.28 14.769-165.92 15.95-109.55 2.313-219.49-11.174-324.13-41.12-61.17-17.506-120.32-40.252-177.8-66.096-42.17-19.041-83.58-39.744-124.37-61.419-58.76-31.298-117.03-64.97-181.4-84.696-22.28-6.802-45.04-11.81-68.07-15.161-99.37-14.52-204.06-.022-296.293 37.99-23.624 9.683-46.481 20.819-68.553 33.296-84.586 47.513-158.831 113.774-222.177 188.273-10.827 12.726-21.493 25.816-32.159 39.022-38.061 47.143-76.067 95.793-120.919 134.798-26.815 23.32-56.037 43.455-89.405 56.832-20.847 8.358-42.312 13.57-64.252 16.474-23.442 3.103-47.055 3.87-71.065 3.633-81.841-.861-168.481-11.969-247.904 10.346"/><path stroke="#571FE4" stroke-miterlimit="10" stroke-width=".552" d="M2974.76 74.433c-36.39 109.706-119.18 203.853-226.34 250.626-68.39 29.89-138.16 31.204-205.99 61.348-74.91 33.247-153.88 57.048-234.53 71.568-55.34 9.965-111.52 15.552-167.8 16.811-110.79 2.473-221.98-11.826-327.81-43.544-61.87-18.544-121.68-42.637-179.84-70.06-42.7-20.184-84.58-42.157-125.79-65.124-59.4-33.142-118.26-68.718-183.4-89.593-22.52-7.205-45.54-12.516-68.84-16.077-100.63-15.386-206.63 1.104-299.985 41.561-23.884 10.325-46.988 22.123-69.309 35.235-85.381 50.013-159.841 118.842-223.099 195.654-10.81 13.118-21.455 26.6-32.099 40.187-37.995 48.495-75.973 98.349-121.134 138.027-27.008 23.729-56.561 43.952-90.343 57.605-21.112 8.536-42.826 14.057-65.003 17.336-23.779 3.605-47.894 4.787-72.335 4.936-83.282.463-170.49-10.921-251.156 10.937"/><path stroke="#571FE4" stroke-miterlimit="10" stroke-width=".552" d="M2969.71 76.88c-33.79 110.754-115.34 205.652-221.79 252.232-69.3 30.315-139.95 31.171-208.57 62.099-75.62 34.08-155.4 58.819-236.93 74.002-166.06 30.928-339.79 22.205-501.16-28.295-108.56-33.97-210.81-85.59-309.09-142.853-60.04-34.985-119.46-72.461-185.37-94.489-121.17-40.496-256.97-24.684-373.295 28.134-116.325 52.818-214.376 140.363-294.081 240.208-72.335 90.603-137.304 197.245-244.669 240.992C271.965 758.941 129.283 711.345 1 744.862"/><path stroke="#571FE4" stroke-miterlimit="10" stroke-width=".552" d="M2713.38 776.977c1.36-139.982-48.14-279.914-137.21-387.908-25.34-30.724-55.06-59.775-92.53-73.251-108.29-38.934-223.92 46.176-314.96 94.501-109.88 58.311-218.5 119.422-332.9 168.63-64.23 27.626-139.66 51.073-201.79 19.008-62.91-32.474-86.84-108.088-112.85-173.935-30.31-76.73-72.04-150.643-133.3-205.896-61.26-55.253-144.07-90.134-226.08-81.141-64.22 7.045-122.73 39.629-176.171 75.94-140.402 95.412-259.68 221.724-346.905 367.36"/><path stroke="#571FE4" stroke-miterlimit="10" stroke-width=".552" d="M2716.89 770.925c1.2-123.717-42.32-244.801-119.48-348.649-7.17-9.645-14.55-19.13-22.24-28.355-25.3-30.304-54.77-58.985-91.72-72.567-106.85-39.325-220.71 41.335-311.63 87.926-80.6 41.307-160.64 84.922-243.52 124.402-28.75 13.752-57.75 26.997-87.12 39.491-63.71 27.096-138.25 50.229-199.91 19.66-62.44-30.956-87.16-103.644-113.88-166.913-31.15-73.721-73.36-144.763-134.51-197.885-21.29-18.495-45.11-34.616-70.56-47.408-47.61-23.95-100.91-36.261-153.87-30.663-63.62 6.724-121.71 37.989-174.8 72.644-107.492 70.109-202.479 157.135-280.787 257.383a1127.618 1127.618 0 0 0-65.516 93.165"/><path stroke="#571FE4" stroke-miterlimit="10" stroke-width=".552" d="M2720.4 764.88c1.16-119.593-44.68-233.97-124.04-338.187-7.2-9.458-14.53-18.821-22.2-27.908-25.27-29.879-54.48-58.196-90.9-71.888-105.42-39.723-217.5 36.493-308.3 81.356-79.76 39.408-159.09 81.869-241.93 120.515-28.54 13.427-57.33 26.39-86.46 38.641-63.2 26.572-136.85 49.384-198.04 20.311-61.96-29.443-87.45-99.205-114.89-159.89-31.99-70.712-74.7-138.883-135.72-189.869-21.25-17.749-44.95-33.225-70.23-45.497-47.27-22.989-100.08-34.837-152.54-29.504-63.02 6.41-120.68 36.349-173.43 69.342-106.856 66.731-201.219 148.976-279.753 244.614-23.436 28.538-45.459 58.257-65.953 89.124"/><path stroke="#571FE4" stroke-miterlimit="10" stroke-width=".552" d="M2723.91 758.83c1.12-115.47-47.01-223.138-128.59-327.726-7.23-9.28-14.52-18.517-22.16-27.46-25.23-29.46-54.19-57.401-90.07-71.203-103.99-40.115-214.28 31.656-304.97 74.78-78.9 37.514-157.64 78.623-240.34 116.634-28.36 13.041-56.9 25.783-85.8 37.791-62.69 26.042-135.45 48.539-196.17 20.963-61.48-27.931-87.76-94.761-115.91-152.868-32.84-67.703-76.02-133.004-136.92-181.858-21.22-17.005-44.8-31.834-69.91-43.593-46.94-22.028-99.25-33.413-151.21-28.339-62.42 6.095-119.65 34.71-172.07 66.041-106.214 63.358-199.947 140.816-278.708 231.85-23.502 27.162-45.663 55.518-66.383 85.087"/><path stroke="#571FE4" stroke-miterlimit="10" stroke-width=".552" d="M2727.42 752.784c1.07-111.346-49.32-212.317-133.14-317.264-7.28-9.098-14.52-18.213-22.14-27.013-25.2-29.035-53.89-56.611-89.25-70.524-102.55-40.507-211.03 26.831-301.64 68.211-78.02 35.631-156.11 75.509-238.74 112.747-28.17 12.698-56.48 25.175-85.15 36.94-62.17 25.518-134.03 47.701-194.29 21.615-61.01-26.412-88.06-90.317-116.93-145.846-33.68-64.693-77.35-127.129-138.13-173.847-21.18-16.264-44.64-30.442-69.58-41.688-46.61-21.062-98.42-31.983-149.89-27.179-61.82 5.774-118.62 33.07-170.7 62.739-105.574 59.979-198.683 132.656-277.676 219.08-23.574 25.788-45.873 52.779-66.82 81.046"/><path stroke="#571FE4" stroke-miterlimit="10" stroke-width=".552" d="M2730.92 746.734c1.04-107.221-51.59-201.502-137.69-306.801-7.3-8.922-14.51-17.905-22.09-26.567-25.16-28.615-53.61-55.822-88.44-69.839-101.11-40.899-207.77 22.012-298.31 61.641-77.14 33.765-154.58 72.401-237.15 108.866-27.96 12.356-56.04 24.568-84.48 36.09-61.65 24.987-132.63 46.856-192.42 22.266-60.53-24.899-88.36-85.872-117.95-138.823-34.52-61.69-78.67-121.25-139.34-165.831-21.14-15.519-44.49-29.051-69.25-39.783-46.28-20.102-97.59-30.558-148.57-26.015-61.21 5.461-117.58 31.436-169.32 59.444-104.937 56.605-197.423 124.496-276.642 206.315-23.641 24.414-46.083 50.041-67.256 77.005"/><path stroke="#571FE4" stroke-miterlimit="10" stroke-width=".552" d="M2734.43 740.682c1-103.097-53.84-190.702-142.24-296.344-7.32-8.745-14.5-17.601-22.06-26.12-25.12-28.189-53.31-55.032-87.61-69.16-99.68-41.29-204.5 17.198-294.98 55.066-76.24 31.91-153.06 69.292-235.56 104.979-27.77 12.014-55.62 23.961-83.82 35.234-61.14 24.464-131.22 46.012-190.54 22.918-60.07-23.387-88.67-81.428-118.99-131.8-35.36-58.682-79.99-115.37-140.54-157.82-21.1-14.774-44.33-27.66-68.93-37.874-45.94-19.141-96.75-29.133-147.23-24.855-60.62 5.146-116.56 29.797-167.96 56.142-104.296 53.227-196.158 116.336-275.604 193.546-23.712 23.039-46.293 47.303-67.686 72.964"/><path stroke="#571FE4" stroke-miterlimit="10" stroke-width=".552" d="M2737.94 734.637c.96-98.973-56.06-179.909-146.79-285.882-7.35-8.574-14.5-17.297-22.03-25.672-25.08-27.77-53.03-54.243-86.79-68.476-98.25-41.688-201.22 12.4-291.65 48.496-75.33 30.066-151.52 66.19-233.97 101.098-27.57 11.677-55.2 23.348-83.15 34.384-60.63 23.933-129.83 45.167-188.68 23.569-59.59-21.868-88.97-76.989-120-124.778-36.2-55.672-81.31-109.49-141.74-149.803a371.515 371.515 0 0 0-68.61-35.969c-45.6-18.18-95.92-27.704-145.91-23.69-60.01 4.825-115.52 28.157-166.59 52.84-103.655 49.854-194.894 108.177-274.571 180.782-23.778 21.664-46.502 44.564-68.122 68.923"/><path stroke="#571FE4" stroke-miterlimit="10" stroke-width=".552" d="M2741.45 728.586c.92-94.849-58.25-169.133-151.34-275.421-7.36-8.403-14.49-16.987-21.99-25.225-25.05-27.345-52.74-53.447-85.97-67.791-96.82-42.08-197.91 7.608-288.32 41.92-74.41 28.24-150 63.088-232.37 97.212-27.37 11.335-54.78 22.741-82.5 33.534-60.12 23.409-128.42 44.322-186.81 24.226-59.11-20.356-89.27-72.545-121.02-117.755-37.04-52.664-82.64-103.611-142.95-141.793a380.544 380.544 0 0 0-68.28-34.064c-45.27-17.214-95.09-26.279-144.59-22.525-59.41 4.51-114.49 26.517-165.22 49.544-103.015 46.475-193.629 100.017-273.533 168.012-23.85 20.289-46.712 41.82-68.558 64.887"/><path stroke="#571FE4" stroke-miterlimit="10" stroke-width=".552" d="M2744.96 722.535c.87-90.725-60.43-158.372-155.9-264.958-7.37-8.232-14.48-16.684-21.95-24.778-25.01-26.925-52.45-52.658-85.15-67.112-95.38-42.472-194.59 2.832-284.98 35.35-73.47 26.429-148.47 59.996-230.79 93.331-27.17 11.003-54.35 22.133-81.83 32.684-59.61 22.878-127.02 43.477-184.94 24.877-58.63-18.843-89.57-68.1-122.04-110.733-37.89-49.655-83.97-97.73-144.16-133.776a391.275 391.275 0 0 0-67.95-32.159c-44.94-16.254-94.26-24.85-143.26-21.366-58.81 4.19-113.47 24.877-163.85 46.243-102.378 43.101-192.369 91.856-272.499 155.247-23.916 18.914-46.922 39.082-68.989 60.846"/><path stroke="#571FE4" stroke-miterlimit="10" stroke-width=".552" d="M2748.47 716.49c.84-86.6-62.57-147.623-160.45-254.502-7.39-8.066-14.47-16.38-21.92-24.336-24.97-26.5-52.15-51.868-84.33-66.427-93.95-42.864-191.26-1.932-281.66 28.775-72.51 24.634-146.92 56.904-229.19 89.444-26.97 10.666-53.92 21.526-81.18 31.833-59.09 22.354-125.6 42.632-183.06 25.529-58.16-17.33-89.88-63.656-123.06-103.71-38.73-46.646-85.3-91.851-145.37-125.766a403.482 403.482 0 0 0-67.63-30.254c-44.6-15.293-93.42-23.425-141.93-20.201-58.21 3.875-112.43 23.237-162.48 42.941-101.738 39.723-191.105 83.691-271.467 142.478-23.983 17.54-47.132 36.344-69.425 56.804"/><path stroke="#571FE4" stroke-miterlimit="10" stroke-width=".552" d="M2751.97 710.439c.8-82.477-64.68-136.896-164.99-244.04-7.4-7.9-14.47-16.071-21.88-23.889-24.95-26.081-51.87-51.079-83.51-65.748-92.51-43.256-187.92-6.675-278.33 22.205-71.55 22.856-145.38 53.812-227.6 85.563-26.76 10.335-53.5 20.918-80.51 30.983-58.58 21.824-124.2 41.793-181.18 26.18-57.69-15.812-90.18-59.217-124.09-96.682-39.57-43.643-86.62-85.971-146.58-117.755a417.53 417.53 0 0 0-67.3-28.344c-44.26-14.332-92.59-22.001-140.6-19.042-57.61 3.561-111.41 21.598-161.12 39.646-101.091 36.349-189.833 75.531-270.422 129.707-24.054 16.166-47.341 33.606-69.856 52.764"/><path stroke="#571FE4" stroke-miterlimit="10" stroke-width=".552" d="M2755.48 704.394c.76-78.352-66.77-126.191-169.55-233.577-7.4-7.735-14.44-15.785-21.84-23.442-24.86-25.705-51.58-50.284-82.69-65.064-91.08-43.653-184.56-11.406-274.99 15.635-70.58 21.101-143.85 50.732-226.01 81.676-26.56 10.004-53.07 20.306-79.86 30.128-58.06 21.299-122.79 40.948-179.31 26.831-57.21-14.299-90.48-54.772-125.1-89.659-40.42-40.634-87.94-80.091-147.79-109.738a435.863 435.863 0 0 0-66.97-26.44c-43.93-13.366-91.76-20.571-139.28-17.877-57 3.241-110.37 19.958-159.74 36.344-100.454 32.971-188.573 67.372-269.388 116.944-24.121 14.79-47.551 30.867-70.292 48.727"/><path stroke="#571FE4" stroke-miterlimit="10" stroke-width=".552" d="M2758.99 698.343c.72-74.229-68.83-115.508-174.1-223.116-7.41-7.574-14.43-15.475-21.81-22.994-24.81-25.286-51.29-49.495-81.87-64.385-89.64-44.045-181.18-16.11-271.66 9.06-69.59 19.362-142.3 47.651-224.42 77.795-26.34 9.672-52.64 19.698-79.19 29.277-57.55 20.77-121.39 40.104-177.44 27.483-56.74-12.786-90.78-50.328-126.12-82.637-41.26-37.624-89.27-74.211-149-101.727a457.294 457.294 0 0 0-66.65-24.535c-43.59-12.406-90.93-19.147-137.95-16.717-56.41 2.926-109.34 18.318-158.38 33.042-99.809 29.598-187.304 59.212-268.35 104.174-24.193 13.415-47.762 28.129-70.729 44.686"/><path stroke="#571FE4" stroke-miterlimit="10" stroke-width=".552" d="M2762.5 692.291c.68-70.104-70.86-104.847-178.65-212.653-7.42-7.415-14.43-15.171-21.78-22.547-24.78-24.866-50.99-48.706-81.04-63.7-88.22-44.438-177.8-20.798-268.34 2.49-68.6 17.644-140.75 44.575-222.82 73.908-26.15 9.341-52.22 19.091-78.53 28.427-57.04 20.245-119.99 39.259-175.57 28.134-56.27-11.268-91.09-45.884-127.14-75.614-42.11-34.616-90.61-68.332-150.21-93.711a484.919 484.919 0 0 0-66.33-22.631c-43.25-11.444-90.09-17.722-136.62-15.552-55.81 2.612-108.32 16.679-157.02 29.747-99.169 26.218-186.04 51.051-267.313 91.409-24.259 12.041-47.971 25.391-71.159 40.645"/><path stroke="#571FE4" stroke-miterlimit="10" stroke-width=".552" d="M2766.01 686.246c.64-65.98-72.87-94.214-183.2-202.197-7.42-7.254-14.42-14.868-21.74-22.1-24.74-24.446-50.71-47.916-80.23-63.021-86.77-44.829-174.4-25.457-265-4.085-67.6 15.944-139.21 41.506-221.24 70.027-25.93 9.015-51.79 18.483-77.86 27.576-56.53 19.715-118.59 38.415-173.7 28.786-55.79-9.755-91.39-41.445-128.16-68.591-42.95-31.607-91.93-62.452-151.41-85.701a517.01 517.01 0 0 0-66.01-20.72c-42.92-10.484-89.26-16.292-135.29-14.387-55.2 2.291-107.28 15.039-155.65 26.445-98.53 22.845-184.774 42.892-266.274 78.639-24.33 10.661-48.18 22.647-71.595 36.604"/><path stroke="#571FE4" stroke-miterlimit="10" stroke-width=".552" d="M2769.51 680.195c.6-61.856-74.84-83.608-187.75-191.735-7.41-7.099-14.41-14.564-21.7-21.653-24.71-24.021-50.45-47.065-79.41-62.336-85.44-45.05-170.99-30.089-261.68-10.655-66.58 14.271-137.65 38.442-219.64 66.14-25.72 8.69-51.36 17.877-77.2 26.727-56.01 19.19-117.18 37.569-171.83 29.437-55.32-8.243-91.69-37.001-129.17-61.569-43.79-28.598-93.26-56.572-152.62-77.684a556.342 556.342 0 0 0-65.68-18.815c-42.59-9.518-88.43-14.868-133.97-13.229-54.61 1.977-106.25 13.4-154.28 23.144-97.89 19.467-183.51 34.732-265.241 65.875-24.397 9.286-48.39 19.909-72.031 32.568"/><path stroke="#571FE4" stroke-miterlimit="10" stroke-width=".552" d="M2773.03 674.15c.55-57.732-76.8-73.03-192.31-181.272-7.41-6.946-14.4-14.255-21.66-21.206-24.67-23.602-50.16-46.276-78.59-61.652-84-45.448-167.58-34.699-258.34-17.225-65.56 12.621-136.1 35.383-218.05 62.259-25.52 8.37-50.94 17.269-76.55 25.876-55.49 18.661-115.77 36.725-169.95 30.095-54.84-6.725-91.99-32.557-130.2-54.547-44.63-25.589-94.58-50.692-153.83-69.673a607.54 607.54 0 0 0-65.35-16.911c-42.25-8.557-87.6-13.437-132.64-12.063-54.01 1.656-105.23 11.765-152.91 19.848-97.25 16.093-182.255 26.572-264.207 53.105-24.468 7.912-48.595 17.17-72.461 28.527"/><path stroke="#571FE4" stroke-miterlimit="10" stroke-width=".552" d="M2776.53 668.1c.52-53.613-78.72-62.48-196.86-170.811-7.41-6.79-14.39-13.951-21.63-20.758-24.63-23.177-49.87-45.487-77.77-60.973-82.57-45.84-164.15-39.27-255.01-23.8-64.53 10.992-134.55 32.33-216.45 58.372-25.31 8.049-50.52 16.656-75.89 25.026-54.98 18.136-114.36 35.886-168.08 30.746-54.37-5.212-92.3-28.113-131.22-47.524-45.47-22.586-95.9-44.819-155.04-61.663a672.837 672.837 0 0 0-65.02-15.005c-41.92-7.597-86.77-12.014-131.32-10.904-53.41 1.341-104.19 10.125-151.54 16.546-96.61 12.714-180.991 18.406-263.169 40.341-24.535 6.537-48.805 14.432-72.898 24.485"/><path stroke="#571FE4" stroke-miterlimit="10" stroke-width=".552" d="M2780.04 662.048c.48-49.489-80.61-51.968-201.41-160.354-7.4-6.641-14.38-13.642-21.59-20.311-24.59-22.757-49.58-44.697-76.94-60.288-81.14-46.237-160.73-43.814-251.69-30.37-63.5 9.385-132.99 29.288-214.86 54.491-25.1 7.729-50.09 16.049-75.22 24.17-54.47 17.606-112.96 35.041-166.21 31.398-53.9-3.699-92.61-23.674-132.25-40.502-46.31-19.577-97.22-38.939-156.24-53.646a755.744 755.744 0 0 0-64.7-13.096c-41.58-6.636-85.93-10.589-129.98-9.739-52.81 1.027-103.17 8.486-150.17 13.245-95.97 9.341-179.73 10.247-262.14 27.571-24.601 5.162-49.014 11.694-73.334 20.444"/><path stroke="#571FE4" stroke-miterlimit="10" stroke-width=".552" d="M2783.55 656.003c.43-45.365-82.48-41.489-205.96-149.892-7.4-6.493-14.38-13.339-21.56-19.864-24.56-22.332-49.29-43.908-76.12-59.609-79.7-46.635-157.3-48.319-248.36-36.946-62.47 7.801-131.43 26.246-213.27 50.604-24.89 7.41-49.66 15.442-74.56 23.321-53.95 17.081-111.56 34.196-164.33 32.048-53.42-2.18-92.91-19.229-133.27-33.478-47.16-16.568-98.55-33.059-157.45-45.636a872.696 872.696 0 0 0-64.37-11.191c-41.25-5.67-85.1-9.159-128.66-8.579-52.2.707-102.13 6.846-148.8 9.948-95.33 5.963-178.465 2.087-261.102 14.802-24.672 3.787-49.224 8.955-73.764 16.403"/><path stroke="#571FE4" stroke-miterlimit="10" stroke-width=".552" d="M2787.05 649.952c.4-41.241-84.32-31.044-210.51-139.43-7.38-6.349-14.37-13.035-21.52-19.417-24.53-21.907-48.96-43.168-75.3-58.925-78.18-47.187-153.86-52.785-245.03-43.515-61.44 6.244-129.87 23.21-211.68 46.723-24.68 7.094-49.23 14.835-73.89 22.47-53.45 16.552-110.16 33.352-162.47 32.7-52.94-.668-93.21-14.785-134.28-26.456-47.99-13.559-99.88-27.179-158.66-37.619-20.52-3.622-41.97-6.796-64.04-9.286-40.92-4.709-84.27-7.735-127.34-7.415-51.61.392-101.11 5.207-147.44 6.647-94.69 2.59-177.196-6.073-260.059 2.038-24.739 2.412-49.434 6.211-74.2 12.366"/><path stroke="#571FE4" stroke-miterlimit="10" stroke-width=".552" d="M2790.57 643.907c.35-37.117-86.15-20.637-215.07-128.968-7.38-6.2-14.36-12.726-21.48-18.97-24.5-21.482-48.68-42.378-74.49-58.245-76.74-47.585-150.42-57.213-241.69-50.086-60.41 4.715-128.31 20.185-210.08 42.837-24.47 6.779-48.81 14.227-73.24 21.62-52.93 16.027-108.75 32.507-160.6 33.351-52.47.845-93.51-10.34-135.3-19.433-48.84-10.551-101.21-21.3-159.86-29.609-20.5-2.882-41.82-5.41-63.73-7.381-40.58-3.749-83.44-6.311-126.01-6.25-51 .077-100.07 3.567-146.06 3.346-94.05-.79-175.935-14.233-259.03-10.733-24.811 1.038-49.644 3.473-74.632 8.326"/><path stroke="#571FE4" stroke-miterlimit="10" stroke-width=".552" d="M2794.07 637.856c.32-32.993-87.94-10.274-219.61-118.511-7.37-6.057-14.36-12.422-21.45-18.523-24.46-21.056-48.38-41.589-73.66-57.56-75.31-47.977-147-61.597-238.37-56.661-59.38 3.207-126.75 17.159-208.49 38.955-24.26 6.465-48.39 13.615-72.58 20.77-52.42 15.497-107.34 31.662-158.72 34.003-52 2.363-93.81-5.902-136.32-12.411-49.69-7.542-102.54-15.42-161.07-21.592-20.46-2.137-41.66-4.02-63.4-5.472-40.25-2.788-82.61-4.88-124.68-5.09-50.4-.243-99.04 1.927-144.7.044-93.41-4.162-174.671-22.392-257.992-23.497-24.877-.336-49.853.735-75.067 4.285"/><path stroke="#571FE4" stroke-miterlimit="10" stroke-width=".552" d="M2797.58 631.805c.28-28.868-89.7.05-224.16-108.049-7.36-5.918-14.37-12.102-21.42-18.075-24.47-20.588-48.1-40.8-72.84-56.876-73.88-48.369-143.57-65.936-235.04-63.231-58.35 1.722-125.18 14.15-206.9 35.069-24.04 6.155-47.96 13.007-71.91 19.919-51.9 14.972-105.94 30.817-156.85 34.654-51.52 3.876-94.11-1.457-137.34-5.388-50.53-4.538-103.86-9.54-162.28-13.581-20.42-1.392-41.51-2.628-63.07-3.567-39.91-1.822-81.78-3.456-123.36-3.925-49.8-.558-98.02.287-143.33-3.252-92.77-7.542-173.41-30.553-256.954-36.267-24.948-1.711-50.063-2.004-75.503.243"/><path stroke="#571FE4" stroke-miterlimit="10" stroke-width=".552" d="M2801.09 625.759c.24-24.744-91.44 10.33-228.72-97.587-7.34-5.775-14.35-11.792-21.37-17.634-24.43-20.162-47.81-40.004-72.02-56.197-72.44-48.76-140.16-70.225-231.71-69.806-57.34.265-123.62 11.141-205.31 31.188-23.83 5.846-47.53 12.4-71.25 19.063-51.39 14.443-104.53 29.979-154.98 35.306-51.04 5.389-94.42 2.987-138.36 1.635-51.37-1.53-105.19-3.661-163.49-5.571-20.38-.651-41.35-1.237-62.75-1.662-39.57-.861-80.95-2.026-122.03-2.766-49.2-.872-96.98-1.352-141.96-6.553-92.13-10.915-172.14-38.712-255.921-49.031-25.015-3.086-50.273-4.742-75.934-3.793"/><path stroke="#571FE4" stroke-miterlimit="10" stroke-width=".552" d="M2804.6 619.708c.2-20.62-93.15 20.566-233.26-87.125-7.34-5.637-14.35-11.489-21.35-17.186-24.39-19.743-47.52-39.215-71.2-55.513-71-49.152-136.76-74.471-228.38-76.376-56.33-1.17-122.06 8.144-203.71 27.301-23.63 5.543-47.11 11.793-70.6 18.213-50.87 13.919-103.13 29.134-153.1 35.963-50.57 6.902-94.72 7.432-139.38 8.657-52.21 1.48-106.51 2.22-164.7 2.446-20.34.094-41.19.155-62.42.243-39.24.099-80.11-.602-120.7-1.601-48.6-1.193-95.96-2.992-140.59-9.855-91.49-14.294-170.88-46.878-254.887-61.801-25.081-4.461-50.483-7.481-76.37-7.834"/><path stroke="#571FE4" stroke-miterlimit="10" stroke-width=".552" d="M2808.11 613.663c.16-16.496-94.84 30.752-237.82-76.663-7.32-5.498-14.35-11.185-21.31-16.739-24.36-19.317-47.22-38.425-70.38-54.833-69.57-49.55-133.37-78.667-225.04-82.946-55.34-2.584-120.49 5.151-202.13 23.419-23.4 5.24-46.68 11.186-69.93 17.364-50.36 13.388-101.72 28.289-151.23 36.614-50.1 8.419-95.03 11.87-140.4 15.679-53.06 4.489-107.84 8.1-165.91 10.457-20.3.839-41.03 1.546-62.1 2.148-38.91 1.06-79.28.822-119.38-.442-48-1.507-94.92-4.632-139.22-13.151-90.85-17.667-169.61-55.037-253.844-74.57-25.153-5.836-50.692-10.22-76.806-11.876"/><path stroke="#571FE4" stroke-miterlimit="10" stroke-width=".552" d="M2811.62 607.613c.12-12.373-96.51 40.887-242.37-66.207-7.31-5.366-14.33-10.876-21.27-16.292-24.33-18.898-46.94-37.636-69.56-54.149-68.14-49.942-130.01-82.813-221.71-89.521-54.36-3.975-118.93 2.17-200.54 19.533-23.2 4.936-46.25 10.572-69.27 16.513-49.85 12.864-100.32 27.444-149.36 37.266-49.62 9.932-95.32 16.314-141.42 22.702-53.9 7.497-109.16 13.979-167.11 18.473a2558.191 2558.191 0 0 1-61.77 4.057c-38.57 2.027-78.46 2.253-118.06.724-47.39-1.828-93.88-6.272-137.85-16.452-90.21-21.041-168.35-63.198-252.815-87.335-25.22-7.211-50.903-12.963-77.237-15.917"/><path stroke="#571FE4" stroke-miterlimit="10" stroke-width=".552" d="M2815.12 601.561c.08-8.248-98.14 50.975-246.91-55.744-7.3-5.234-14.33-10.573-21.24-15.845-24.28-18.473-46.64-36.841-68.74-53.47-66.7-50.334-126.67-86.909-218.38-96.091-53.39-5.344-117.36-.8-198.94 15.652-22.98 4.638-45.83 9.965-68.61 15.663-49.33 12.333-98.91 26.599-147.48 37.917-49.15 11.445-95.64 20.759-142.45 29.725-54.74 10.506-110.49 19.858-168.32 26.483a1723.977 1723.977 0 0 1-61.45 5.963 949.287 949.287 0 0 1-116.72 1.888c-46.79-2.142-92.86-7.911-136.49-19.754-89.56-24.419-167.08-71.357-251.771-100.104-25.291-8.585-51.113-15.702-77.674-19.953"/><path stroke="#571FE4" stroke-miterlimit="10" stroke-width=".552" d="M2818.63 595.516c.04-4.124-99.76 61.006-251.47-45.282-7.29-5.102-14.32-10.264-21.2-15.398-24.25-18.053-46.36-36.051-67.92-52.785-65.27-50.726-123.37-90.957-215.06-102.667-52.44-6.696-115.77-3.665-197.35 11.765-22.76 4.367-45.4 9.358-67.94 14.813-48.82 11.809-97.51 25.755-145.61 38.569-48.68 12.963-95.94 25.203-143.47 36.747-55.58 13.515-111.81 25.738-169.53 34.5-20.18 3.07-40.56 5.72-61.12 7.867-37.9 3.948-76.79 5.101-115.4 3.048-46.19-2.457-91.83-9.546-135.12-23.05-88.92-27.792-165.82-79.517-250.734-112.869-25.357-9.96-51.322-18.44-78.104-23.994"/><path stroke="#571FE4" stroke-miterlimit="10" stroke-width=".552" d="M2822.14 589.465s-101.35 70.988-256.02-34.82c-154.67-105.808-207.92-219.969-495.74-168.409-198.9 35.632-386.53 123.027-587.04 149.235-82.5 10.782-168.97 5.703-247.83-22.139-88.28-31.171-164.55-87.677-249.7-125.639-25.429-11.334-51.526-21.178-78.54-28.035"/></svg>