<svg xmlns="http://www.w3.org/2000/svg" width="2260" height="1397" fill="none"><path stroke="url(#a)" stroke-width="4" d="m1892.3 1181.6 158.03-284.682a23.008 23.008 0 0 0 2.04-17.383l-126.06-448.731a22.988 22.988 0 0 0-7.68-11.663l-317.4-256.704a23.002 23.002 0 0 0-23.82-3.128l-259.39 115.492a23.004 23.004 0 0 0-13.62 19.793l-21.61 407.644c-.25 4.76.98 9.482 3.53 13.511l249.12 393.931c3.24 5.13 8.38 8.76 14.28 10.12l317.31 73.05c9.99 2.3 20.29-2.28 25.27-11.25Z" opacity=".014"/><path stroke="url(#b)" stroke-width="4" d="m1843 1194.76 171.92-273.768a22.998 22.998 0 0 0 2.96-17.274l-101.24-450.583a23.005 23.005 0 0 0-7.08-12.08l-301.29-270.207a22.986 22.986 0 0 0-23.59-4.349l-263.51 101.152a23.002 23.002 0 0 0-14.63 19.023l-43.09 402.4c-.51 4.755.47 9.55 2.81 13.718l226.27 402.588c2.97 5.29 7.92 9.2 13.76 10.86l310.94 88.41c9.84 2.8 20.34-1.23 25.77-9.89Z" opacity=".029"/><path stroke="url(#c)" stroke-width="4" d="m1793.61 1206.34 185.09-262.187a22.975 22.975 0 0 0 3.89-17.114l-76.58-451.078a23.003 23.003 0 0 0-6.47-12.468l-284.63-282.734a22.983 22.983 0 0 0-23.31-5.556l-266.84 86.7a23.007 23.007 0 0 0-15.6 18.201l-64.08 396.036c-.76 4.734-.03 9.59 2.1 13.887l203.18 409.943c2.7 5.45 7.45 9.6 13.2 11.56l303.86 103.32c9.65 3.29 20.31-.18 26.19-8.51Z" opacity=".043"/><path stroke="url(#d)" stroke-width="4" d="m1744.22 1216.36 197.52-249.991a22.988 22.988 0 0 0 4.81-16.906l-52.16-450.238a23.009 23.009 0 0 0-5.82-12.825l-267.49-294.266a23.015 23.015 0 0 0-22.98-6.745l-269.38 72.18a23.008 23.008 0 0 0-16.52 17.328l-84.52 388.587a23.02 23.02 0 0 0 1.37 14.02L1409 1093.5c2.42 5.59 6.95 9.99 12.61 12.24l296.06 117.73a23.03 23.03 0 0 0 26.55-7.11Z" opacity=".058"/><path stroke="url(#e)" stroke-width="4" d="m1694.9 1224.82 209.2-237.212a23.012 23.012 0 0 0 5.7-16.648l-28.02-448.089a22.994 22.994 0 0 0-5.17-13.149l-249.93-304.788a23.004 23.004 0 0 0-22.57-7.913l-271.13 57.632a22.993 22.993 0 0 0-17.4 16.408l-104.36 380.095a22.937 22.937 0 0 0 .63 14.114l156.65 420.75a23.027 23.027 0 0 0 11.99 12.89l287.59 131.61c9.22 4.22 20.11 1.9 26.82-5.7Z" opacity=".072"/><path stroke="url(#f)" stroke-width="4" d="m1645.75 1231.74 220.07-223.9a22.985 22.985 0 0 0 6.6-16.339l-4.26-444.658a22.998 22.998 0 0 0-4.5-13.44l-232.01-314.288a22.997 22.997 0 0 0-22.1-9.057l-272.12 43.099a23.004 23.004 0 0 0-18.22 15.444l-123.53 370.601a23.02 23.02 0 0 0-.13 14.17l133.36 424.208a23.017 23.017 0 0 0 11.32 13.51l278.5 144.93a22.996 22.996 0 0 0 27.02-4.28Z" opacity=".087"/><path stroke="url(#g)" stroke-width="4" d="m1596.84 1237.16 230.14-210.11c4.51-4.12 7.2-9.88 7.47-15.99l19.06-439.978a23.016 23.016 0 0 0-3.8-13.697l-213.79-322.756a22.988 22.988 0 0 0-21.57-10.173l-272.33 28.623a22.985 22.985 0 0 0-18.99 14.437l-142.01 360.151a22.973 22.973 0 0 0-.87 14.188l110.12 426.405a22.98 22.98 0 0 0 10.64 14.08l268.79 157.67c8.69 5.1 19.7 3.95 27.14-2.85Z" opacity=".101"/><path stroke="url(#h)" stroke-width="4" d="m1548.26 1241.1 239.36-195.89a23.01 23.01 0 0 0 8.33-15.59l41.88-434.088a22.99 22.99 0 0 0-3.09-13.919l-195.31-330.187a22.999 22.999 0 0 0-21-11.258l-271.77 14.242a23.01 23.01 0 0 0-19.71 13.392l-159.72 348.794a23.012 23.012 0 0 0-1.63 14.166l87.03 427.338c1.22 6 4.79 11.27 9.91 14.63l258.53 169.79c8.4 5.52 19.41 4.94 27.19-1.42Z" opacity=".116"/><path stroke="url(#i)" stroke-width="4" d="m1500.08 1243.58 247.73-181.27c4.95-3.63 8.25-9.08 9.17-15.15l64.14-427.025c.73-4.835-.11-9.776-2.38-14.105l-176.65-336.578a22.987 22.987 0 0 0-20.36-12.312h-270.46c-8.55 0-16.39 4.742-20.36 12.312L1154.26 606.03a22.989 22.989 0 0 0-2.38 14.105l64.14 427.025c.92 6.07 4.22 11.52 9.17 15.15l247.73 181.27a22.988 22.988 0 0 0 27.16 0Z" opacity=".13"/><path stroke="url(#j)" stroke-width="4" d="m1452.38 1244.66 255.24-166.33c5.14-3.36 8.74-8.64 9.97-14.66l85.78-418.837c.98-4.806.41-9.801-1.65-14.255l-157.85-341.93a23.008 23.008 0 0 0-19.68-13.328l-268.41-14.067a23 23 0 0 0-20.96 11.198l-192.73 323.557a22.98 22.98 0 0 0-3.13 14.005l41.53 425.507c.59 6.12 3.62 11.74 8.39 15.62l236.44 192.1c7.76 6.3 18.69 6.87 27.06 1.42Z" opacity=".145"/><path stroke="url(#k)" stroke-width="4" d="m1405.24 1244.36 261.85-151.11a22.97 22.97 0 0 0 10.76-14.12l106.73-409.561c1.25-4.764.93-9.8-.91-14.368l-138.98-346.247a23.013 23.013 0 0 0-18.94-14.306l-265.63-27.919a22.995 22.995 0 0 0-21.5 10.056l-207.94 309.784a23.05 23.05 0 0 0-3.88 13.864l19.25 422.807c.28 6.15 3.01 11.93 7.59 16.05l224.71 202.25c7.41 6.66 18.26 7.8 26.89 2.82Z" opacity=".159"/><path stroke="url(#l)" stroke-width="4" d="m1358.71 1242.74 267.59-135.65c5.5-2.79 9.65-7.67 11.52-13.55l126.95-399.254a22.943 22.943 0 0 0-.17-14.443l-120.1-349.537a22.982 22.982 0 0 0-18.15-15.243l-262.14-41.519a23.008 23.008 0 0 0-21.98 8.887L1120 577.747a22.994 22.994 0 0 0-4.62 13.685l-2.64 418.948a22.98 22.98 0 0 0 6.77 16.44l212.57 211.7a22.996 22.996 0 0 0 26.63 4.22Z" opacity=".174"/><path stroke="url(#m)" stroke-width="4" d="m1312.87 1239.84 272.43-120.02a22.995 22.995 0 0 0 12.24-12.93l146.39-387.961a23.008 23.008 0 0 0 .59-14.481L1643.27 352.64a23.001 23.001 0 0 0-17.32-16.136l-257.97-54.832a23.006 23.006 0 0 0-22.39 7.696L1110 569.578a22.94 22.94 0 0 0-5.35 13.466l-24.07 413.966a22.983 22.983 0 0 0 5.93 16.79l200.06 220.45a22.991 22.991 0 0 0 26.3 5.59Z" opacity=".188"/><path stroke="url(#n)" stroke-width="4" d="m1267.78 1235.71 276.37-104.25a23.033 23.033 0 0 0 12.94-12.27l165-375.749c2-4.555 2.47-9.636 1.33-14.48l-82.49-353.074a23 23 0 0 0-16.44-16.983l-253.12-67.824a23.01 23.01 0 0 0-22.74 6.486L1100.65 562.09a23.04 23.04 0 0 0-6.08 13.209l-44.98 407.902a22.997 22.997 0 0 0 5.07 17.099l187.22 228.47a22.992 22.992 0 0 0 25.9 6.94Z" opacity=".203"/><path stroke="url(#o)" stroke-width="4" d="m1223.51 1230.4 279.4-88.4a23.034 23.034 0 0 0 13.61-11.58l182.72-362.651a22.969 22.969 0 0 0 2.1-14.441l-63.89-353.35a22.99 22.99 0 0 0-15.52-17.783l-247.63-80.459a22.995 22.995 0 0 0-23.01 5.26l-259.38 248.317a23.015 23.015 0 0 0-6.79 12.914l-65.33 400.794a22.99 22.99 0 0 0 4.19 17.363l174.09 235.756a22.988 22.988 0 0 0 25.44 8.26Z" opacity=".217"/><path stroke="url(#p)" stroke-width="4" d="m1180.1 1223.98 281.55-72.53a23.03 23.03 0 0 0 14.23-10.85l199.54-348.741a23 23 0 0 0 2.85-14.364l-45.47-352.656a22.987 22.987 0 0 0-14.57-18.531L1376.72 313.6a23.01 23.01 0 0 0-23.23 4.023l-269.76 231.651a22.999 22.999 0 0 0-7.49 12.58l-85.064 392.685a23.003 23.003 0 0 0 3.311 17.582l160.703 242.299c5.42 8.17 15.42 12 24.91 9.56Z" opacity=".232"/><path stroke="url(#q)" stroke-width="4" d="m1137.61 1216.5 282.81-56.68c6.1-1.22 11.44-4.86 14.81-10.09l215.41-334.071a22.974 22.974 0 0 0 3.6-14.248l-27.3-351.012a22.988 22.988 0 0 0-13.57-19.229l-234.8-104.539a23.015 23.015 0 0 0-23.38 2.778l-279.11 214.587a22.946 22.946 0 0 0-8.18 12.209L963.769 939.824a23 23 0 0 0 2.414 17.756l147.117 248.1a23.007 23.007 0 0 0 24.31 10.82Z" opacity=".246"/><path stroke="url(#r)" stroke-width="4" d="m1096.08 1208.02 283.19-40.9c6.17-.89 11.71-4.24 15.36-9.29l230.29-318.711a22.962 22.962 0 0 0 4.35-14.093l-9.42-348.444a23.018 23.018 0 0 0-12.55-19.871l-227.52-115.924a22.997 22.997 0 0 0-23.45 1.527L1068.89 539.5a22.996 22.996 0 0 0-8.84 11.802L937.569 924.946a23.005 23.005 0 0 0 1.507 17.885l133.374 253.149c4.53 8.61 14 13.43 23.63 12.04Z" opacity=".261"/><path stroke="url(#s)" stroke-width="4" d="m1055.57 1198.61 282.7-25.23a23.05 23.05 0 0 0 15.86-8.47l244.16-302.721a23.016 23.016 0 0 0 5.09-13.899l8.11-344.976a23 23 0 0 0-11.49-20.459L1380.31 356.02a22.992 22.992 0 0 0-23.46.276l-294.71 179.51a23.012 23.012 0 0 0-9.49 11.358l-140.077 362.81a23.002 23.002 0 0 0 .595 17.968l119.502 257.438a22.99 22.99 0 0 0 22.9 13.23Z" opacity=".275"/><path stroke="url(#t)" stroke-width="4" d="m1016.12 1188.33 281.35-9.74c6.24-.21 12.13-2.96 16.31-7.61l257-286.156a22.958 22.958 0 0 0 5.82-13.668l25.26-340.638a23.004 23.004 0 0 0-10.41-20.99l-211.34-137.247a23.002 23.002 0 0 0-23.41-.973l-300.92 161.621a23.043 23.043 0 0 0-10.12 10.88L888.779 894.977a22.999 22.999 0 0 0-.323 18.004l105.542 260.989c3.623 8.96 12.462 14.69 22.122 14.36Z" opacity=".29"/><path stroke="url(#u)" stroke-width="4" d="m977.75 1177.25 279.16 5.55c6.26.13 12.3-2.31 16.73-6.74l268.77-269.084a22.98 22.98 0 0 0 6.55-13.399l41.97-335.459a22.996 22.996 0 0 0-9.3-21.462l-202.52-147.138a22.989 22.989 0 0 0-23.28-2.215l-306.07 143.58a22.972 22.972 0 0 0-10.72 10.369l-172.863 338.77a23 23 0 0 0-1.242 17.994l91.543 263.784a23.003 23.003 0 0 0 21.272 15.45Z" opacity=".304"/><path stroke="url(#v)" stroke-width="4" d="m940.505 1165.45 276.145 20.57c6.26.47 12.44-1.64 17.1-5.84l279.47-251.577a23.012 23.012 0 0 0 7.27-13.092l58.22-329.473a23.016 23.016 0 0 0-8.18-21.877l-193.24-156.483a23 23 0 0 0-23.1-3.448l-310.17 125.45a22.995 22.995 0 0 0-11.29 9.825L844.754 865.176a22.998 22.998 0 0 0-2.16 17.938l77.54 265.836a23.012 23.012 0 0 0 20.371 16.5Z" opacity=".319"/><path stroke="url(#w)" stroke-width="4" d="m904.412 1152.98 272.338 35.3c6.23.81 12.53-.97 17.42-4.92l289.08-233.696a22.978 22.978 0 0 0 7.96-12.749l73.96-322.715a22.973 22.973 0 0 0-7.03-22.23L1374.6 426.704a23.013 23.013 0 0 0-22.85-4.666l-313.21 107.29a22.973 22.973 0 0 0-11.85 9.248L824.495 850.504a23.003 23.003 0 0 0-3.075 17.835l63.573 267.161a23.005 23.005 0 0 0 19.419 17.48Z" opacity=".333"/><path stroke="url(#x)" stroke-width="4" d="m869.493 1139.93 267.747 49.68c6.2 1.14 12.59-.3 17.69-3.99l297.6-215.502a23.005 23.005 0 0 0 8.64-12.369l89.16-315.22a22.998 22.998 0 0 0-5.87-22.524L1371 446.54a23.016 23.016 0 0 0-22.53-5.869l-315.22 89.161a23.02 23.02 0 0 0-12.37 8.642l-215.5 297.598a22.996 22.996 0 0 0-3.985 17.685l49.68 267.753a23.005 23.005 0 0 0 18.418 18.42Z" opacity=".348"/><path stroke="url(#y)" stroke-width="4" d="m835.768 1126.35 262.412 63.68c6.13 1.49 12.6.39 17.9-3.03l305.01-197.07a23.054 23.054 0 0 0 9.31-11.953l103.78-307.029a22.99 22.99 0 0 0-4.7-22.755l-163.03-181.068a23 23 0 0 0-22.14-7.049l-316.19 71.121a22.991 22.991 0 0 0-12.86 8.007L787.386 821.94a22.999 22.999 0 0 0-4.888 17.491l35.898 267.629a22.984 22.984 0 0 0 17.372 19.29Z" opacity=".362"/><path stroke="url(#z)" stroke-width="4" d="m803.253 1112.34 256.347 77.25a23.052 23.052 0 0 0 18.08-2.07l311.31-178.46c4.52-2.59 8.03-6.65 9.95-11.499l117.8-298.178a23 23 0 0 0-3.52-22.925L1360.93 488.4a22.994 22.994 0 0 0-21.69-8.206l-316.15 53.229a22.982 22.982 0 0 0-13.32 7.343L770.486 808.171a23.001 23.001 0 0 0-5.78 17.25l22.263 266.809a23.008 23.008 0 0 0 16.284 20.11Z" opacity=".377"/><path stroke="url(#A)" stroke-width="4" d="m771.959 1097.95 249.591 90.36a22.992 22.992 0 0 0 18.19-1.09l316.51-159.73c4.68-2.36 8.41-6.25 10.58-11.02l131.18-288.709a23.004 23.004 0 0 0-2.34-23.033l-141.25-194.424a23.01 23.01 0 0 0-21.19-9.336l-315.11 35.54a22.99 22.99 0 0 0-13.75 6.655l-249.719 251.66a23.005 23.005 0 0 0-6.661 16.964l8.811 265.303a22.993 22.993 0 0 0 15.158 20.86Z" opacity=".391"/><path stroke="url(#B)" stroke-width="4" d="m741.893 1083.26 242.173 102.98a23.025 23.025 0 0 0 18.254-.11l320.62-140.95c4.81-2.12 8.76-5.83 11.18-10.51l143.89-278.662a23 23 0 0 0-1.15-23.079l-129.98-200.155a23.002 23.002 0 0 0-20.62-10.435l-313.1 18.109a23.017 23.017 0 0 0-14.139 5.942L739.849 781.954a22.994 22.994 0 0 0-7.527 16.633l-4.425 263.123a22.995 22.995 0 0 0 13.996 21.55Z" opacity=".406"/><path stroke="url(#C)" stroke-width="4" d="m713.058 1068.34 234.126 115.07a23.004 23.004 0 0 0 18.269.88l323.627-122.19c4.95-1.87 9.1-5.39 11.76-9.96l155.92-268.085a22.992 22.992 0 0 0 .04-23.064l-118.5-205.245a23 23 0 0 0-19.99-11.5l-310.14.992a22.998 22.998 0 0 0-14.494 5.205L726.041 769.616a23.005 23.005 0 0 0-8.376 16.259l-17.411 260.295a22.992 22.992 0 0 0 12.804 22.17Z" opacity=".42"/><path stroke="url(#D)" stroke-width="4" d="m685.452 1053.27 225.484 126.6a22.997 22.997 0 0 0 18.228 1.86l325.566-103.5c5.06-1.61 9.41-4.92 12.31-9.38l167.25-257.019a23 23 0 0 0 1.22-22.986l-106.84-209.687a23.016 23.016 0 0 0-19.32-12.528l-306.24-15.763a22.99 22.99 0 0 0-14.818 4.448L713.191 757.863a23.002 23.002 0 0 0-9.206 15.843l-30.116 256.834a22.989 22.989 0 0 0 11.583 22.73Z" opacity=".435"/><path stroke="url(#E)" stroke-width="4" d="m659.07 1038.11 216.284 137.54a22.975 22.975 0 0 0 18.135 2.85l326.441-84.95c5.17-1.35 9.7-4.45 12.84-8.77l177.85-245.51a23.004 23.004 0 0 0 2.39-22.848l-95.05-213.475a22.993 22.993 0 0 0-18.57-13.516l-301.464-32.107a23.002 23.002 0 0 0-15.101 3.672L701.257 746.744a22.997 22.997 0 0 0-10.017 15.384l-42.51 252.762a22.992 22.992 0 0 0 10.34 23.22Z" opacity=".449"/><path stroke="url(#F)" stroke-width="4" d="m633.902 1022.94 206.565 147.87a23.012 23.012 0 0 0 17.988 3.83l326.285-66.6c5.25-1.08 9.97-3.95 13.33-8.13l187.72-233.602a22.98 22.98 0 0 0 3.54-22.65l-83.15-216.611a22.998 22.998 0 0 0-17.79-14.461l-295.811-47.989a22.996 22.996 0 0 0-15.343 2.878l-287.042 168.83a23 23 0 0 0-10.803 14.885l-54.564 248.107a23.005 23.005 0 0 0 9.075 23.643Z" opacity=".464"/><path stroke="url(#G)" stroke-width="4" d="m609.935 1007.82 196.366 157.55c5 4.02 11.447 5.76 17.788 4.81l325.101-48.5c5.33-.79 10.22-3.44 13.8-7.46l196.83-221.34a23.002 23.002 0 0 0 4.69-22.392l-71.19-219.091a22.984 22.984 0 0 0-16.95-15.36l-289.342-63.368a22.997 22.997 0 0 0-15.546 2.069L679.956 726.59a23.004 23.004 0 0 0-11.564 14.346L602.14 983.825a23.011 23.011 0 0 0 7.795 23.995Z" opacity=".478"/><path stroke="url(#H)" stroke-width="4" d="M587.153 992.813 772.878 1159.4a23.033 23.033 0 0 0 17.535 5.78l322.937-30.71c5.39-.52 10.43-2.92 14.23-6.78l205.19-208.762a22.995 22.995 0 0 0 5.81-22.075l-59.2-220.92a22.983 22.983 0 0 0-16.07-16.211l-282.078-78.199a22.997 22.997 0 0 0-15.707 1.246L670.496 717.641a22.995 22.995 0 0 0-12.298 13.769L580.65 968.542a23 23 0 0 0 6.503 24.271Z" opacity=".493"/><path stroke="url(#I)" stroke-width="4" d="m565.533 977.994 174.684 174.936c4.549 4.56 10.798 7 17.23 6.73l319.813-13.28a22.98 22.98 0 0 0 14.62-6.06l212.78-195.926a22.994 22.994 0 0 0 6.92-21.702l-47.21-222.098a23.005 23.005 0 0 0-15.15-17.012l-274.069-92.444a22.997 22.997 0 0 0-15.826.412L661.761 709.495a22.998 22.998 0 0 0-13.003 13.155L560.33 953.516a23 23 0 0 0 5.203 24.478Z" opacity=".507"/><path stroke="url(#J)" stroke-width="4" d="m545.052 963.423 163.286 182.597a23.012 23.012 0 0 0 16.873 7.67l315.749 3.73c5.47.06 10.79-1.82 14.99-5.33l219.59-182.866a22.992 22.992 0 0 0 8-21.272l-35.26-222.636a22.996 22.996 0 0 0-14.18-17.759L968.748 601.494a23 23 0 0 0-15.902-.432L653.7 702.186a22.999 22.999 0 0 0-13.678 12.505l-98.869 224.117a23.002 23.002 0 0 0 3.899 24.615Z" opacity=".522"/><path stroke="url(#K)" stroke-width="4" d="M525.683 949.161 677.255 1138.7a22.998 22.998 0 0 0 16.465 8.59l310.8 20.29c5.49.35 10.93-1.27 15.32-4.57l225.63-169.644a22.987 22.987 0 0 0 9.05-20.788l-23.39-222.536a22.981 22.981 0 0 0-13.17-18.452L961.988 612.566a23.005 23.005 0 0 0-15.935-1.283l-299.792 84.462a23 23 0 0 0-14.32 11.823L523.089 924.481a23 23 0 0 0 2.594 24.68Z" opacity=".536"/><path stroke="url(#L)" stroke-width="4" d="m507.394 935.268 139.585 195.762a23 23 0 0 0 16.006 9.49l304.994 36.33a23.02 23.02 0 0 0 15.613-3.79l230.898-156.29c6.67-4.52 10.5-12.2 10.07-20.248l-11.62-221.812a23 23 0 0 0-12.14-19.086L954.834 624.329a23.003 23.003 0 0 0-15.924-2.139l-299.525 68.012a22.995 22.995 0 0 0-14.927 11.107L506.101 910.593a22.998 22.998 0 0 0 1.293 24.675Z" opacity=".551"/><path stroke="url(#M)" stroke-width="4" d="m490.151 921.8 127.368 201.26a22.983 22.983 0 0 0 15.499 10.36l298.369 51.82a22.98 22.98 0 0 0 15.868-3l235.395-142.84a23.002 23.002 0 0 0 11.06-19.66V799.265c0-8.038-4.19-15.493-11.06-19.663L947.255 636.756a22.995 22.995 0 0 0-15.868-2.998l-298.369 51.821a23.003 23.003 0 0 0-15.499 10.362l-127.368 201.26a22.997 22.997 0 0 0 0 24.599Z" opacity=".565"/><path stroke="url(#N)" stroke-width="4" d="m473.916 908.811 114.966 206.019a23.025 23.025 0 0 0 14.944 11.21l290.967 66.72a23 23 0 0 0 16.085-2.19L1150 1061.2a22.996 22.996 0 0 0 12.03-19.02l11.45-218.532a23.004 23.004 0 0 0-9.97-20.178L939.217 649.818a23.002 23.002 0 0 0-15.767-3.858l-296.348 35.939a23.003 23.003 0 0 0-16.034 9.587l-135.87 192.871a23 23 0 0 0-1.282 24.454Z" opacity=".58"/><path stroke="url(#O)" stroke-width="4" d="m458.651 896.353 102.421 210.027a23.006 23.006 0 0 0 14.342 12.04l282.835 80.98a22.976 22.976 0 0 0 16.262-1.37l242.099-115.88a23.02 23.02 0 0 0 12.95-18.34l22.7-216.002a23.02 23.02 0 0 0-8.85-20.632l-212.716-163.69a23.004 23.004 0 0 0-15.622-4.716l-293.493 20.41a22.996 22.996 0 0 0-16.529 8.785L461.199 872.113a23.003 23.003 0 0 0-2.548 24.24Z" opacity=".594"/><path stroke="url(#P)" stroke-width="4" d="m444.313 884.474 89.775 213.306a23.038 23.038 0 0 0 13.695 12.82l274.018 94.58a23.009 23.009 0 0 0 16.398-.53l244.331-102.45a22.986 22.986 0 0 0 13.82-17.61l33.72-212.9a22.976 22.976 0 0 0-7.7-21.022L921.655 677.729a22.999 22.999 0 0 0-15.431-5.572l-289.835 5.277a22.997 22.997 0 0 0-16.985 7.96L448.107 860.516a23 23 0 0 0-3.794 23.958Z" opacity=".609"/><path stroke="url(#Q)" stroke-width="4" d="m430.856 873.221 77.075 215.839a23.007 23.007 0 0 0 13.004 13.57l264.562 107.48a22.998 22.998 0 0 0 16.495.31l245.828-89.09a23.007 23.007 0 0 0 14.66-16.85l44.48-209.235a22.983 22.983 0 0 0-6.55-21.348L912.077 692.513a22.996 22.996 0 0 0-15.196-6.421l-285.407-9.419a23.003 23.003 0 0 0-17.4 7.111L435.875 849.61a23.001 23.001 0 0 0-5.019 23.611Z" opacity=".623"/><path stroke="url(#R)" stroke-width="4" d="m418.236 862.635 64.36 217.625a22.982 22.982 0 0 0 12.271 14.29l254.518 119.65a22.985 22.985 0 0 0 16.548 1.17l246.607-75.87a23.002 23.002 0 0 0 15.46-16.03l54.94-205.045c2.05-7.647.02-15.81-5.37-21.609L901.936 707.804a23.003 23.003 0 0 0-14.916-7.262l-280.244-23.638a22.998 22.998 0 0 0-17.773 6.242L424.452 839.435a23 23 0 0 0-6.216 23.2Z" opacity=".638"/><path stroke="url(#S)" stroke-width="4" d="m406.4 852.756 51.675 218.684a22.976 22.976 0 0 0 11.497 14.97l243.935 131.07a23.028 23.028 0 0 0 16.56 2.03l246.69-62.81a22.973 22.973 0 0 0 16.2-15.18l65.093-200.336a22.999 22.999 0 0 0-4.18-21.804L891.207 723.569a23.005 23.005 0 0 0-14.59-8.093l-274.386-37.345a22.999 22.999 0 0 0-18.102 5.354L413.784 830.031a23 23 0 0 0-7.384 22.725Z" opacity=".652"/><path stroke="url(#T)" stroke-width="4" d="m395.3 843.62 39.059 219.02a23.015 23.015 0 0 0 10.687 15.61l232.863 141.7a22.971 22.971 0 0 0 16.53 2.9l246.088-49.94a22.978 22.978 0 0 0 16.898-14.3l74.905-195.131a22.997 22.997 0 0 0-2.99-21.933L879.874 739.772a23 23 0 0 0-14.22-8.911l-267.87-50.508a22.999 22.999 0 0 0-18.387 4.45L403.818 821.43a23.003 23.003 0 0 0-8.518 22.19Z" opacity=".667"/><path stroke="url(#U)" stroke-width="4" d="m384.883 835.26 26.554 218.64a23.03 23.03 0 0 0 9.839 16.21l221.357 151.54a22.96 22.96 0 0 0 16.457 3.76l244.823-37.3a22.993 22.993 0 0 0 17.548-13.38l84.359-189.461a23.011 23.011 0 0 0-1.8-21.995L867.918 756.377a22.999 22.999 0 0 0-13.806-9.715l-260.738-63.095a23.002 23.002 0 0 0-18.626 3.532l-180.25 126.565a23 23 0 0 0-9.615 21.596Z" opacity=".681"/><path stroke="url(#V)" stroke-width="4" d="m375.095 827.705 14.2 217.555a22.996 22.996 0 0 0 8.958 16.76L607.72 1222.6a22.992 22.992 0 0 0 16.341 4.62l242.921-24.93c7.767-.79 14.6-5.48 18.145-12.43l93.417-183.34a23.007 23.007 0 0 0-.603-21.995l-122.618-211.18a23.004 23.004 0 0 0-13.348-10.501l-253.031-75.077a23.002 23.002 0 0 0-18.821 2.602L385.768 806.758a23.001 23.001 0 0 0-10.673 20.947Z" opacity=".696"/><path stroke="url(#W)" stroke-width="4" d="m365.882 820.981 2.036 215.789a22.992 22.992 0 0 0 8.045 17.26l197.248 168.78a22.981 22.981 0 0 0 16.182 5.49l240.404-12.85c7.768-.42 14.8-4.73 18.69-11.47l102.074-176.79a23.002 23.002 0 0 0 .585-21.92L842.078 790.641a23.006 23.006 0 0 0-12.847-11.268l-244.794-86.43a23.002 23.002 0 0 0-18.969 1.662L377.57 800.738a23 23 0 0 0-11.688 20.243Z" opacity=".71"/><path stroke="url(#X)" stroke-width="4" d="m357.187 815.11-9.902 213.35a23.013 23.013 0 0 0 7.104 17.72l184.753 176.15a23.004 23.004 0 0 0 15.979 6.35l237.298-1.11a22.98 22.98 0 0 0 19.182-10.47l110.305-169.86a22.993 22.993 0 0 0 1.766-21.78l-95.503-217.234a23.004 23.004 0 0 0-12.304-12.013l-236.069-97.132a23.003 23.003 0 0 0-19.071.714l-190.882 95.826a23 23 0 0 0-12.656 19.489Z" opacity=".725"/><path stroke="url(#Y)" stroke-width="4" d="m348.954 810.111-21.576 210.269a23.026 23.026 0 0 0 6.136 18.12l172.035 182.68a23.03 23.03 0 0 0 15.733 7.21l233.632 10.28a23.036 23.036 0 0 0 19.618-9.46l118.094-162.55a22.998 22.998 0 0 0 2.933-21.58l-81.971-219.017a22.996 22.996 0 0 0-11.718-12.735L574.966 706.164a23.003 23.003 0 0 0-19.125-.237l-193.31 85.497a23 23 0 0 0-13.577 18.687Z" opacity=".739"/><path stroke="url(#Z)" stroke-width="4" d="m341.126 805.999-32.952 206.551a23.018 23.018 0 0 0 5.144 18.47l159.149 188.37a23.002 23.002 0 0 0 15.444 8.06l229.432 21.28a22.99 22.99 0 0 0 19.999-8.43l125.423-154.88a22.993 22.993 0 0 0 4.085-21.31l-68.521-219.998a23.003 23.003 0 0 0-11.093-13.431L569.894 714.174a23 23 0 0 0-19.133-1.192l-195.188 75.177a23.001 23.001 0 0 0-14.447 17.84Z" opacity=".754"/><path stroke="url(#aa)" stroke-width="4" d="m333.646 802.786-43.997 202.234a22.992 22.992 0 0 0 4.131 18.76l146.147 193.21a22.968 22.968 0 0 0 15.112 8.9l224.728 31.89a23.016 23.016 0 0 0 20.324-7.38l132.28-146.92a22.992 22.992 0 0 0 5.217-20.98l-55.203-220.163a22.996 22.996 0 0 0-10.428-14.1l-207.431-125.15a23 23 0 0 0-19.093-2.147l-196.525 64.895a23 23 0 0 0-15.262 16.951Z" opacity=".768"/><path stroke="url(#ab)" stroke-width="4" d="m326.455 800.479-54.677 197.328a22.988 22.988 0 0 0 3.099 19.003l133.082 197.22a22.975 22.975 0 0 0 14.738 9.73l219.551 42.06c7.488 1.43 15.2-.94 20.591-6.33l138.652-138.65a22.997 22.997 0 0 0 6.326-20.59l-42.061-219.553a23.001 23.001 0 0 0-9.724-14.737L558.814 732.878a23.002 23.002 0 0 0-19.007-3.1l-197.328 54.678a23 23 0 0 0-16.024 16.023Z" opacity=".783"/><path stroke="url(#ac)" stroke-width="4" d="m319.499 799.085-64.965 191.87a23.01 23.01 0 0 0 2.053 19.195l120.005 200.39a23.002 23.002 0 0 0 14.321 10.54l213.934 51.78a22.984 22.984 0 0 0 20.801-5.26l144.527-130.13a22.999 22.999 0 0 0 7.408-20.14l-29.142-218.173a23 23 0 0 0-8.983-15.344L552.709 743.519a22.999 22.999 0 0 0-18.874-4.048l-197.609 44.553a23.002 23.002 0 0 0-16.727 15.061Z" opacity=".797"/><path stroke="url(#ad)" stroke-width="4" d="m312.718 798.602-74.83 185.885a23.004 23.004 0 0 0 .993 19.323l106.969 202.74a22.99 22.99 0 0 0 13.862 11.34l207.906 61.05c7.25 2.12 15.083.56 20.955-4.2l149.896-121.38a23.009 23.009 0 0 0 8.459-19.63L730.44 917.677a23 23 0 0 0-8.206-15.916L546.162 754.978a23 23 0 0 0-18.693-4.989l-197.381 34.547a23 23 0 0 0-17.37 14.066Z" opacity=".812"/><path stroke="url(#ae)" stroke-width="4" d="m306.056 799.031-84.247 179.401a23 23 0 0 0-.074 19.393l94.021 204.285a22.987 22.987 0 0 0 13.362 12.11l201.503 69.83a22.977 22.977 0 0 0 21.05-3.12l154.753-112.44a22.99 22.99 0 0 0 9.476-19.05l-4.143-213.219a22.997 22.997 0 0 0-7.394-16.452L539.132 767.222a23 23 0 0 0-18.467-5.921l-196.654 24.685a23.001 23.001 0 0 0-17.955 13.045Z" opacity=".826"/><path stroke="url(#af)" stroke-width="4" d="m299.46 800.364-93.191 172.451a22.996 22.996 0 0 0-1.149 19.404l81.212 205.031a23.005 23.005 0 0 0 12.822 12.88l194.756 78.11a23.004 23.004 0 0 0 21.089-2.05l159.089-103.32a22.992 22.992 0 0 0 10.457-18.43l7.854-209.687a22.997 22.997 0 0 0-6.548-16.951L531.575 780.216a23 23 0 0 0-18.194-6.842l-195.446 14.992a22.997 22.997 0 0 0-18.475 11.998Z" opacity=".841"/><path stroke="url(#ag)" stroke-width="4" d="M292.873 802.592 191.234 967.657a22.997 22.997 0 0 0-2.227 19.357l68.589 205.006a23.001 23.001 0 0 0 12.241 13.62l187.7 85.89a23.004 23.004 0 0 0 21.071-.99l162.903-94.06a22.984 22.984 0 0 0 11.397-17.75l19.465-205.495a23.002 23.002 0 0 0-5.672-17.41L523.453 793.921a23.001 23.001 0 0 0-17.877-7.75l-193.77 5.49a23 23 0 0 0-18.933 10.931Z" opacity=".855"/><path stroke="url(#ah)" stroke-width="4" d="M286.241 805.705 176.67 962.98a22.998 22.998 0 0 0-3.304 19.25l56.196 204.23a22.98 22.98 0 0 0 11.622 14.33l180.369 93.16a23.005 23.005 0 0 0 20.996.06l166.19-84.68a23 23 0 0 0 12.295-17.02l30.653-200.677a23.003 23.003 0 0 0-4.766-17.827L514.727 808.298a23.001 23.001 0 0 0-17.516-8.642l-191.643-3.799a22.995 22.995 0 0 0-19.327 9.848Z" opacity=".87"/><path stroke="url(#ai)" stroke-width="4" d="M279.513 809.685 162.545 958.803a22.999 22.999 0 0 0-4.378 19.082l44.079 202.725a23.028 23.028 0 0 0 10.963 15.03l172.797 99.89a22.98 22.98 0 0 0 20.866 1.1l168.951-75.22a22.979 22.979 0 0 0 13.145-16.24l41.385-195.26a23 23 0 0 0-3.83-18.199l-121.16-168.408a23 23 0 0 0-17.11-9.515L299.17 800.933a23.002 23.002 0 0 0-19.657 8.752Z" opacity=".884"/><path stroke="url(#aj)" stroke-width="4" d="M272.637 814.516 148.823 955.142a22.998 22.998 0 0 0-5.445 18.854l32.279 200.524a23.013 23.013 0 0 0 10.268 15.69l165.016 106.11a22.991 22.991 0 0 0 20.682 2.12l171.185-65.71a22.986 22.986 0 0 0 13.947-15.42l51.628-189.27c1.72-6.31.677-13.04-2.868-18.53L495.33 838.894a23.003 23.003 0 0 0-16.663-10.368l-186.109-21.657a23 23 0 0 0-19.921 7.647Z" opacity=".899"/><path stroke="url(#ak)" stroke-width="4" d="M265.566 820.175 135.471 952.01a23 23 0 0 0-6.502 18.566l20.836 197.644a22.997 22.997 0 0 0 9.536 16.32l157.063 111.8a22.98 22.98 0 0 0 20.445 3.13l172.894-56.17a22.996 22.996 0 0 0 14.697-14.56l61.355-182.76a22.994 22.994 0 0 0-1.882-18.81l-99.314-172.145a22.997 22.997 0 0 0-16.173-11.198l-182.74-30.189a23 23 0 0 0-20.12 6.537Z" opacity=".913"/><path stroke="url(#al)" stroke-width="4" d="M258.252 826.64 122.453 949.42a23.003 23.003 0 0 0-7.546 18.219l9.788 194.121a22.989 22.989 0 0 0 8.768 16.93l148.969 116.95a22.98 22.98 0 0 0 20.155 4.12l174.084-46.64a23.013 23.013 0 0 0 15.393-13.65l70.537-175.76a22.999 22.999 0 0 0-.873-19.05l-88.584-173.011a23 23 0 0 0-15.644-12.005l-178.995-38.431a22.998 22.998 0 0 0-20.253 5.427Z" opacity=".928"/><path stroke="url(#am)" stroke-width="4" d="M250.648 833.883 109.733 947.381a23.004 23.004 0 0 0-8.573 17.812l-.831 189.997a22.984 22.984 0 0 0 7.967 17.5l140.768 121.57a22.964 22.964 0 0 0 19.815 5.09l174.759-37.14c7.038-1.5 12.97-6.2 16.032-12.71l79.151-168.32c2.86-6.08 2.917-13.1.157-19.23l-78.036-173.231a23 23 0 0 0-15.076-12.785L270.97 829.563a23.002 23.002 0 0 0-20.322 4.32Z" opacity=".942"/><path stroke="url(#an)" stroke-width="4" d="M242.713 841.876 97.276 945.902a22.998 22.998 0 0 0-9.579 17.346L76.711 1148.54a22.994 22.994 0 0 0 7.132 18.05l132.493 125.66a22.991 22.991 0 0 0 19.425 6.03l174.927-27.7a23.013 23.013 0 0 0 16.612-11.74l87.175-160.45a23.003 23.003 0 0 0 1.206-19.37l-67.708-172.834a22.993 22.993 0 0 0-14.47-13.537l-170.464-53.993a22.998 22.998 0 0 0-20.326 3.22Z" opacity=".957"/><path stroke="url(#ao)" stroke-width="4" d="m234.406 850.586-149.358 94.4a23 23 0 0 0-10.562 16.822L53.838 1141.87a22.985 22.985 0 0 0 6.266 18.55l124.174 129.24a23.007 23.007 0 0 0 18.989 6.94l174.594-18.35a23.003 23.003 0 0 0 17.132-10.74l94.591-152.23a22.993 22.993 0 0 0 2.27-19.45l-57.632-171.831a23.002 23.002 0 0 0-13.829-14.259l-165.721-61.284a23.002 23.002 0 0 0-20.266 2.13Z" opacity=".971"/><path stroke="url(#ap)" stroke-width="4" d="M225.687 859.981 73.01 944.638a23 23 0 0 0-11.518 16.241L31.706 1135.21a23.005 23.005 0 0 0 5.368 19.03l115.844 132.29a23.007 23.007 0 0 0 18.508 7.81l173.771-9.1a23.008 23.008 0 0 0 17.589-9.71l101.382-143.68a22.995 22.995 0 0 0 3.35-19.48l-47.846-170.262a22.998 22.998 0 0 0-13.153-14.948L245.83 858.926a23.001 23.001 0 0 0-20.143 1.055Z" opacity=".986"/><path stroke="url(#aq)" stroke-width="4" d="M216.521 870.026 61.13 944.858a23 23 0 0 0-12.444 15.604L10.308 1128.61a23.013 23.013 0 0 0 4.44 19.46l107.535 134.84a23.006 23.006 0 0 0 17.982 8.66h172.47c7 0 13.618-3.19 17.982-8.66l107.534-134.84a23.011 23.011 0 0 0 4.441-19.46l-38.378-168.148a23.002 23.002 0 0 0-12.444-15.604l-155.391-74.832a22.998 22.998 0 0 0-19.958 0Z"/><defs><linearGradient id="a" x1="1884.92" x2="1406.8" y1="1199.02" y2="125.163" gradientUnits="userSpaceOnUse"><stop stop-color="#5922E4"/><stop offset="1" stop-color="#E3D7FF"/></linearGradient><linearGradient id="b" x1="1834.72" x2="1417.18" y1="1211.71" y2="123.979" gradientUnits="userSpaceOnUse"><stop stop-color="#5922E4"/><stop offset="1" stop-color="#E3D7FF"/></linearGradient><linearGradient id="c" x1="1784.47" x2="1427.63" y1="1222.76" y2="124.543" gradientUnits="userSpaceOnUse"><stop stop-color="#5922E4"/><stop offset="1" stop-color="#E3D7FF"/></linearGradient><linearGradient id="d" x1="1734.24" x2="1438.06" y1="1232.21" y2="126.839" gradientUnits="userSpaceOnUse"><stop stop-color="#5922E4"/><stop offset="1" stop-color="#E3D7FF"/></linearGradient><linearGradient id="e" x1="1684.12" x2="1448.35" y1="1240.06" y2="130.851" gradientUnits="userSpaceOnUse"><stop stop-color="#5922E4"/><stop offset="1" stop-color="#E3D7FF"/></linearGradient><linearGradient id="f" x1="1634.21" x2="1458.44" y1="1246.33" y2="136.555" gradientUnits="userSpaceOnUse"><stop stop-color="#5922E4"/><stop offset="1" stop-color="#E3D7FF"/></linearGradient><linearGradient id="g" x1="1584.58" x2="1468.21" y1="1251.06" y2="143.922" gradientUnits="userSpaceOnUse"><stop stop-color="#5922E4"/><stop offset="1" stop-color="#E3D7FF"/></linearGradient><linearGradient id="h" x1="1535.32" x2="1477.6" y1="1254.27" y2="152.921" gradientUnits="userSpaceOnUse"><stop stop-color="#5922E4"/><stop offset="1" stop-color="#E3D7FF"/></linearGradient><linearGradient id="i" x1="1486.5" x2="1486.5" y1="1256" y2="163.513" gradientUnits="userSpaceOnUse"><stop stop-color="#5922E4"/><stop offset="1" stop-color="#E3D7FF"/></linearGradient><linearGradient id="j" x1="1438.21" x2="1494.84" y1="1256.29" y2="175.656" gradientUnits="userSpaceOnUse"><stop stop-color="#5922E4"/><stop offset="1" stop-color="#E3D7FF"/></linearGradient><linearGradient id="k" x1="1390.51" x2="1502.54" y1="1255.17" y2="189.305" gradientUnits="userSpaceOnUse"><stop stop-color="#5922E4"/><stop offset="1" stop-color="#E3D7FF"/></linearGradient><linearGradient id="l" x1="1343.48" x2="1509.52" y1="1252.7" y2="204.407" gradientUnits="userSpaceOnUse"><stop stop-color="#5922E4"/><stop offset="1" stop-color="#E3D7FF"/></linearGradient><linearGradient id="m" x1="1297.19" x2="1515.71" y1="1248.93" y2="220.911" gradientUnits="userSpaceOnUse"><stop stop-color="#5922E4"/><stop offset="1" stop-color="#E3D7FF"/></linearGradient><linearGradient id="n" x1="1251.7" x2="1521.03" y1="1243.91" y2="238.758" gradientUnits="userSpaceOnUse"><stop stop-color="#5922E4"/><stop offset="1" stop-color="#E3D7FF"/></linearGradient><linearGradient id="o" x1="1207.07" x2="1525.43" y1="1237.7" y2="257.886" gradientUnits="userSpaceOnUse"><stop stop-color="#5922E4"/><stop offset="1" stop-color="#E3D7FF"/></linearGradient><linearGradient id="p" x1="1163.36" x2="1528.85" y1="1230.36" y2="278.231" gradientUnits="userSpaceOnUse"><stop stop-color="#5922E4"/><stop offset="1" stop-color="#E3D7FF"/></linearGradient><linearGradient id="q" x1="1120.62" x2="1531.22" y1="1221.94" y2="299.727" gradientUnits="userSpaceOnUse"><stop stop-color="#5922E4"/><stop offset="1" stop-color="#E3D7FF"/></linearGradient><linearGradient id="r" x1="1078.9" x2="1532.49" y1="1212.52" y2="322.304" gradientUnits="userSpaceOnUse"><stop stop-color="#5922E4"/><stop offset="1" stop-color="#E3D7FF"/></linearGradient><linearGradient id="s" x1="1038.25" x2="1532.62" y1="1202.16" y2="345.89" gradientUnits="userSpaceOnUse"><stop stop-color="#5922E4"/><stop offset="1" stop-color="#E3D7FF"/></linearGradient><linearGradient id="t" x1="998.702" x2="1531.56" y1="1190.93" y2="370.41" gradientUnits="userSpaceOnUse"><stop stop-color="#5922E4"/><stop offset="1" stop-color="#E3D7FF"/></linearGradient><linearGradient id="u" x1="960.299" x2="1529.27" y1="1178.91" y2="395.788" gradientUnits="userSpaceOnUse"><stop stop-color="#5922E4"/><stop offset="1" stop-color="#E3D7FF"/></linearGradient><linearGradient id="v" x1="923.068" x2="1525.71" y1="1166.15" y2="421.949" gradientUnits="userSpaceOnUse"><stop stop-color="#5922E4"/><stop offset="1" stop-color="#E3D7FF"/></linearGradient><linearGradient id="w" x1="887.042" x2="1520.87" y1="1152.75" y2="448.811" gradientUnits="userSpaceOnUse"><stop stop-color="#5922E4"/><stop offset="1" stop-color="#E3D7FF"/></linearGradient><linearGradient id="x" x1="852.242" x2="1514.7" y1="1138.76" y2="476.297" gradientUnits="userSpaceOnUse"><stop stop-color="#5922E4"/><stop offset="1" stop-color="#E3D7FF"/></linearGradient><linearGradient id="y" x1="818.686" x2="1507.2" y1="1124.27" y2="504.326" gradientUnits="userSpaceOnUse"><stop stop-color="#5922E4"/><stop offset="1" stop-color="#E3D7FF"/></linearGradient><linearGradient id="z" x1="786.39" x2="1498.34" y1="1109.35" y2="532.817" gradientUnits="userSpaceOnUse"><stop stop-color="#5922E4"/><stop offset="1" stop-color="#E3D7FF"/></linearGradient><linearGradient id="A" x1="755.364" x2="1488.12" y1="1094.07" y2="561.689" gradientUnits="userSpaceOnUse"><stop stop-color="#5922E4"/><stop offset="1" stop-color="#E3D7FF"/></linearGradient><linearGradient id="B" x1="725.614" x2="1476.53" y1="1078.51" y2="590.863" gradientUnits="userSpaceOnUse"><stop stop-color="#5922E4"/><stop offset="1" stop-color="#E3D7FF"/></linearGradient><linearGradient id="C" x1="697.141" x2="1463.56" y1="1062.75" y2="620.257" gradientUnits="userSpaceOnUse"><stop stop-color="#5922E4"/><stop offset="1" stop-color="#E3D7FF"/></linearGradient><linearGradient id="D" x1="669.941" x2="1449.23" y1="1046.86" y2="649.792" gradientUnits="userSpaceOnUse"><stop stop-color="#5922E4"/><stop offset="1" stop-color="#E3D7FF"/></linearGradient><linearGradient id="E" x1="644.009" x2="1433.53" y1="1030.91" y2="679.389" gradientUnits="userSpaceOnUse"><stop stop-color="#5922E4"/><stop offset="1" stop-color="#E3D7FF"/></linearGradient><linearGradient id="F" x1="619.332" x2="1416.48" y1="1014.97" y2="708.972" gradientUnits="userSpaceOnUse"><stop stop-color="#5922E4"/><stop offset="1" stop-color="#E3D7FF"/></linearGradient><linearGradient id="G" x1="595.896" x2="1398.1" y1="999.116" y2="738.464" gradientUnits="userSpaceOnUse"><stop stop-color="#5922E4"/><stop offset="1" stop-color="#E3D7FF"/></linearGradient><linearGradient id="H" x1="573.681" x2="1378.41" y1="983.416" y2="767.791" gradientUnits="userSpaceOnUse"><stop stop-color="#5922E4"/><stop offset="1" stop-color="#E3D7FF"/></linearGradient><linearGradient id="I" x1="552.665" x2="1357.42" y1="967.937" y2="796.881" gradientUnits="userSpaceOnUse"><stop stop-color="#5922E4"/><stop offset="1" stop-color="#E3D7FF"/></linearGradient><linearGradient id="J" x1="532.82" x2="1335.18" y1="952.744" y2="825.663" gradientUnits="userSpaceOnUse"><stop stop-color="#5922E4"/><stop offset="1" stop-color="#E3D7FF"/></linearGradient><linearGradient id="K" x1="514.117" x2="1311.71" y1="937.901" y2="854.07" gradientUnits="userSpaceOnUse"><stop stop-color="#5922E4"/><stop offset="1" stop-color="#E3D7FF"/></linearGradient><linearGradient id="L" x1="496.523" x2="1287.05" y1="923.466" y2="882.037" gradientUnits="userSpaceOnUse"><stop stop-color="#5922E4"/><stop offset="1" stop-color="#E3D7FF"/></linearGradient><linearGradient id="M" x1="480" x2="1261.24" y1="909.5" y2="909.5" gradientUnits="userSpaceOnUse"><stop stop-color="#5922E4"/><stop offset="1" stop-color="#E3D7FF"/></linearGradient><linearGradient id="N" x1="464.509" x2="1234.31" y1="896.057" y2="936.401" gradientUnits="userSpaceOnUse"><stop stop-color="#5922E4"/><stop offset="1" stop-color="#E3D7FF"/></linearGradient><linearGradient id="O" x1="450.008" x2="1206.33" y1="883.19" y2="962.683" gradientUnits="userSpaceOnUse"><stop stop-color="#5922E4"/><stop offset="1" stop-color="#E3D7FF"/></linearGradient><linearGradient id="P" x1="436.45" x2="1177.33" y1="870.949" y2="988.293" gradientUnits="userSpaceOnUse"><stop stop-color="#5922E4"/><stop offset="1" stop-color="#E3D7FF"/></linearGradient><linearGradient id="Q" x1="423.79" x2="1147.36" y1="859.38" y2="1013.18" gradientUnits="userSpaceOnUse"><stop stop-color="#5922E4"/><stop offset="1" stop-color="#E3D7FF"/></linearGradient><linearGradient id="R" x1="411.978" x2="1116.49" y1="848.525" y2="1037.3" gradientUnits="userSpaceOnUse"><stop stop-color="#5922E4"/><stop offset="1" stop-color="#E3D7FF"/></linearGradient><linearGradient id="S" x1="400.959" x2="1084.76" y1="838.426" y2="1060.61" gradientUnits="userSpaceOnUse"><stop stop-color="#5922E4"/><stop offset="1" stop-color="#E3D7FF"/></linearGradient><linearGradient id="T" x1="390.683" x2="1052.23" y1="829.118" y2="1083.06" gradientUnits="userSpaceOnUse"><stop stop-color="#5922E4"/><stop offset="1" stop-color="#E3D7FF"/></linearGradient><linearGradient id="U" x1="381.092" x2="1018.96" y1="820.634" y2="1104.63" gradientUnits="userSpaceOnUse"><stop stop-color="#5922E4"/><stop offset="1" stop-color="#E3D7FF"/></linearGradient><linearGradient id="V" x1="372.131" x2="985.021" y1="813.002" y2="1125.29" gradientUnits="userSpaceOnUse"><stop stop-color="#5922E4"/><stop offset="1" stop-color="#E3D7FF"/></linearGradient><linearGradient id="W" x1="363.743" x2="950.465" y1="806.25" y2="1144.99" gradientUnits="userSpaceOnUse"><stop stop-color="#5922E4"/><stop offset="1" stop-color="#E3D7FF"/></linearGradient><linearGradient id="X" x1="355.868" x2="915.355" y1="800.399" y2="1163.73" gradientUnits="userSpaceOnUse"><stop stop-color="#5922E4"/><stop offset="1" stop-color="#E3D7FF"/></linearGradient><linearGradient id="Y" x1="348.447" x2="879.758" y1="795.466" y2="1181.49" gradientUnits="userSpaceOnUse"><stop stop-color="#5922E4"/><stop offset="1" stop-color="#E3D7FF"/></linearGradient><linearGradient id="Z" x1="341.419" x2="843.737" y1="791.467" y2="1198.24" gradientUnits="userSpaceOnUse"><stop stop-color="#5922E4"/><stop offset="1" stop-color="#E3D7FF"/></linearGradient><linearGradient id="aa" x1="334.726" x2="807.357" y1="788.412" y2="1213.97" gradientUnits="userSpaceOnUse"><stop stop-color="#5922E4"/><stop offset="1" stop-color="#E3D7FF"/></linearGradient><linearGradient id="ab" x1="328.307" x2="770.682" y1="786.307" y2="1228.68" gradientUnits="userSpaceOnUse"><stop stop-color="#5922E4"/><stop offset="1" stop-color="#E3D7FF"/></linearGradient><linearGradient id="ac" x1="322.103" x2="733.777" y1="785.158" y2="1242.37" gradientUnits="userSpaceOnUse"><stop stop-color="#5922E4"/><stop offset="1" stop-color="#E3D7FF"/></linearGradient><linearGradient id="ad" x1="316.053" x2="696.705" y1="784.962" y2="1255.03" gradientUnits="userSpaceOnUse"><stop stop-color="#5922E4"/><stop offset="1" stop-color="#E3D7FF"/></linearGradient><linearGradient id="ae" x1="310.099" x2="659.53" y1="785.717" y2="1266.67" gradientUnits="userSpaceOnUse"><stop stop-color="#5922E4"/><stop offset="1" stop-color="#E3D7FF"/></linearGradient><linearGradient id="af" x1="304.184" x2="622.315" y1="787.415" y2="1277.29" gradientUnits="userSpaceOnUse"><stop stop-color="#5922E4"/><stop offset="1" stop-color="#E3D7FF"/></linearGradient><linearGradient id="ag" x1="298.25" x2="585.119" y1="790.044" y2="1286.92" gradientUnits="userSpaceOnUse"><stop stop-color="#5922E4"/><stop offset="1" stop-color="#E3D7FF"/></linearGradient><linearGradient id="ah" x1="292.242" x2="548.003" y1="793.592" y2="1295.55" gradientUnits="userSpaceOnUse"><stop stop-color="#5922E4"/><stop offset="1" stop-color="#E3D7FF"/></linearGradient><linearGradient id="ai" x1="286.105" x2="511.025" y1="798.04" y2="1303.22" gradientUnits="userSpaceOnUse"><stop stop-color="#5922E4"/><stop offset="1" stop-color="#E3D7FF"/></linearGradient><linearGradient id="aj" x1="279.786" x2="474.241" y1="803.369" y2="1309.94" gradientUnits="userSpaceOnUse"><stop stop-color="#5922E4"/><stop offset="1" stop-color="#E3D7FF"/></linearGradient><linearGradient id="ak" x1="273.237" x2="437.708" y1="809.554" y2="1315.74" gradientUnits="userSpaceOnUse"><stop stop-color="#5922E4"/><stop offset="1" stop-color="#E3D7FF"/></linearGradient><linearGradient id="al" x1="266.407" x2="401.475" y1="816.57" y2="1320.65" gradientUnits="userSpaceOnUse"><stop stop-color="#5922E4"/><stop offset="1" stop-color="#E3D7FF"/></linearGradient><linearGradient id="am" x1="259.249" x2="365.594" y1="824.387" y2="1324.7" gradientUnits="userSpaceOnUse"><stop stop-color="#5922E4"/><stop offset="1" stop-color="#E3D7FF"/></linearGradient><linearGradient id="an" x1="251.721" x2="330.112" y1="832.974" y2="1327.92" gradientUnits="userSpaceOnUse"><stop stop-color="#5922E4"/><stop offset="1" stop-color="#E3D7FF"/></linearGradient><linearGradient id="ao" x1="243.779" x2="295.075" y1="842.296" y2="1330.35" gradientUnits="userSpaceOnUse"><stop stop-color="#5922E4"/><stop offset="1" stop-color="#E3D7FF"/></linearGradient><linearGradient id="ap" x1="235.384" x2="260.525" y1="852.318" y2="1332.02" gradientUnits="userSpaceOnUse"><stop stop-color="#5922E4"/><stop offset="1" stop-color="#E3D7FF"/></linearGradient><linearGradient id="aq" x1="226.5" x2="226.5" y1="863" y2="1332.99" gradientUnits="userSpaceOnUse"><stop stop-color="#5922E4"/><stop offset="1" stop-color="#E3D7FF"/></linearGradient></defs></svg>