<svg xmlns="http://www.w3.org/2000/svg" width="162" height="147" fill="none"><path fill="#F5F5F5" d="M81.17 146.623c44.637 0 80.822-19.892 80.822-44.431 0-24.539-36.185-44.431-80.823-44.431C36.532 57.76.346 77.653.346 102.192c0 24.539 36.186 44.431 80.823 44.431Z"/><path fill="#E0E0E0" d="m119.38 102.87 22.675-13.086a.43.43 0 0 0 .297-.411.428.428 0 0 0-.297-.411L130.06 82.03a1.57 1.57 0 0 0-1.426 0l-22.652 13.11a.437.437 0 0 0-.214.665c.053.074.128.13.214.16l11.962 6.905a1.584 1.584 0 0 0 1.436 0Zm-75.727-.426-13.3 7.68a1.571 1.571 0 0 1-1.43 0l-15.978-9.227a.44.44 0 0 1-.295-.413.434.434 0 0 1 .295-.413l13.3-7.68a1.59 1.59 0 0 1 1.427 0l15.981 9.234a.439.439 0 0 1 .285.409.435.435 0 0 1-.285.41ZM66.432 89.3 53.13 96.982a1.57 1.57 0 0 1-1.426 0L35.72 87.757a.436.436 0 0 1 0-.825l13.304-7.68a1.57 1.57 0 0 1 1.426 0l15.981 9.227a.433.433 0 0 1 0 .822Zm22.773-13.152-13.314 7.694a1.57 1.57 0 0 1-1.426 0l-15.981-9.227a.433.433 0 0 1 0-.823l13.3-7.68a1.578 1.578 0 0 1 1.43 0l15.991 9.214a.433.433 0 0 1 0 .822Zm22.722-13.109-13.3 7.68a1.577 1.577 0 0 1-1.43 0l-15.981-9.227a.433.433 0 0 1 0-.822l13.304-7.698a1.57 1.57 0 0 1 1.426 0l15.981 9.228a.43.43 0 0 1 .326.42.433.433 0 0 1-.326.419Zm-69.046 53.598 37.406 21.598a1.597 1.597 0 0 0 1.429 0l18.659-10.774a.435.435 0 0 0 0-.825l-37.409-21.595a1.565 1.565 0 0 0-1.426 0l-18.659 10.77a.44.44 0 0 0-.295.413.437.437 0 0 0 .295.413Zm55.753-16.233c-3.983-2.299-10.442-2.299-14.428 0-3.987 2.298-3.983 6.039 0 8.331 3.982 2.292 10.445 2.302 14.428 0 3.982-2.302 3.992-6.03 0-8.331Z"/><path fill="#E0E0E0" d="M113.585 107.329c-3.986-2.302-10.445-2.302-14.428 0-3.983 2.302-3.986 6.04 0 8.328 3.986 2.288 10.442 2.302 14.428 0 3.986-2.302 3.983-6.03 0-8.328Z"/><path fill="#5E5E5E" d="m148.189 88.54-2.396-1.393s-.826-5.221 0-9.73c1.151-6.342 5.536-8.436 7.093-7.768 1.557.667 1.886 2.563-1.04 6.177-1.735 2.127-3.587 6.804-3.657 12.713Z"/><path fill="#fff" d="M147.101 85.855h.021a.146.146 0 0 0 .096-.053.142.142 0 0 0 .031-.105c-.688-5.976 1.859-12.448 4.614-15.018a.144.144 0 0 0 .045-.1.143.143 0 0 0-.24-.108c-2.805 2.617-5.399 9.193-4.697 15.26a.14.14 0 0 0 .043.085.147.147 0 0 0 .087.039Z"/><path fill="#7C7C7C" d="M153.5 91.62c.312.187.99-.145 1.242-.306.432-.28.786-.668 1.026-1.124a2.81 2.81 0 0 0 .289-1.678 6.99 6.99 0 0 0-.191-.906l-.232-.879a2.15 2.15 0 0 1-.107-.882c.09-.594.627-1.007 1.12-1.342.494-.336 1.108-.903 1.121-1.621a2.538 2.538 0 0 0-.597-1.52c-.336-.443-.735-.835-1.034-1.302a1.76 1.76 0 0 1-.335-1.124c.037-.247.125-.483.258-.694.303-.437.569-.898.795-1.38a1.393 1.393 0 0 0-.208-1.493 1.642 1.642 0 0 0-1.228-.335c-.758.033-1.496.57-2.1.986-.604.416-1.074 1.007-1.765 1.239-.906.318-2.107.134-2.711 1.056-.52.799-.144 1.698-.091 2.547.084 1.373-1.208 1.883-1.838 2.872a1.798 1.798 0 0 0-.239 1.087 5.25 5.25 0 0 0 .42 1.856c.299.634.635 1.25 1.006 1.845.024.017 5.352 3.067 5.399 3.097Z"/><path fill="#fff" d="M150.326 89.881a.144.144 0 0 0 .101-.042.144.144 0 0 0 .04-.102c-.104-5.644 2.684-11.81 4.671-13.572a.145.145 0 0 0-.091-.243.145.145 0 0 0-.101.028c-2.013 1.802-4.868 8.07-4.764 13.794a.12.12 0 0 0 .012.053.138.138 0 0 0 .132.084Z"/><path fill="#fff" d="M151.326 83.224h.043a18.988 18.988 0 0 1 4.169-.57.138.138 0 0 0 .054-.03.133.133 0 0 0 .037-.05.14.14 0 0 0 .014-.06.14.14 0 0 0-.014-.06.134.134 0 0 0-.037-.049.147.147 0 0 0-.116-.033c-1.415.04-2.823.233-4.197.574a.145.145 0 0 0-.101.174.142.142 0 0 0 .148.104Z"/><path fill="#5721DF" d="M19.203 92.059s.463-4.993-1.175-9.284c-1.637-4.292-4.48-7.349-7.536-8.244-3.057-.896-6.17 1.442-3.251 4.103 2.919 2.661 8.412 5.899 9.6 13.817l2.362-.392Z"/><path fill="#000" d="M19.203 92.059s.463-4.993-1.175-9.284c-1.637-4.292-4.48-7.349-7.536-8.244-3.057-.896-6.17 1.442-3.251 4.103 2.919 2.661 8.412 5.899 9.6 13.817l2.362-.392Z" opacity=".2"/><path fill="#fff" d="M18.894 91.13a.168.168 0 0 1-.164-.155c-.96-9.82-9.614-14.763-9.7-14.82a.168.168 0 0 1 .164-.292c.09.05 8.895 5.086 9.868 15.082a.165.165 0 0 1-.151.181l-.017.003Z"/><path fill="#5721DF" d="M19.102 101.373c-.98.279-2.587.631-3.634.222-1.047-.41-1.983-1.188-2.164-2.684a6.112 6.112 0 0 0-.356-1.873 2.187 2.187 0 0 0-1.382-1.084c-.708-.214-1.466-.21-2.184-.382-.718-.171-1.457-.59-1.678-1.295a2.13 2.13 0 0 1 .181-1.493c.215-.47.513-.893.738-1.343.396-.812.265-1.583-.56-2.013-1.604-.818-4.214-2.271-3.1-3.69 1.114-1.42 3.784-.957 5.653.073a4.806 4.806 0 0 0 3.976.52c1.678-.443 2.457.06 3.282 2.013.362.86.856 1.034 1.473 1.584.671.6.56 2.014.564 2.9a87.44 87.44 0 0 1-.336 8.099c-.047.406-.161.161-.473.446Z"/><path fill="#fff" d="M19.93 97.988a16.048 16.048 0 0 0-2.65-4.725.16.16 0 0 0-.057-.077 19.797 19.797 0 0 0-1.386-1.537 13.999 13.999 0 0 1 .074-3.804.17.17 0 0 0-.13-.198.169.169 0 0 0-.199.134 13.547 13.547 0 0 0-.12 3.503A25.651 25.651 0 0 0 7.11 86.08a.168.168 0 0 0-.107.318c.073.024 5.66 1.96 9.613 6.584a10.428 10.428 0 0 0-6.409.167.168.168 0 1 0 .127.312 10.261 10.261 0 0 1 6.678 0 15.825 15.825 0 0 1 2.603 4.638.168.168 0 0 0 .215.1.163.163 0 0 0 .096-.084.161.161 0 0 0 .005-.127Z"/><path fill="#EBEBEB" d="m49.636 13.631-2.171 1.252c.01-.095.016-.19.016-.285v-.631c0-1.118-.785-1.57-1.751-1.007a3.356 3.356 0 0 0-1.047 1.007c-.158-1.406-1.261-1.93-2.6-1.155a5.791 5.791 0 0 0-2.624 4.544v.94c-.01.375.067.747.221 1.09l-1.812 1.04a2.147 2.147 0 0 0-.973 1.677c0 .621.436.873.973.56l11.744-6.784a2.154 2.154 0 0 0 .97-1.677c.037-.628-.41-.88-.946-.57ZM35.295 7.87l-1.198.477V5.692c0-2.087-1.678-2.59-3.476-1.543-1.812 1.043-3.275 3.583-3.275 5.674v.382a1.759 1.759 0 0 0-1.523.235 5.211 5.211 0 0 0-2.349 4.084v.174l-1.678.963a3.438 3.438 0 0 0-1.55 2.684c0 1.007.695 1.393 1.55.896l13.499-7.79a3.443 3.443 0 0 0 1.553-2.685c.014-.99-.697-1.393-1.553-.896Z"/><path fill="#5721DF" d="M100.818 101.9a5.994 5.994 0 0 0-2.201-2.033c-3.594-2.074-9.422-2.074-13.016 0a5.99 5.99 0 0 0-2.2 2.033h-.497v1.882c.067 1.309.96 2.604 2.684 3.601 3.594 2.077 9.422 2.077 13.015 0 1.732-1.007 2.631-2.295 2.685-3.601V101.9h-.47Z"/><path fill="#000" d="M100.818 101.9a5.994 5.994 0 0 0-2.201-2.033c-3.594-2.074-9.422-2.074-13.016 0a5.99 5.99 0 0 0-2.2 2.033h-.497v1.882c.067 1.309.96 2.604 2.684 3.601 3.594 2.077 9.422 2.077 13.015 0 1.732-1.007 2.631-2.295 2.685-3.601V101.9h-.47Z" opacity=".25"/><path fill="#000" d="M92.11 98.31c-2.348 0-4.713.52-6.509 1.557a5.99 5.99 0 0 0-2.2 2.033h-.497v1.882c.067 1.309.96 2.604 2.684 3.601 1.795 1.04 4.154 1.557 6.51 1.557l.013-10.63Z" opacity=".1"/><path fill="#000" d="M87.081 99.172c-.511.192-1.006.424-1.48.695a5.99 5.99 0 0 0-2.2 2.033h-.497v1.882c.067 1.309.96 2.604 2.684 3.601.474.271.969.503 1.48.694l.013-8.905Z" opacity=".1"/><path fill="#5721DF" d="M97.137 99.172c.511.192 1.006.424 1.48.695a5.994 5.994 0 0 1 2.201 2.033h.497v1.882c-.068 1.306-.967 2.604-2.685 3.601-.474.271-.968.503-1.48.694l-.013-8.905Z" opacity=".5"/><path fill="#5721DF" d="M98.617 98.145c-3.594-2.076-9.422-2.076-13.016 0-3.593 2.077-3.597 5.44 0 7.516 3.597 2.077 9.422 2.074 13.016 0 3.593-2.073 3.597-5.442 0-7.516Z"/><path fill="#000" d="M98.617 98.145c-3.594-2.076-9.422-2.076-13.016 0-3.593 2.077-3.597 5.44 0 7.516 3.597 2.077 9.422 2.074 13.016 0 3.593-2.073 3.597-5.442 0-7.516Z" opacity=".2"/><path fill="#5721DF" d="M96.349 99.518a10.402 10.402 0 0 0-8.48 0c-1.204.621-1.868 1.466-1.868 2.385 0 .92.67 1.765 1.869 2.383a10.376 10.376 0 0 0 8.479 0c1.204-.618 1.865-1.463 1.865-2.383 0-.919-.66-1.764-1.865-2.385Z"/><path fill="#000" d="M96.349 99.518a10.402 10.402 0 0 0-8.48 0c-1.204.621-1.868 1.466-1.868 2.385 0 .92.67 1.765 1.869 2.383a10.376 10.376 0 0 0 8.479 0c1.204-.618 1.865-1.463 1.865-2.383 0-.919-.66-1.764-1.865-2.385Z" opacity=".4"/><path fill="#5721DF" d="M98.419 98.491c-1.678-.97-3.92-1.503-6.311-1.503-2.393 0-4.628.533-6.305 1.503-1.61.93-2.497 2.141-2.497 3.412 0 1.272.886 2.48 2.497 3.409 1.677.97 3.915 1.504 6.305 1.504 2.388 0 4.633-.534 6.31-1.504 1.608-.929 2.497-2.14 2.497-3.409 0-1.268-.889-2.483-2.496-3.412Zm-2.07 5.795a10.376 10.376 0 0 1-8.48 0c-1.204-.618-1.868-1.463-1.868-2.383 0-.919.67-1.764 1.869-2.385a10.402 10.402 0 0 1 8.479 0c1.204.621 1.865 1.466 1.865 2.385 0 .92-.66 1.765-1.865 2.383Z"/><path fill="#000" d="M92.11 104.87c3.197 0 5.789-1.33 5.789-2.97 0-1.64-2.592-2.97-5.788-2.97-3.197 0-5.788 1.33-5.788 2.97 0 1.64 2.591 2.97 5.788 2.97Z" opacity=".2"/><path fill="#5721DF" d="M92.11 104.87c3.197 0 5.789-1.33 5.789-2.97 0-1.64-2.592-2.97-5.788-2.97-3.197 0-5.788 1.33-5.788 2.97 0 1.64 2.591 2.97 5.788 2.97Z"/><path fill="#000" d="M92.11 104.87c3.197 0 5.789-1.33 5.789-2.97 0-1.64-2.592-2.97-5.788-2.97-3.197 0-5.788 1.33-5.788 2.97 0 1.64 2.591 2.97 5.788 2.97Z" opacity=".6"/><path fill="#5721DF" d="M96.204 100.588c-2.261-1.16-5.929-1.16-8.19 0-.933.48-1.48 1.084-1.64 1.708.16.624.707 1.228 1.64 1.708 2.261 1.158 5.929 1.158 8.19 0 .933-.48 1.48-1.084 1.644-1.708-.164-.624-.71-1.228-1.644-1.708Z"/><path fill="#000" d="M96.204 100.588c-2.261-1.16-5.929-1.16-8.19 0-.933.48-1.48 1.084-1.64 1.708.16.624.707 1.228 1.64 1.708 2.261 1.158 5.929 1.158 8.19 0 .933-.48 1.48-1.084 1.644-1.708-.164-.624-.71-1.228-1.644-1.708Z" opacity=".5"/><path fill="#5721DF" d="M92.658 99.847v.849l-.289.305-.537.56v-.882l.826-.832Z"/><path fill="#000" d="M92.658 99.847v.849l-.289.305-.537.56v-.882l.826-.832Z" opacity=".3"/><path fill="#5721DF" d="M91.832 100.679v.5a4.925 4.925 0 0 1-.825.235.87.87 0 0 1-.352 0 .846.846 0 0 1-.168-.071c-.205-.121-.238-.302.15-.527a1.361 1.361 0 0 1 1.195-.137Z"/><path fill="#000" d="M91.832 100.679v.5a4.925 4.925 0 0 1-.825.235.87.87 0 0 1-.352 0 .846.846 0 0 1-.168-.071c-.205-.121-.238-.302.15-.527a1.361 1.361 0 0 1 1.195-.137Z" opacity=".45"/><path fill="#5721DF" d="M95.674 103.088v.735l-.93.533-.67-.396a3.506 3.506 0 0 1-2.661.121v-.735l.423-.419-.423.117a2.723 2.723 0 0 1-2.07-.235c-.416-.241-.611-.503-.611-.775v-.714l.077-.312-.255-.145v-.734l.688.395a1.068 1.068 0 0 0-.51.789c0 .265.205.52.61.755.903.523 1.8.335 2.618.087.762-.248 1.315-.54 1.758-.288.272.157.188.335-.117.526a1.51 1.51 0 0 1-1.309.078l-.88.869c.159.061.322.109.487.144a3.635 3.635 0 0 0 2.175-.262l.67.396.93-.53Z"/><path fill="#000" d="M88.719 101.313c0 .265.204.52.61.755.903.523 1.799.335 2.617.087.762-.248 1.316-.54 1.759-.288.271.157.188.335-.118.526a1.51 1.51 0 0 1-1.308.078l-.88.869c.158.061.321.109.487.144a3.635 3.635 0 0 0 2.174-.262l.671.396.93-.537v.735l-.93.534-.67-.396a3.506 3.506 0 0 1-2.662.12v-.734l.423-.42-.422.118a2.741 2.741 0 0 1-2.07-.235c-.417-.242-.611-.504-.611-.775v-.715l.077-.312Z" opacity=".35"/><path fill="#000" d="M88.534 100.129v.734l.255.145c.109-.192.258-.358.436-.487l-.691-.392Z" opacity=".45"/><path fill="#5721DF" d="M95.52 102.611a.909.909 0 0 1-.067.336l-.467-.268a.919.919 0 0 0 .527-.705l.007.637Z"/><path fill="#000" d="M95.52 102.611a.909.909 0 0 1-.067.336l-.467-.268a.919.919 0 0 0 .527-.705l.007.637Z" opacity=".3"/><path fill="#5721DF" d="m95.52 103.001-.534-.309a.903.903 0 0 0 .534-.815.495.495 0 0 0 0-.071c-.02-.251-.208-.5-.59-.721a2.44 2.44 0 0 0-1.239-.336h-.443a5.841 5.841 0 0 0-.6.124l-.279.084a9.316 9.316 0 0 0-.389.128l-.148.05a4.553 4.553 0 0 1-.825.235.87.87 0 0 1-.352 0 .79.79 0 0 1-.168-.071c-.205-.12-.238-.301.15-.526a1.35 1.35 0 0 1 1.195-.124l.826-.833a3.537 3.537 0 0 0-2.493.138l-.688-.396-.943.57.688.396a1.068 1.068 0 0 0-.51.789c0 .265.204.52.61.755.903.523 1.799.335 2.618.087.761-.248 1.315-.543 1.755-.288.275.157.19.335-.114.526a1.511 1.511 0 0 1-1.31.074l-.878.873a3.16 3.16 0 0 0 1.332.204 3.877 3.877 0 0 0 1.325-.335l.688.396.93-.534-.148-.07Z"/><path fill="#5721DF" d="M94.06 103.229v.731l.685.396v-.731l-.685-.396Z"/><path fill="#000" d="M94.06 103.229v.731l.685.396v-.731l-.685-.396Z" opacity=".45"/><path fill="#F5F5F5" d="m88.54 100.129.937-.54.688.395-.681-.285-.943.43Zm2.098.674a1.35 1.35 0 0 1 1.194-.124l.826-.832-.826.745a1.26 1.26 0 0 0-1.194.211Zm.762 2.543a3.158 3.158 0 0 0 1.332.205 2.947 2.947 0 0 1-1.178-.248l.741-.839-.895.882Zm2.66-.117.685.309.93-.447-.93.534-.685-.396Zm-8.187-4.624c2.436-1.48 6.234-1.627 6.234-1.627-2.389 0-4.627.533-6.304 1.503-1.61.93-2.497 2.141-2.497 3.412 0 .01.088-1.771 2.567-3.288Zm5.527 8.597c2.586.114 5.24-.4 7.217-1.541 2.057-1.187 2.939-2.798 2.64-4.362 0 0 .386 2.524-2.794 4.252-3.181 1.728-7.063 1.651-7.063 1.651Z"/><path fill="#fff" d="M86.004 101.877c0-.103.01-.205.027-.306 0-.033 0-.06.023-.09.024-.03.037-.155.064-.228.027-.074.034-.078.05-.118a2.94 2.94 0 0 1 .091-.191l.074-.124c.037-.057.074-.114.117-.171.044-.057.067-.088.104-.128a1.89 1.89 0 0 1 .138-.151l.138-.137.14-.125.188-.147.124-.084c.081-.057.168-.114.259-.168l-1.403-1.403-.335.195a6.088 6.088 0 0 0-1.745 1.443l1.946 1.946v-.013Zm7.009 3.281h-.338c-.188 0-.376.017-.567.017h-.06c-.24 0-.477 0-.712-.027l-.218-.017c-.249-.02-.494-.047-.735-.084a7.705 7.705 0 0 1-.728-.144l-.161-.04a7.123 7.123 0 0 1-.671-.195l2.09 2.091c.4.033.805.05 1.215.05.796.002 1.592-.059 2.379-.185l-1.474-1.473-.02.007Zm-4.294-3.845c0 .265.2.523.61.755.28.166.593.274.916.315l-1.422-1.429a.615.615 0 0 0-.104.359Zm12.196.587c0-1.268-.889-2.48-2.496-3.409a10.222 10.222 0 0 0-2.309-.96l4.775 4.765c.02-.131.03-.263.03-.396Zm-8.808-3.295h.604l.292.02.316.027.245.03c.117.017.235.03.335.05l.212.038.365.073h.054l-1.886-1.885h-.55a14.8 14.8 0 0 0-1.869.117l1.52 1.52.362.01Zm6 3.916a.855.855 0 0 1-.034.097 2.342 2.342 0 0 1-.117.248c0 .027-.034.054-.047.081a2.179 2.179 0 0 1-.151.221l-.05.068a2.55 2.55 0 0 1-.205.224l-.064.064a2.663 2.663 0 0 1-.268.235l-.057.047-.098.074 1.423 1.422a6.4 6.4 0 0 0 1.43-1.097l-1.742-1.738a.308.308 0 0 1-.02.054Zm-2.587-.644a.495.495 0 0 0 0-.071 1.007 1.007 0 0 0-.61-.718 2.42 2.42 0 0 0-1.007-.315l1.516 1.516a.864.864 0 0 0 .1-.412Zm-5.926-2.973L88.2 97.508c-.485.132-.959.298-1.42.496l1.38 1.38a7.908 7.908 0 0 1 1.435-.48Zm5.745 5.798a8.028 8.028 0 0 1-.601.171l-.171.044c-.191.043-.383.083-.577.117l-.134.024 1.426 1.426c.506-.11 1.004-.251 1.493-.423l-1.376-1.376-.06.017Zm-3.064-2.228-.503.5.574.577h.385a3.88 3.88 0 0 0 1.242-.295l-.721-.722a1.535 1.535 0 0 1-.977-.06Zm.363-.55-.749-.762-.043.017a4.925 4.925 0 0 1-.826.235.87.87 0 0 1-.352 0 .846.846 0 0 1-.168-.071c-.204-.121-.238-.302.151-.527.204-.122.434-.194.671-.208l-.775-.765c-.13.04-.258.09-.389.141l-.691-.392-.691.396 2.375 2.375a6.23 6.23 0 0 0 .785-.201c.262-.084.494-.171.702-.238Zm.664-4.893 2.087 2.087c.329.111.65.245.96.4 1.204.621 1.865 1.466 1.865 2.385v.058l1.936 1.939c.152-.185.285-.385.396-.597l-6.144-6.144c-.359-.057-.728-.1-1.1-.128Zm-7.499 8.285c.264.153.536.292.815.416l-3.248-3.248c.225 1.054 1.067 2.04 2.433 2.832Zm-2.493-3.5 4.305 4.305c.44.147.888.269 1.342.366l-5.496-5.5a2.828 2.828 0 0 0-.151.829Z" opacity=".3"/><path fill="#fff" d="M84.058 99.947a6.09 6.09 0 0 1 1.745-1.443l.335-.194-.295-.295-.255.14a6.521 6.521 0 0 0-1.829 1.504l.286.288h.013Zm10.428 6.684a14.922 14.922 0 0 1-3.593.134l.426.43a15.546 15.546 0 0 0 3.513-.218l-.335-.336-.01-.01Zm-8.126-4.395c-.178-.812.298-1.655 1.426-2.306l-.232-.231c-.094.054-.178.11-.258.168l-.124.084-.188.147-.141.124-.138.138a1.91 1.91 0 0 0-.137.151c-.037.04-.07.084-.104.127l-.118.172-.074.124a2.056 2.056 0 0 0-.09.191c-.017.04-.037.077-.05.117a5.497 5.497 0 0 0-.064.229c-.02.077-.017.057-.024.09a1.888 1.888 0 0 0-.026.309l.342.366Zm6.351 2.62a9.717 9.717 0 0 1-4.486-.758l.577.577c.218.074.443.138.671.195l.162.04c.234.057.476.107.728.144.241.037.486.064.734.084l.219.017c.234 0 .473.027.71.027h.061c.192 0 .38 0 .567-.017h.06l.273-.02-.276-.289Zm5.708-6.365c1.607.93 2.496 2.141 2.496 3.409 0 .135-.01.269-.03.403l.336.335c.389-1.594-.484-3.271-2.604-4.5a11.43 11.43 0 0 0-3.067-1.17l.557.56c.807.225 1.584.549 2.312.963Zm-6.311-1.507h.55l-.406-.392a15.509 15.509 0 0 0-2.373.158l.36.355c.62-.08 1.244-.12 1.868-.12Zm6.331 8.332.289.292c.521-.303 1-.674 1.422-1.104l-.282-.282a6.42 6.42 0 0 1-1.429 1.094Zm-.57-3.111a2.437 2.437 0 0 1-1.084 1.443l.228.228.1-.07.058-.047c.094-.072.184-.151.268-.235l.064-.064c.073-.07.14-.146.204-.224l.05-.068a2.18 2.18 0 0 0 .152-.221c0-.027.033-.054.047-.081a1.78 1.78 0 0 0 .15-.345c0-.02 0-.04.018-.061l-.255-.255Zm-6.111-3.58.31.306c.987-.008 1.971.125 2.922.396l-.443-.443h-.057l-.366-.074-.211-.037c-.114-.02-.232-.034-.336-.05l-.245-.03-.315-.027-.292-.02h-.605c-.127 0-.23-.024-.362-.02Zm3.524 7.859.335.335c.5-.115.992-.263 1.473-.443l-.312-.312c-.49.171-.99.311-1.496.42Zm-7.067-8.983-.335-.335c-.478.143-.947.315-1.403.517l.305.305c.466-.196.945-.359 1.433-.487Zm.198 2.111a7.89 7.89 0 0 1 1.463-.453l-.262-.265h-.02a7.577 7.577 0 0 0-1.419.476l.238.242Zm6.731 4.818a9.29 9.29 0 0 1-1.574.336l.286.285.134-.024c.194-.037.389-.074.577-.117l.171-.044c.205-.05.406-.107.6-.171l.058-.02-.252-.245Zm-1.842-7.399c.372.027.741.071 1.1.125l-.463-.46a14.08 14.08 0 0 0-1.063-.09l.426.425Zm7.536 6.56-.292-.292a3.59 3.59 0 0 1-.392.584l.288.285c.148-.181.28-.374.396-.577Zm-4.489-4.07a6.998 6.998 0 0 0-.953-.396l.563.56.249.115c.98.503 1.533 1.14 1.677 1.798l.336.336v-.044c-.007-.906-.671-1.751-1.872-2.369Zm-10.546 5.795c-1.366-.789-2.208-1.775-2.433-2.832l-.463-.46c.05 1.322.95 2.634 2.684 3.637a10.12 10.12 0 0 0 1.735.789l-.718-.718a8.404 8.404 0 0 1-.805-.416Zm1.812.805.6.601c.406.107.826.198 1.248.272l-.506-.507a12.471 12.471 0 0 1-1.342-.366Zm-4.155-5.134-.308-.308a3.012 3.012 0 0 0-.211.765l.369.372a2.86 2.86 0 0 1 .15-.829Z" opacity=".15"/><path fill="#5721DF" d="M100.187 99.243a5.93 5.93 0 0 0-2.201-2.034c-3.594-2.077-9.422-2.077-13.015 0a5.905 5.905 0 0 0-2.202 2.034h-.496v1.879c.067 1.308.96 2.603 2.684 3.603 3.594 2.074 9.422 2.074 13.016 0 1.728-1.006 2.63-2.295 2.684-3.603v-1.88h-.47Z"/><path fill="#000" d="M100.187 99.243a5.93 5.93 0 0 0-2.201-2.034c-3.594-2.077-9.422-2.077-13.015 0a5.905 5.905 0 0 0-2.202 2.034h-.496v1.879c.067 1.308.96 2.603 2.684 3.603 3.594 2.074 9.422 2.074 13.016 0 1.728-1.006 2.63-2.295 2.684-3.603v-1.88h-.47Z" opacity=".25"/><path fill="#000" d="M91.48 95.653c-2.349 0-4.698.516-6.51 1.556a5.905 5.905 0 0 0-2.2 2.034h-.497v1.879c.067 1.308.96 2.603 2.684 3.603 1.795 1.037 4.15 1.557 6.51 1.557l.013-10.63Z" opacity=".1"/><path fill="#000" d="M86.45 96.515a10.16 10.16 0 0 0-1.48.694 5.906 5.906 0 0 0-2.2 2.034h-.497v1.879c.067 1.308.96 2.603 2.684 3.603.474.271.969.503 1.48.695l.013-8.905Z" opacity=".1"/><path fill="#5721DF" d="M96.506 96.515c.511.191 1.006.423 1.48.694a5.932 5.932 0 0 1 2.201 2.034h.497v1.879c-.067 1.308-.97 2.603-2.685 3.603-.473.271-.968.503-1.48.695l-.013-8.905Z" opacity=".5"/><path fill="#5721DF" d="M97.986 95.485c-3.594-2.077-9.422-2.077-13.015 0-3.594 2.077-3.597 5.439 0 7.516s9.421 2.077 13.015 0c3.594-2.077 3.597-5.44 0-7.516Z"/><path fill="#000" d="M97.986 95.485c-3.594-2.077-9.422-2.077-13.015 0-3.594 2.077-3.597 5.439 0 7.516s9.421 2.077 13.015 0c3.594-2.077 3.597-5.44 0-7.516Z" opacity=".2"/><path fill="#5721DF" d="M95.718 96.86a10.372 10.372 0 0 0-8.48 0c-1.204.618-1.868 1.463-1.868 2.383 0 .919.671 1.765 1.869 2.382a10.376 10.376 0 0 0 8.479 0c1.201-.617 1.865-1.463 1.865-2.382 0-.92-.66-1.765-1.865-2.383Z"/><path fill="#000" d="M95.718 96.86a10.372 10.372 0 0 0-8.48 0c-1.204.618-1.868 1.463-1.868 2.383 0 .919.671 1.765 1.869 2.382a10.376 10.376 0 0 0 8.479 0c1.201-.617 1.865-1.463 1.865-2.382 0-.92-.66-1.765-1.865-2.383Z" opacity=".4"/><path fill="#5721DF" d="M97.788 95.834c-1.678-.97-3.922-1.507-6.311-1.507-2.39 0-4.627.537-6.308 1.507-1.608.93-2.493 2.137-2.493 3.409 0 1.271.885 2.483 2.493 3.412 1.677.966 3.919 1.503 6.308 1.503s4.63-.537 6.311-1.503c1.607-.929 2.493-2.141 2.493-3.412 0-1.272-.886-2.48-2.493-3.41Zm-2.07 5.791a10.376 10.376 0 0 1-8.48 0c-1.204-.617-1.868-1.463-1.868-2.382 0-.92.671-1.765 1.869-2.383a10.37 10.37 0 0 1 8.479 0c1.201.618 1.865 1.463 1.865 2.383 0 .919-.66 1.765-1.865 2.382Z"/><path fill="#000" d="M95.58 101.343c2.258-1.161 2.258-3.04 0-4.2-2.258-1.162-5.929-1.162-8.19 0-2.262 1.16-2.262 3.039 0 4.2 2.261 1.161 5.922 1.161 8.19 0Z" opacity=".2"/><path fill="#5721DF" d="M95.58 101.343c2.258-1.161 2.258-3.04 0-4.2-2.258-1.162-5.929-1.162-8.19 0-2.262 1.16-2.262 3.039 0 4.2 2.261 1.161 5.922 1.161 8.19 0Z"/><path fill="#000" d="M95.58 101.343c2.258-1.161 2.258-3.04 0-4.2-2.258-1.162-5.929-1.162-8.19 0-2.262 1.16-2.262 3.039 0 4.2 2.261 1.161 5.922 1.161 8.19 0Z" opacity=".6"/><path fill="#5721DF" d="M95.58 97.934c-2.261-1.157-5.929-1.157-8.19 0-.933.48-1.48 1.084-1.644 1.708.164.624.711 1.228 1.644 1.708 2.261 1.161 5.929 1.161 8.19 0 .933-.48 1.48-1.084 1.641-1.708-.168-.63-.715-1.235-1.64-1.708Z"/><path fill="#000" d="M95.58 97.934c-2.261-1.157-5.929-1.157-8.19 0-.933.48-1.48 1.084-1.644 1.708.164.624.711 1.228 1.644 1.708 2.261 1.161 5.929 1.161 8.19 0 .933-.48 1.48-1.084 1.641-1.708-.168-.63-.715-1.235-1.64-1.708Z" opacity=".5"/><path fill="#5721DF" d="M92.027 97.186v.849l-.292.305-.534.564v-.886l.826-.832Z"/><path fill="#000" d="M92.027 97.186v.849l-.292.305-.534.564v-.886l.826-.832Z" opacity=".3"/><path fill="#5721DF" d="M91.218 98.018v.503c-.267.102-.544.18-.825.232a.867.867 0 0 1-.352 0 .793.793 0 0 1-.168-.067c-.205-.125-.238-.306.15-.527a1.362 1.362 0 0 1 1.195-.141Z"/><path fill="#000" d="M91.218 98.018v.503c-.267.102-.544.18-.825.232a.867.867 0 0 1-.352 0 .793.793 0 0 1-.168-.067c-.205-.125-.238-.306.15-.527a1.362 1.362 0 0 1 1.195-.141Z" opacity=".45"/><path fill="#5721DF" d="M95.043 100.43v.732l-.93.537-.67-.399a3.492 3.492 0 0 1-2.66.12v-.731l.422-.42-.423.118a2.728 2.728 0 0 1-2.07-.238c-.416-.242-.61-.504-.61-.775v-.712l.076-.312-.255-.147v-.735l.688.399a1.06 1.06 0 0 0-.51.785c0 .262.205.52.61.755.903.52 1.8.336 2.618.084.762-.248 1.315-.54 1.755-.285.275.157.191.335-.114.527a1.517 1.517 0 0 1-1.309.073l-.879.873c.158.059.321.106.487.141a3.635 3.635 0 0 0 2.174-.262l.67.396.93-.524Z"/><path fill="#000" d="M88.088 98.652c0 .262.204.52.61.755.903.52 1.799.336 2.618.084.761-.248 1.315-.54 1.754-.285.276.157.192.335-.114.527a1.517 1.517 0 0 1-1.308.073l-.88.873c.159.059.322.106.487.141a3.635 3.635 0 0 0 2.175-.262l.67.396.93-.534v.732l-.93.537-.67-.4a3.488 3.488 0 0 1-2.661.121v-.731l.422-.42-.422.118a2.728 2.728 0 0 1-2.07-.238c-.417-.242-.611-.504-.611-.775v-.712l.077-.312Z" opacity=".35"/><path fill="#000" d="M87.91 97.468v.734l.255.148c.107-.193.256-.359.436-.486l-.691-.396Z" opacity=".45"/><path fill="#5721DF" d="M94.889 99.947a.903.903 0 0 1-.067.336l-.466-.265a.918.918 0 0 0 .526-.708c.004.218.007.637.007.637Z"/><path fill="#000" d="M94.889 99.947a.903.903 0 0 1-.067.336l-.466-.265a.918.918 0 0 0 .526-.708c.004.218.007.637.007.637Z" opacity=".3"/><path fill="#5721DF" d="m94.889 100.34-.533-.309a.9.9 0 0 0 .533-.812.505.505 0 0 0 0-.074c-.023-.251-.208-.496-.594-.718a2.43 2.43 0 0 0-1.235-.335h-.227a.921.921 0 0 0-.095 0h-.04a.505.505 0 0 0-.074 0c-.202.029-.403.07-.6.124l-.282.08-.386.128-.148.05a4.382 4.382 0 0 1-.825.235.811.811 0 0 1-.352 0 1.034 1.034 0 0 1-.168-.067c-.205-.12-.239-.302.15-.527a1.363 1.363 0 0 1 1.195-.127l.826-.832a3.574 3.574 0 0 0-2.493.137l-.695-.366-.936.54.688.397a1.06 1.06 0 0 0-.51.788c0 .265.201.52.61.755.903.52 1.799.336 2.618.084.761-.248 1.315-.54 1.754-.289.276.162.192.353-.114.527a1.507 1.507 0 0 1-1.308.077l-.88.873c.158.059.32.106.484.141.279.057.564.078.849.063a3.877 3.877 0 0 0 1.325-.335l.688.399.93-.537-.155-.07Z"/><path fill="#5721DF" d="M93.426 100.568v.735l.688.396v-.735l-.688-.396Z"/><path fill="#000" d="M93.426 100.568v.735l.688.396v-.735l-.688-.396Z" opacity=".45"/><path fill="#F5F5F5" d="m87.91 97.471.936-.544.688.396-.681-.285-.943.433Zm2.097.674a1.361 1.361 0 0 1 1.194-.127l.826-.832-.809.748a1.25 1.25 0 0 0-1.211.212Zm.762 2.544c.157.059.319.106.483.141.279.057.564.078.849.064a3.025 3.025 0 0 1-1.195-.239l.742-.839-.88.873Zm2.657-.121.688.309.93-.447-.93.534-.688-.396Zm-8.186-4.614c2.438-1.48 6.237-1.627 6.237-1.627-2.39 0-4.627.537-6.308 1.507-1.608.93-2.493 2.137-2.493 3.409 0 0 .087-1.782 2.563-3.288Zm5.529 8.587c2.587.114 5.24-.4 7.217-1.54 2.057-1.188 2.939-2.799 2.641-4.362 0 0 .386 2.523-2.795 4.251-3.181 1.728-7.063 1.651-7.063 1.651Z"/><path fill="#fff" d="M85.373 99.22c0-.104.01-.207.027-.31 0-.03 0-.06.024-.09a1.308 1.308 0 0 1 .113-.342c.027-.067.058-.132.091-.195l.074-.12a1.97 1.97 0 0 1 .118-.175l.104-.128c.043-.05.087-.1.137-.15a4.75 4.75 0 0 1 .279-.258c.047-.041.12-.102.188-.149l.124-.087c.08-.057.167-.114.255-.168l-1.393-1.409c-.12.064-.235.128-.335.195a6.082 6.082 0 0 0-1.745 1.44l1.946 1.945h-.007Zm7.007 3.277h-.964c-.239 0-.477 0-.712-.026l-.218-.017a14.367 14.367 0 0 1-.735-.087 12.087 12.087 0 0 1-.731-.145l-.158-.04a8.138 8.138 0 0 1-.671-.198l2.09 2.09a15.16 15.16 0 0 0 3.594-.134l-1.473-1.476-.024.033Zm-4.292-3.841c0 .261.201.52.61.754.281.166.593.272.916.313l-1.416-1.416a.61.61 0 0 0-.11.349Zm12.19.587c0-1.272-.89-2.48-2.497-3.41a10.448 10.448 0 0 0-2.308-.962l4.774 4.771c.021-.132.031-.266.031-.4Zm-8.801-3.289h.604l.291.024.316.023.245.034.335.047.212.04c.124.024.245.044.362.07h.057l-1.886-1.885h-.55c-.626 0-1.25.038-1.872.114l1.52 1.52.366.013Zm5.999 3.909c0 .03-.023.064-.034.098a2.387 2.387 0 0 1-.315.547l-.05.067a3.01 3.01 0 0 1-.205.228l-.064.064c-.084.08-.17.157-.268.235l-.057.043-.098.074 1.423 1.426a6.628 6.628 0 0 0 1.43-1.097l-1.742-1.742-.02.057Zm-2.587-.643a.505.505 0 0 0 0-.075c-.023-.251-.208-.496-.594-.718a2.413 2.413 0 0 0-1.007-.312l1.517 1.514a.851.851 0 0 0 .084-.41Zm-5.926-2.964h.017l-1.396-1.399a10.65 10.65 0 0 0-1.419.497l1.38 1.382a8.198 8.198 0 0 1 1.418-.48Zm5.745 5.785a10.5 10.5 0 0 1-.6.175l-.175.04c-.188.043-.38.084-.577.117l-.131.027 1.426 1.423a11.721 11.721 0 0 0 1.493-.42l-1.376-1.379-.06.017Zm-3.064-2.225-.503.5.574.574c.128.009.257.009.386 0a3.879 3.879 0 0 0 1.241-.292l-.721-.724a1.537 1.537 0 0 1-.977-.058Zm.363-.54-.762-.761-.044.016a4.812 4.812 0 0 1-.825.232.87.87 0 0 1-.352 0 .798.798 0 0 1-.168-.067c-.205-.124-.238-.306.151-.527a1.43 1.43 0 0 1 .671-.208l-.751-.752c-.133.04-.263.087-.39.141l-.691-.422-.691.399 2.375 2.372a5.88 5.88 0 0 0 .786-.201c.238-.078.483-.168.69-.222Zm.664-4.902 2.087 2.087c.33.11.65.244.96.4 1.201.617 1.865 1.462 1.865 2.382v.033l1.936 1.936c.15-.18.28-.376.39-.584l-6.14-6.14a16.15 16.15 0 0 0-1.098-.114Zm-7.492 8.281c.264.152.536.29.815.413l-3.248-3.245c.215 1.054 1.06 2.044 2.433 2.832Zm-2.5-3.5 4.305 4.305c.44.15.887.272 1.342.366L82.83 98.33a2.798 2.798 0 0 0-.151.825Z" opacity=".3"/><path fill="#fff" d="M83.427 97.263a6.084 6.084 0 0 1 1.745-1.44c.114-.066.228-.13.335-.194l-.295-.295c-.087.043-.17.09-.255.14a6.528 6.528 0 0 0-1.832 1.504l.289.285h.013Zm10.429 6.711a15.281 15.281 0 0 1-3.594.134l.426.429c1.177.056 2.357-.02 3.516-.228l-.335-.335h-.013Zm-8.127-4.399c-.178-.812.299-1.654 1.426-2.305l-.231-.232h-.017c-.09.054-.175.11-.255.168l-.124.087a2.796 2.796 0 0 0-.188.148c-.06.05-.098.08-.141.124a1.76 1.76 0 0 0-.138.134c-.05.05-.094.1-.137.151l-.104.128a1.986 1.986 0 0 0-.118.174l-.074.121a2.045 2.045 0 0 0-.09.195 1.158 1.158 0 0 0-.05.114c-.026.074-.048.15-.064.228 0 .03-.017.06-.024.09a1.89 1.89 0 0 0-.027.31l.356.365Zm6.351 2.62a9.69 9.69 0 0 1-4.486-.755l.578.578c.218.073.443.137.67.198l.158.04c.239.053.48.104.732.144.242.037.486.064.735.087l.218.017c.235 0 .473.024.711.027h.688l.272-.02-.275-.316Zm5.708-6.361c1.607.93 2.496 2.137 2.496 3.409 0 .133-.01.267-.03.399l.336.336c.389-1.598-.483-3.275-2.604-4.5a11.325 11.325 0 0 0-3.067-1.171l.557.557c.807.23 1.583.555 2.312.97Zm-6.311-1.507h.55l-.406-.406c-.792-.01-1.584.042-2.369.154l.356.356c.62-.072 1.244-.107 1.869-.104Zm6.331 8.305.289.288a6.466 6.466 0 0 0 1.422-1.104l-.281-.282a6.63 6.63 0 0 1-1.43 1.098Zm-.574-3.087a2.423 2.423 0 0 1-1.08 1.446l.228.225.1-.071.058-.043c.097-.078.184-.155.268-.235l.064-.064a2.57 2.57 0 0 0 .205-.228l.05-.067a2.37 2.37 0 0 0 .198-.302c.044-.08.083-.161.117-.245 0-.034.024-.067.034-.098.01-.03 0-.04.017-.06l-.259-.258Zm-6.106-3.58.308.308a10.27 10.27 0 0 1 2.923.396l-.456-.443-.06-.016c-.118-.027-.239-.047-.363-.071l-.212-.04-.335-.047-.245-.034-.316-.023-.291-.024h-.605c-.127 0-.23-.01-.348-.007Zm3.522 7.858.336.335c.5-.118.992-.267 1.473-.446l-.312-.309c-.489.173-.989.313-1.496.42Zm-7.065-8.983-.336-.335c-.479.14-.947.312-1.403.517l.306.302a10.71 10.71 0 0 1 1.433-.483Zm.197 2.118c.472-.2.962-.353 1.463-.457l-.261-.261h-.02a7.828 7.828 0 0 0-1.42.476l.238.242Zm6.731 4.811a9.393 9.393 0 0 1-1.573.336l.285.282.13-.024c.199-.033.39-.074.578-.117l.174-.041c.205-.053.406-.11.6-.174l.058-.017-.252-.245Zm-1.842-7.395c.373.024.742.067 1.1.124l-.462-.463c-.353-.04-.708-.07-1.064-.087l.426.426Zm7.536 6.56-.295-.295a3.35 3.35 0 0 1-.39.583l.29.289c.146-.182.278-.375.395-.577Zm-4.489-4.074a7.428 7.428 0 0 0-.953-.395l.56.56.252.117c.976.504 1.53 1.141 1.66 1.795l.336.336v-.027c.02-.92-.65-1.768-1.855-2.386Zm-10.539 5.795c-1.366-.788-2.212-1.778-2.433-2.832l-.463-.463c.05 1.322.95 2.634 2.684 3.641.553.315 1.134.579 1.735.788l-.718-.721a8.38 8.38 0 0 1-.805-.413Zm1.805.805.6.601c.406.111.826.198 1.249.275l-.507-.51a11.118 11.118 0 0 1-1.342-.366Zm-4.154-5.13-.309-.312a3.103 3.103 0 0 0-.211.765l.369.372c.008-.28.06-.559.151-.825Z" opacity=".15"/><path fill="#5721DF" d="M101.502 96.67a5.892 5.892 0 0 0-2.197-2.034c-3.597-2.077-9.426-2.077-13.02 0a5.896 5.896 0 0 0-2.197 2.033h-.5v1.88c.067 1.308.963 2.603 2.684 3.603 3.594 2.073 9.422 2.073 13.02 0 1.727-1.007 2.63-2.295 2.684-3.604V96.67h-.474Z"/><path fill="#000" d="M101.502 96.67a5.892 5.892 0 0 0-2.197-2.034c-3.597-2.077-9.426-2.077-13.02 0a5.896 5.896 0 0 0-2.197 2.033h-.5v1.88c.067 1.308.963 2.603 2.684 3.603 3.594 2.073 9.422 2.073 13.02 0 1.727-1.007 2.63-2.295 2.684-3.604V96.67h-.474Z" opacity=".25"/><path fill="#000" d="M92.795 93.079c-2.348 0-4.697.517-6.51 1.557a5.896 5.896 0 0 0-2.197 2.033h-.5v1.88c.067 1.308.963 2.603 2.684 3.603 1.799 1.037 4.154 1.557 6.51 1.557l.013-10.63Z" opacity=".1"/><path fill="#000" d="M87.769 93.941a10.01 10.01 0 0 0-1.483.695 5.896 5.896 0 0 0-2.198 2.033h-.5v1.88c.067 1.308.963 2.603 2.684 3.603.474.272.97.503 1.484.691l.013-8.902Z" opacity=".1"/><path fill="#5721DF" d="M97.822 93.941c.512.192 1.008.424 1.483.695a5.892 5.892 0 0 1 2.197 2.033h.497v1.88c-.067 1.308-.966 2.603-2.684 3.603a9.89 9.89 0 0 1-1.483.691l-.01-8.902Z" opacity=".5"/><path fill="#5721DF" d="M99.305 92.901c-3.597-2.077-9.426-2.077-13.02 0-3.593 2.077-3.593 5.44 0 7.516 3.594 2.077 9.423 2.077 13.02 0 3.597-2.077 3.593-5.429 0-7.516Z"/><path fill="#000" d="M99.305 92.901c-3.597-2.077-9.426-2.077-13.02 0-3.593 2.077-3.593 5.44 0 7.516 3.594 2.077 9.423 2.077 13.02 0 3.597-2.077 3.593-5.429 0-7.516Z" opacity=".2"/><path fill="#5721DF" d="M97.033 94.287a10.364 10.364 0 0 0-8.475 0c-1.205.617-1.87 1.463-1.87 2.382 0 .92.672 1.765 1.87 2.382a10.365 10.365 0 0 0 8.475 0c1.205-.617 1.869-1.463 1.869-2.382 0-.92-.664-1.755-1.869-2.382Z"/><path fill="#000" d="M97.033 94.287a10.364 10.364 0 0 0-8.475 0c-1.205.617-1.87 1.463-1.87 2.382 0 .92.672 1.765 1.87 2.382a10.365 10.365 0 0 0 8.475 0c1.205-.617 1.869-1.463 1.869-2.382 0-.92-.664-1.755-1.869-2.382Z" opacity=".4"/><path fill="#5721DF" d="M99.103 93.26c-1.677-.97-3.919-1.506-6.308-1.506s-4.63.536-6.308 1.506c-1.61.93-2.496 2.137-2.496 3.41 0 1.27.886 2.482 2.496 3.412 1.678.966 3.92 1.503 6.308 1.503 2.39 0 4.63-.537 6.308-1.503 1.608-.93 2.497-2.141 2.497-3.413 0-1.272-.889-2.48-2.497-3.409Zm-2.07 5.791a10.364 10.364 0 0 1-8.475 0c-1.205-.617-1.87-1.463-1.87-2.382 0-.92.672-1.765 1.87-2.382a10.363 10.363 0 0 1 8.475 0c1.205.617 1.869 1.463 1.869 2.382 0 .92-.664 1.765-1.869 2.382Z"/><path fill="#000" d="M92.795 99.639c3.197 0 5.788-1.33 5.788-2.97 0-1.64-2.591-2.97-5.788-2.97-3.196 0-5.788 1.33-5.788 2.97 0 1.64 2.592 2.97 5.788 2.97Z" opacity=".2"/><path fill="#5721DF" d="M92.795 99.639c3.197 0 5.788-1.33 5.788-2.97 0-1.64-2.591-2.97-5.788-2.97-3.196 0-5.788 1.33-5.788 2.97 0 1.64 2.592 2.97 5.788 2.97Z"/><path fill="#000" d="M92.795 99.639c3.197 0 5.788-1.33 5.788-2.97 0-1.64-2.591-2.97-5.788-2.97-3.196 0-5.788 1.33-5.788 2.97 0 1.64 2.592 2.97 5.788 2.97Z" opacity=".6"/><path fill="#5721DF" d="M96.889 95.354c-2.262-1.158-5.926-1.158-8.187 0-.936.48-1.483 1.084-1.644 1.708.16.624.708 1.228 1.644 1.708 2.261 1.16 5.925 1.16 8.187 0 .936-.48 1.483-1.084 1.644-1.708-.161-.624-.708-1.228-1.644-1.708Z"/><path fill="#000" d="M96.889 95.354c-2.262-1.158-5.926-1.158-8.187 0-.936.48-1.483 1.084-1.644 1.708.16.624.708 1.228 1.644 1.708 2.261 1.16 5.925 1.16 8.187 0 .936-.48 1.483-1.084 1.644-1.708-.161-.624-.708-1.228-1.644-1.708Z" opacity=".5"/><path fill="#5721DF" d="M93.342 94.612v.85l-.288.305-.537.563v-.886l.825-.832Z"/><path fill="#000" d="M93.342 94.612v.85l-.288.305-.537.563v-.886l.825-.832Z" opacity=".3"/><path fill="#5721DF" d="M92.517 95.444v.504a4.876 4.876 0 0 1-.822.231.888.888 0 0 1-.356 0 .881.881 0 0 1-.168-.067c-.204-.124-.235-.305.155-.527a1.342 1.342 0 0 1 1.19-.14Z"/><path fill="#000" d="M92.517 95.444v.504a4.876 4.876 0 0 1-.822.231.888.888 0 0 1-.356 0 .881.881 0 0 1-.168-.067c-.204-.124-.235-.305.155-.527a1.342 1.342 0 0 1 1.19-.14Z" opacity=".45"/><path fill="#5721DF" d="M96.359 97.857v.748l-.926.537-.688-.4a3.48 3.48 0 0 1-2.658.121v-.73l.42-.42-.42.117a2.731 2.731 0 0 1-2.073-.238c-.416-.242-.608-.503-.608-.775v-.728l.074-.312-.251-.148v-.735l.67.4a1.057 1.057 0 0 0-.506.785c0 .261.201.52.607.755.903.52 1.799.335 2.618.083.761-.248 1.318-.54 1.758-.285.271.158.188.336-.118.527a1.516 1.516 0 0 1-1.308.074l-.876.872c.157.068.32.123.486.165a3.63 3.63 0 0 0 2.175-.262l.688.396.936-.547Z"/><path fill="#000" d="M89.406 96.079c0 .261.202.52.608.755.902.52 1.798.335 2.617.083.761-.248 1.319-.54 1.758-.285.272.158.188.336-.117.527a1.516 1.516 0 0 1-1.309.074l-.876.872c.154.067.312.122.473.165a3.63 3.63 0 0 0 2.175-.262l.688.396.926-.534v.735l-.927.537-.687-.4a3.48 3.48 0 0 1-2.658.121v-.73l.42-.42-.42.117a2.732 2.732 0 0 1-2.073-.238c-.416-.242-.608-.503-.608-.775v-.728l.074-.312" opacity=".35"/><path fill="#000" d="M89.229 94.894v.735l.251.148a1.46 1.46 0 0 1 .433-.487l-.684-.396Z" opacity=".45"/><path fill="#5721DF" d="M96.208 97.377a.84.84 0 0 1-.07.336l-.467-.269a.909.909 0 0 0 .53-.704l.007.637Z"/><path fill="#000" d="M96.208 97.377a.84.84 0 0 1-.07.336l-.467-.269a.909.909 0 0 0 .53-.704l.007.637Z" opacity=".3"/><path fill="#5721DF" d="m96.204 97.766-.53-.308a.902.902 0 0 0 .53-.812v-.074a1.007 1.007 0 0 0-.594-.718c-.374-.22-.8-.336-1.234-.336h-.366a.535.535 0 0 0-.074 0 4.82 4.82 0 0 0-.597.124c-.097.024-.191.054-.282.08l-.39.128-.147.05c-.265.106-.54.185-.822.236a.83.83 0 0 1-.356 0 .788.788 0 0 1-.164-.07c-.208-.118-.242-.3.148-.528a1.372 1.372 0 0 1 1.194-.124l.826-.832a3.543 3.543 0 0 0-2.49.138l-.688-.396-.94.59.688.396a1.052 1.052 0 0 0-.51.789c0 .265.202.52.608.755.906.52 1.798.335 2.617.084.761-.249 1.319-.54 1.758-.289.272.161.188.335-.117.527a1.508 1.508 0 0 1-1.309.077l-.879.872c.155.06.314.108.476.145.278.057.563.078.846.063a3.923 3.923 0 0 0 1.342-.335l.688.4.926-.538-.158-.094Z"/><path fill="#5721DF" d="M94.745 97.995v.734l.688.396v-.735l-.688-.395Z"/><path fill="#000" d="M94.745 97.995v.734l.688.396v-.735l-.688-.395Z" opacity=".45"/><path fill="#F5F5F5" d="m89.229 94.897.936-.543.688.396-.682-.285-.942.432Zm2.093.688a1.372 1.372 0 0 1 1.195-.124l.825-.832-.825.748a1.255 1.255 0 0 0-1.195.208Zm.762 2.53c.155.063.314.114.476.155.278.057.563.078.846.063a2.989 2.989 0 0 1-1.191-.238l.738-.839-.869.86Zm2.661-.12.688.311.926-.45-.926.534-.688-.395Zm-8.187-4.615c2.436-1.479 6.237-1.626 6.237-1.626-2.389 0-4.63.536-6.308 1.506-1.61.93-2.496 2.137-2.496 3.41 0 0 .087-1.782 2.567-3.29Zm5.526 8.581c2.587.114 5.241-.4 7.22-1.541 2.057-1.187 2.937-2.798 2.638-4.345 0 0 .386 2.523-2.795 4.251-3.18 1.728-7.063 1.635-7.063 1.635Z"/><path fill="#fff" d="M86.689 96.646c0-.104.01-.207.03-.309a.88.88 0 0 1 .023-.09 2.2 2.2 0 0 1 .06-.229l.054-.097c.03-.067.057-.131.09-.195.035-.064.051-.08.078-.12.036-.06.075-.119.118-.175.03-.044.067-.084.1-.127l.138-.151c.043-.047.09-.091.137-.135l.145-.124c.06-.05.12-.1.184-.148l.124-.087c.084-.057.168-.114.259-.168l-1.373-1.425-.335.194a6.082 6.082 0 0 0-1.745 1.44l1.946 1.946h-.033Zm7.009 3.278-.275.017h-.692c-.238 0-.473 0-.707-.03h-.219c-.248-.024-.496-.05-.734-.088-.249-.04-.49-.09-.728-.144l-.162-.04a8.758 8.758 0 0 1-.67-.198l2.09 2.09a15.24 15.24 0 0 0 3.594-.134l-1.474-1.473h-.023Zm-4.292-3.842c0 .262.202.52.608.755.28.165.592.271.916.312l-1.423-1.423a.597.597 0 0 0-.1.356Zm12.194.588c0-1.273-.886-2.48-2.497-3.41a10.43 10.43 0 0 0-2.305-.963l4.772 4.771c.02-.132.03-.265.03-.399Zm-8.805-3.29h.601l.292.024.315.024.245.033.336.047.214.04.363.071h.053l-1.885-1.886h-.547c-.626 0-1.251.039-1.872.114l1.52 1.52.365.014Zm6 3.91c0 .03-.024.064-.037.097a2.654 2.654 0 0 1-.114.245l-.05.084a2.26 2.26 0 0 1-.148.218l-.05.067a4.683 4.683 0 0 1-.205.228l-.064.064c-.084.08-.174.158-.268.235l-.06.044-.095.073 1.423 1.426a6.6 6.6 0 0 0 1.429-1.097l-1.738-1.741a.394.394 0 0 0-.023.057Zm-2.587-.644a.506.506 0 0 0 0-.074c-.024-.252-.208-.497-.594-.718a2.414 2.414 0 0 0-1.007-.312l1.513 1.513a.816.816 0 0 0 .088-.41Zm-5.929-2.976h.02l-1.4-1.4c-.483.133-.957.299-1.419.497l1.383 1.382c.456-.203.93-.364 1.416-.48Zm5.747 5.798c-.194.063-.399.12-.603.174l-.172.04c-.188.044-.382.084-.577.118l-.13.026 1.422 1.423a11.948 11.948 0 0 0 1.497-.419l-1.38-1.38-.056.017Zm-3.063-2.225-.503.5.574.574c.127.008.255.008.382 0a3.891 3.891 0 0 0 1.245-.292l-.725-.725a1.527 1.527 0 0 1-.973-.057Zm.362-.55-.765-.772-.047.017a4.873 4.873 0 0 1-.822.231.888.888 0 0 1-.355 0 .871.871 0 0 1-.168-.067c-.205-.124-.235-.305.154-.527a1.41 1.41 0 0 1 .671-.208l-.751-.751a3.82 3.82 0 0 0-.393.14l-.688-.395-.69.399 2.371 2.372a5.79 5.79 0 0 0 .789-.201c.265-.084.483-.175.694-.238Zm.662-4.893 2.087 2.088c.329.108.65.242.96.399 1.204.617 1.868 1.463 1.868 2.382v.027l1.939 1.936c.15-.181.282-.377.393-.584l-6.144-6.14c-.362-.04-.731-.084-1.103-.108Zm-7.5 8.282c.266.152.539.29.819.412l-3.251-3.231c.224 1.04 1.067 2.03 2.432 2.819Zm-2.493-3.49 4.308 4.305c.44.15.888.272 1.343.366l-5.493-5.496a2.686 2.686 0 0 0-.158.825Z" opacity=".3"/><path fill="#fff" d="M84.743 94.7a6.084 6.084 0 0 1 1.744-1.44l.336-.195-.295-.298c-.091.047-.172.094-.259.144a6.507 6.507 0 0 0-1.829 1.503l.286.285h.017Zm10.427 6.7a15.24 15.24 0 0 1-3.593.134l.43.43a15.72 15.72 0 0 0 3.513-.218l-.336-.336-.013-.01Zm-8.126-4.399c-.178-.812.302-1.654 1.43-2.305l-.232-.231h-.017c-.09.053-.174.11-.258.167l-.124.088a4.013 4.013 0 0 0-.185.147l-.144.124a2.93 2.93 0 0 0-.138.135l-.137.15c-.034.044-.07.085-.1.128a1.993 1.993 0 0 0-.118.175c-.027.04-.054.08-.077.12-.024.04-.06.128-.091.195l-.05.114a1.916 1.916 0 0 0-.06.228.886.886 0 0 0-.024.09 1.87 1.87 0 0 0-.03.31l.355.365Zm6.352 2.611a9.73 9.73 0 0 1-4.486-.755l.577.577c.218.074.446.138.671.198l.161.04c.238.054.48.104.728.144.238.037.487.064.735.088H92c.235.017.47.026.708.03h.691l.272-.02-.275-.302Zm5.707-6.352c1.611.93 2.497 2.137 2.497 3.41 0 .133-.01.266-.031.398l.336.336c.389-1.597-.48-3.275-2.604-4.5a11.302 11.302 0 0 0-3.063-1.17l.557.556c.805.23 1.58.555 2.308.97Zm-6.308-1.506h.547l-.402-.406c-.793-.01-1.585.042-2.37.154l.356.356a15.5 15.5 0 0 1 1.87-.104Zm6.328 8.317.292.289c.523-.3 1-.672 1.42-1.104l-.282-.282a6.6 6.6 0 0 1-1.43 1.097Zm-.57-3.1a2.416 2.416 0 0 1-1.084 1.443l.228.228.101-.07.06-.044c.094-.077.185-.154.269-.235l.064-.064c.073-.077.14-.15.204-.228l.05-.067a2.88 2.88 0 0 0 .148-.218l.05-.084c.043-.08.08-.161.115-.245 0-.033.023-.067.037-.097.013-.03 0-.04.016-.06l-.258-.259Zm-6.107-3.58.306.309c.988-.01 1.972.123 2.922.396l-.43-.443-.056-.017-.363-.07-.215-.04-.335-.048-.245-.033-.315-.024c-.098 0-.195-.02-.292-.023h-.601c-.144-.017-.262-.01-.376-.007Zm3.52 7.858.336.336c.5-.117.992-.266 1.473-.447l-.31-.308c-.49.172-.99.312-1.499.419ZM88.9 92.267l-.336-.336c-.477.14-.945.313-1.399.517l.302.302a10.97 10.97 0 0 1 1.433-.483Zm.201 2.117c.47-.2.96-.352 1.46-.456l-.262-.262h-.02c-.486.113-.96.273-1.416.477l.238.241Zm6.728 4.812a9.233 9.233 0 0 1-1.57.335l.281.282.134-.023c.195-.034.39-.074.577-.118l.171-.04c.209-.054.41-.11.605-.175l.056-.016-.254-.245ZM93.986 91.8c.373.024.742.068 1.101.125l-.46-.463c-.352-.04-.708-.07-1.063-.088l.426.427h-.004Zm7.537 6.56-.292-.295a3.599 3.599 0 0 1-.393.584l.285.288c.15-.18.284-.373.4-.577Zm-4.49-4.073a7.246 7.246 0 0 0-.953-.396l.56.56.249.118c.98.503 1.533 1.14 1.678 1.795l.335.335v-.04c-.003-.906-.664-1.745-1.869-2.372Zm-10.546 5.795c-1.365-.789-2.208-1.779-2.432-2.832l-.463-.463c.05 1.322.95 2.633 2.684 3.64.553.316 1.133.58 1.735.789l-.715-.722a8.69 8.69 0 0 1-.809-.412Zm1.815.805.598.6c.406.111.825.198 1.251.276l-.51-.51a11.14 11.14 0 0 1-1.339-.366Zm-4.153-5.13-.313-.313a3.21 3.21 0 0 0-.21.766l.368.372c.008-.282.06-.56.155-.825Z" opacity=".15"/><path fill="#5721DF" d="M100.613 94.065a5.892 5.892 0 0 0-2.198-2.033c-3.596-2.077-9.425-2.077-13.018 0a5.895 5.895 0 0 0-2.198 2.033h-.497v1.88c.067 1.308.963 2.603 2.685 3.603 3.593 2.074 9.421 2.074 13.018 0 1.728-1.007 2.631-2.295 2.685-3.604v-1.879h-.477Z"/><path fill="#000" d="M100.613 94.065a5.892 5.892 0 0 0-2.198-2.033c-3.596-2.077-9.425-2.077-13.018 0a5.895 5.895 0 0 0-2.198 2.033h-.497v1.88c.067 1.308.963 2.603 2.685 3.603 3.593 2.074 9.421 2.074 13.018 0 1.728-1.007 2.631-2.295 2.685-3.604v-1.879h-.477Z" opacity=".25"/><path fill="#000" d="M91.89 90.475c-2.35 0-4.698.517-6.51 1.557a5.894 5.894 0 0 0-2.198 2.033h-.496v1.88c.067 1.308.963 2.603 2.684 3.603 1.798 1.037 4.154 1.557 6.51 1.557l.01-10.63Z" opacity=".1"/><path fill="#000" d="M86.856 91.338c-.512.19-1.008.423-1.483.694a5.895 5.895 0 0 0-2.198 2.033h-.496v1.88c.067 1.308.963 2.603 2.684 3.603.475.27.971.503 1.483.695l.01-8.905Z" opacity=".1"/><path fill="#5721DF" d="M96.922 91.338a10.19 10.19 0 0 1 1.483.694 5.891 5.891 0 0 1 2.198 2.033h.497v1.88c-.064 1.308-.967 2.603-2.684 3.603-.475.27-.971.503-1.484.695l-.01-8.905Z" opacity=".5"/><path fill="#5721DF" d="M98.405 90.307c-3.597-2.076-9.425-2.076-13.018 0-3.594 2.077-3.594 5.44 0 7.516 3.593 2.077 9.421 2.077 13.018 0 3.597-2.077 3.594-5.439 0-7.516Z"/><path fill="#000" d="M98.405 90.307c-3.597-2.076-9.425-2.076-13.018 0-3.594 2.077-3.594 5.44 0 7.516 3.593 2.077 9.421 2.077 13.018 0 3.597-2.077 3.594-5.439 0-7.516Z" opacity=".2"/><path fill="#5721DF" d="M96.134 91.683a10.364 10.364 0 0 0-8.476 0c-1.204.617-1.869 1.463-1.869 2.382 0 .92.671 1.765 1.87 2.383a10.364 10.364 0 0 0 8.475 0c1.204-.618 1.869-1.463 1.869-2.383 0-.919-.665-1.764-1.87-2.382Z"/><path fill="#000" d="M96.134 91.683a10.364 10.364 0 0 0-8.476 0c-1.204.617-1.869 1.463-1.869 2.382 0 .92.671 1.765 1.87 2.383a10.364 10.364 0 0 0 8.475 0c1.204-.618 1.869-1.463 1.869-2.383 0-.919-.665-1.764-1.87-2.382Z" opacity=".4"/><path fill="#5721DF" d="M98.204 90.656c-1.678-.97-3.919-1.506-6.308-1.506s-4.63.537-6.308 1.506c-1.61.93-2.496 2.138-2.496 3.41 0 1.271.886 2.482 2.496 3.412 1.678.966 3.92 1.503 6.308 1.503 2.39 0 4.63-.537 6.308-1.503 1.61-.93 2.496-2.14 2.496-3.413 0-1.271-.885-2.48-2.496-3.409Zm-2.07 5.792a10.364 10.364 0 0 1-8.476 0c-1.204-.618-1.869-1.463-1.869-2.383 0-.919.671-1.764 1.87-2.382a10.364 10.364 0 0 1 8.475 0c1.204.617 1.869 1.463 1.869 2.382 0 .92-.665 1.765-1.87 2.383Z"/><path fill="#000" d="M91.896 97.035c3.197 0 5.788-1.33 5.788-2.97 0-1.64-2.591-2.97-5.788-2.97s-5.788 1.33-5.788 2.97c0 1.64 2.591 2.97 5.788 2.97Z" opacity=".2"/><path fill="#5721DF" d="M91.896 97.035c3.197 0 5.788-1.33 5.788-2.97 0-1.64-2.591-2.97-5.788-2.97s-5.788 1.33-5.788 2.97c0 1.64 2.591 2.97 5.788 2.97Z"/><path fill="#000" d="M91.896 97.035c3.197 0 5.788-1.33 5.788-2.97 0-1.64-2.591-2.97-5.788-2.97s-5.788 1.33-5.788 2.97c0 1.64 2.591 2.97 5.788 2.97Z" opacity=".6"/><path fill="#5721DF" d="M95.99 92.75c-2.262-1.157-5.926-1.157-8.187 0-.937.48-1.483 1.084-1.645 1.708.162.624.708 1.228 1.645 1.708 2.261 1.16 5.925 1.16 8.187 0 .936-.48 1.483-1.084 1.644-1.708-.161-.624-.712-1.221-1.644-1.708Z"/><path fill="#000" d="M95.99 92.75c-2.262-1.157-5.926-1.157-8.187 0-.937.48-1.483 1.084-1.645 1.708.162.624.708 1.228 1.645 1.708 2.261 1.16 5.925 1.16 8.187 0 .936-.48 1.483-1.084 1.644-1.708-.161-.624-.712-1.221-1.644-1.708Z" opacity=".5"/><path fill="#5721DF" d="M92.443 92.009v.849l-.289.308-.536.56v-.885l.825-.832Z"/><path fill="#000" d="M92.443 92.009v.849l-.289.308-.536.56v-.885l.825-.832Z" opacity=".3"/><path fill="#5721DF" d="M91.618 92.84v.504a4.864 4.864 0 0 1-.822.232.884.884 0 0 1-.356 0 .872.872 0 0 1-.168-.068c-.205-.124-.235-.305.154-.526a1.344 1.344 0 0 1 1.192-.141Z"/><path fill="#000" d="M91.618 92.84v.504a4.864 4.864 0 0 1-.822.232.884.884 0 0 1-.356 0 .872.872 0 0 1-.168-.068c-.205-.124-.235-.305.154-.526a1.344 1.344 0 0 1 1.192-.141Z" opacity=".45"/><path fill="#5721DF" d="M95.463 95.25v.731l-.93.537-.688-.4a3.478 3.478 0 0 1-2.657.122v-.732l.42-.42-.42.118a2.731 2.731 0 0 1-2.073-.238c-.417-.242-.608-.503-.608-.775v-.711l.074-.313-.252-.147v-.735l.688.4a1.06 1.06 0 0 0-.51.785c0 .261.201.52.608.754.902.52 1.798.336 2.617.084.765-.248 1.318-.54 1.758-.285.272.158.191.336-.118.527a1.516 1.516 0 0 1-1.308.074l-.876.872c.157.06.319.106.483.141a3.626 3.626 0 0 0 2.174-.262l.688.396.93-.523Z"/><path fill="#000" d="M88.507 93.475c0 .262.201.52.608.755.902.52 1.798.335 2.617.084.765-.249 1.318-.54 1.758-.285.272.157.191.335-.118.526a1.515 1.515 0 0 1-1.308.074l-.876.872c.157.06.319.107.483.141a3.626 3.626 0 0 0 2.174-.261l.688.396.93-.534v.732l-.93.536-.688-.399c-.834.39-1.79.434-2.657.12v-.73l.42-.42-.42.118a2.731 2.731 0 0 1-2.073-.239c-.417-.241-.608-.503-.608-.775v-.711l.074-.312Z" opacity=".35"/><path fill="#000" d="M88.33 92.29v.735l.251.148c.107-.193.256-.36.436-.487l-.688-.396Z" opacity=".45"/><path fill="#5721DF" d="M95.308 94.773a.84.84 0 0 1-.07.336l-.463-.265a.916.916 0 0 0 .527-.708l.006.637Z"/><path fill="#000" d="M95.308 94.773a.84.84 0 0 1-.07.336l-.463-.265a.916.916 0 0 0 .527-.708l.006.637Z" opacity=".3"/><path fill="#5721DF" d="m95.305 95.163-.53-.31a.903.903 0 0 0 .53-.885 1.007 1.007 0 0 0-.597-.731c-.374-.22-.8-.336-1.235-.336h-.362a.433.433 0 0 0-.074 0c-.203.029-.403.07-.6.124l-.283.08-.389.128-.147.05a4.287 4.287 0 0 1-.822.236.83.83 0 0 1-.356 0 1.02 1.02 0 0 1-.165-.068c-.208-.12-.238-.302.148-.526a1.361 1.361 0 0 1 1.195-.128l.825-.832a3.564 3.564 0 0 0-2.49.138l-.688-.393-.936.54.688.396a1.05 1.05 0 0 0-.51.789c0 .265.201.52.608.754.905.52 1.798.336 2.62.084.758-.248 1.315-.54 1.755-.288.272.16.191.352-.118.527a1.504 1.504 0 0 1-1.308.077l-.88.872a3.323 3.323 0 0 0 1.332.205 3.923 3.923 0 0 0 1.343-.336l.688.4.926-.537-.168-.03Z"/><path fill="#5721DF" d="M93.846 95.39v.736l.687.395v-.734l-.688-.396Z"/><path fill="#000" d="M93.846 95.39v.736l.687.395v-.734l-.688-.396Z" opacity=".45"/><path fill="#F5F5F5" d="m88.33 92.294.936-.544.687.396-.68-.285-.944.433Zm2.093.674a1.362 1.362 0 0 1 1.195-.127l.825-.832-.825.748a1.252 1.252 0 0 0-1.195.211Zm.762 2.544a3.323 3.323 0 0 0 1.332.205 2.991 2.991 0 0 1-1.191-.239l.738-.839-.88.873Zm2.661-.122.687.313.926-.45-.926.534-.688-.396Zm-8.187-4.613c2.435-1.48 6.237-1.627 6.237-1.627-2.389 0-4.63.537-6.308 1.506-1.61.93-2.496 2.138-2.496 3.41 0 0 .073-1.782 2.567-3.289Zm5.526 8.587c2.587.114 5.24-.4 7.22-1.54 2.057-1.188 2.936-2.799 2.641-4.346 0 0 .383 2.523-2.798 4.251-3.181 1.728-7.063 1.635-7.063 1.635Z"/><path fill="#fff" d="M85.79 94.042c0-.104.011-.207.03-.309a.913.913 0 0 1 .023-.09 1.92 1.92 0 0 1 .064-.228c0-.037.033-.078.05-.115a2.25 2.25 0 0 1 .087-.194c.024-.04.05-.08.078-.121a1.97 1.97 0 0 1 .117-.174c.03-.044.067-.084.104-.128a2.467 2.467 0 0 1 .272-.285l.144-.124c.06-.05.12-.101.185-.148l.124-.087a5.46 5.46 0 0 1 .258-.168l-1.4-1.4-.335.195a6.084 6.084 0 0 0-1.744 1.44l1.946 1.946-.004-.01Zm7.009 3.278-.276.017h-.691c-.238 0-.473 0-.708-.027l-.218-.017c-.248-.023-.496-.05-.735-.087-.248-.04-.49-.09-.728-.144l-.16-.04a8.8 8.8 0 0 1-.672-.199l2.09 2.09a15.203 15.203 0 0 0 3.594-.134l-1.473-1.476-.023.017Zm-4.292-3.842c0 .262.201.52.61.755.28.166.591.272.913.312l-1.422-1.422a.631.631 0 0 0-.1.355Zm12.193.587c0-1.271-.885-2.48-2.496-3.409a10.42 10.42 0 0 0-2.305-.963l4.771 4.772c.02-.133.031-.266.03-.4Zm-8.81-3.288h.6l.292.024.319.023.245.034.335.047.212.04.362.07h.054l-1.883-1.885h-.55c-.626 0-1.251.038-1.872.114l1.52 1.52.365.013Zm6.005 3.909c0 .03-.023.064-.036.097a2.308 2.308 0 0 1-.115.245l-.05.084a2.26 2.26 0 0 1-.148.218l-.05.067a3.22 3.22 0 0 1-.204.229l-.064.063c-.084.08-.175.158-.269.235l-.06.044-.094.074 1.423 1.426a6.626 6.626 0 0 0 1.429-1.097l-1.728-1.742-.034.057Zm-2.587-.644a.505.505 0 0 0 0-.074c-.023-.252-.208-.496-.594-.718a2.412 2.412 0 0 0-1.006-.312l1.513 1.513a.815.815 0 0 0 .087-.41Zm-5.928-2.976h.02l-1.4-1.4a10.89 10.89 0 0 0-1.419.497l1.383 1.396a8.05 8.05 0 0 1 1.416-.493Zm5.747 5.798c-.194.063-.396.12-.604.174l-.17.04c-.189.044-.38.084-.578.118l-.13.027 1.422 1.422a11.917 11.917 0 0 0 1.496-.419l-1.379-1.379-.057.017Zm-3.063-2.224-.503.5.573.573c.128.008.255.008.383 0a3.893 3.893 0 0 0 1.245-.292l-.722-.725a1.537 1.537 0 0 1-.976-.057Zm.362-.551-.761-.762-.047.017a4.864 4.864 0 0 1-.822.232.884.884 0 0 1-.356 0 .874.874 0 0 1-.168-.068c-.205-.124-.235-.305.154-.526a1.41 1.41 0 0 1 .671-.208l-.751-.752a4.17 4.17 0 0 0-.393.14l-.688-.395-.69.4 2.371 2.371a5.79 5.79 0 0 0 .789-.2c.248-.095.49-.185.691-.25Zm.661-4.879 2.087 2.087c.33.11.65.243.96.4 1.204.617 1.869 1.462 1.869 2.382v.03l1.94 1.936c.15-.18.282-.376.392-.584l-6.144-6.14a7.119 7.119 0 0 0-1.104-.11Zm-7.499 8.268c.265.152.539.29.819.413l-3.242-3.245c.215 1.053 1.057 2.043 2.423 2.832Zm-2.493-3.5 4.308 4.292c.44.15.888.272 1.342.365L83.25 93.14c-.096.27-.148.553-.154.84Z" opacity=".3"/><path fill="#fff" d="M83.837 92.096a6.082 6.082 0 0 1 1.744-1.44l.336-.194-.295-.296c-.091.044-.172.091-.259.141a6.51 6.51 0 0 0-1.829 1.504l.286.285h.017Zm10.435 6.7a15.203 15.203 0 0 1-3.594.135l.43.43a15.71 15.71 0 0 0 3.513-.219l-.336-.335-.013-.01Zm-8.127-4.398c-.178-.812.302-1.655 1.43-2.305l-.232-.232h-.017a4.77 4.77 0 0 0-.258.168l-.124.087a3.9 3.9 0 0 0-.185.148l-.144.124a2.638 2.638 0 0 0-.138.134c-.043.047-.094.1-.134.15-.04.051-.074.085-.104.128a1.964 1.964 0 0 0-.118.175c-.026.04-.053.08-.077.12a2.005 2.005 0 0 0-.087.195c-.017.037-.037.078-.05.114a1.94 1.94 0 0 0-.064.229.906.906 0 0 0-.023.09 1.89 1.89 0 0 0-.03.309l.355.366Zm6.355 2.62a9.73 9.73 0 0 1-4.49-.762l.578.578c.218.073.446.137.67.197l.162.04c.238.055.48.105.728.145.238.037.486.064.735.087l.218.017c.235 0 .47.024.708.027h.707l.273-.02-.289-.309Zm5.704-6.362c1.61.93 2.496 2.138 2.496 3.41.001.133-.01.267-.03.399l.336.335c.389-1.597-.48-3.275-2.604-4.5a11.302 11.302 0 0 0-3.063-1.17l.557.557c.805.229 1.58.555 2.308.97ZM91.89 89.15h.55l-.406-.406c-.793-.01-1.585.042-2.37.154l.356.356a15.52 15.52 0 0 1 1.87-.104Zm6.334 8.318.292.288c.522-.3 1-.671 1.42-1.104l-.282-.281a6.657 6.657 0 0 1-1.43 1.097Zm-.57-3.101a2.429 2.429 0 0 1-1.084 1.447l.228.224.1-.07.061-.044c.094-.077.185-.154.269-.235l.063-.063c.074-.074.141-.151.205-.229l.05-.067a2.28 2.28 0 0 0 .148-.218l.05-.084c.043-.079.081-.16.115-.245 0-.033.023-.067.036-.097.014-.03 0-.04.017-.06l-.258-.259Zm-6.1-3.58.308.309a10.27 10.27 0 0 1 2.923.396l-.446-.443-.057-.017c-.118-.027-.242-.047-.363-.07l-.211-.04-.336-.047-.245-.034-.318-.024-.292-.023h-.601c-.127 0-.255-.01-.362-.007Zm3.513 7.858.335.336c.5-.117.992-.266 1.473-.446l-.308-.309c-.49.172-.992.313-1.5.42ZM88 89.663l-.335-.335c-.478.14-.945.312-1.4.516l.303.302a10.92 10.92 0 0 1 1.433-.483Zm.198 2.117c.47-.2.96-.352 1.46-.456l-.262-.262h-.02a8.047 8.047 0 0 0-1.412.497l.234.221Zm6.732 4.812a9.243 9.243 0 0 1-1.571.335l.282.282.134-.023c.195-.034.39-.074.577-.118l.171-.04c.208-.053.41-.11.604-.174l.057-.017-.255-.245Zm-1.843-7.382c.373.024.742.067 1.1.124l-.459-.46c-.352-.04-.708-.07-1.064-.087l.427.427-.004-.004Zm7.526 6.547-.292-.296a3.33 3.33 0 0 1-.392.584l.285.289a4.22 4.22 0 0 0 .399-.578Zm-4.479-4.074a7.047 7.047 0 0 0-.953-.396l.56.56.249.118c.98.503 1.533 1.14 1.677 1.795l.336.336v-.04c-.004-.907-.665-1.755-1.87-2.373Zm-10.546 5.795c-1.366-.789-2.208-1.779-2.433-2.832l-.46-.463c.048 1.322.95 2.634 2.685 3.64.553.316 1.133.58 1.735.789l-.715-.721a8.477 8.477 0 0 1-.812-.413Zm1.815.792.597.6c.406.111.826.198 1.252.275l-.507-.51a10.926 10.926 0 0 1-1.342-.365Zm-4.153-5.117-.313-.312a3.255 3.255 0 0 0-.211.765l.369.372a2.7 2.7 0 0 1 .154-.825Z" opacity=".15"/><path fill="#5721DF" d="M115.078 108.879a5.913 5.913 0 0 0-2.198-2.033c-3.597-2.077-9.425-2.077-13.018 0a5.93 5.93 0 0 0-2.201 2.033h-.497v1.879c.067 1.309.963 2.604 2.684 3.601 3.594 2.076 9.422 2.076 13.019 0 1.728-1.007 2.627-2.292 2.684-3.601v-1.879h-.473Z"/><path fill="#000" d="M115.078 108.879a5.913 5.913 0 0 0-2.198-2.033c-3.597-2.077-9.425-2.077-13.018 0a5.93 5.93 0 0 0-2.201 2.033h-.497v1.879c.067 1.309.963 2.604 2.684 3.601 3.594 2.076 9.422 2.076 13.019 0 1.728-1.007 2.627-2.292 2.684-3.601v-1.879h-.473Z" opacity=".25"/><path fill="#000" d="M106.371 105.289c-2.349 0-4.697.517-6.51 1.557a5.93 5.93 0 0 0-2.2 2.033h-.497v1.879c.067 1.309.963 2.604 2.684 3.6 1.799 1.041 4.154 1.557 6.51 1.557l.013-10.626Z" opacity=".1"/><path fill="#000" d="M101.341 106.151a9.89 9.89 0 0 0-1.48.695 5.93 5.93 0 0 0-2.2 2.033h-.497v1.879c.067 1.309.963 2.604 2.684 3.601.473.272.968.504 1.48.694l.013-8.902Z" opacity=".1"/><path fill="#5721DF" d="M111.397 106.151a9.963 9.963 0 0 1 1.483.695 5.913 5.913 0 0 1 2.198 2.033h.497v1.879c-.067 1.309-.967 2.604-2.685 3.601-.474.271-.97.503-1.483.694l-.01-8.902Z" opacity=".5"/><path fill="#5721DF" d="M112.88 105.121c-3.597-2.077-9.425-2.077-13.018 0-3.594 2.077-3.597 5.439 0 7.516s9.421 2.074 13.018 0c3.597-2.073 3.594-5.442 0-7.516Z"/><path fill="#000" d="M112.88 105.121c-3.597-2.077-9.425-2.077-13.018 0-3.594 2.077-3.597 5.439 0 7.516s9.421 2.074 13.018 0c3.597-2.073 3.594-5.442 0-7.516Z" opacity=".2"/><path fill="#5721DF" d="M110.609 106.497a10.368 10.368 0 0 0-8.476 0c-1.208.617-1.869 1.463-1.869 2.382 0 .92.671 1.765 1.869 2.383a10.367 10.367 0 0 0 8.476 0c1.204-.618 1.865-1.463 1.865-2.383 0-.919-.661-1.765-1.865-2.382Z"/><path fill="#000" d="M110.609 106.497a10.368 10.368 0 0 0-8.476 0c-1.208.617-1.869 1.463-1.869 2.382 0 .92.671 1.765 1.869 2.383a10.367 10.367 0 0 0 8.476 0c1.204-.618 1.865-1.463 1.865-2.383 0-.919-.661-1.765-1.865-2.382Z" opacity=".4"/><path fill="#5721DF" d="M112.692 105.467c-1.677-.97-3.919-1.503-6.308-1.503s-4.63.533-6.308 1.503c-1.61.929-2.496 2.141-2.496 3.412 0 1.272.886 2.483 2.496 3.413 1.678.966 3.916 1.499 6.308 1.499 2.393 0 4.631-.533 6.308-1.499 1.608-.93 2.497-2.144 2.497-3.413 0-1.268-.903-2.483-2.497-3.412Zm-2.07 5.795a10.367 10.367 0 0 1-8.475 0c-1.208-.618-1.869-1.463-1.869-2.383 0-.919.671-1.765 1.869-2.382a10.367 10.367 0 0 1 8.475 0c1.205.617 1.866 1.463 1.866 2.382 0 .92-.675 1.765-1.879 2.383h.013Z"/><path fill="#000" d="M106.371 111.849c3.197 0 5.788-1.33 5.788-2.97 0-1.64-2.591-2.969-5.788-2.969s-5.788 1.329-5.788 2.969 2.591 2.97 5.788 2.97Z" opacity=".2"/><path fill="#5721DF" d="M106.371 111.849c3.197 0 5.788-1.33 5.788-2.97 0-1.64-2.591-2.969-5.788-2.969s-5.788 1.329-5.788 2.969 2.591 2.97 5.788 2.97Z"/><path fill="#000" d="M106.371 111.849c3.197 0 5.788-1.33 5.788-2.97 0-1.64-2.591-2.969-5.788-2.969s-5.788 1.329-5.788 2.969 2.591 2.97 5.788 2.97Z" opacity=".6"/><path fill="#5721DF" d="M110.465 107.564c-2.262-1.161-5.929-1.161-8.188 0-.936.48-1.483 1.084-1.644 1.708.161.624.708 1.228 1.644 1.708 2.259 1.161 5.926 1.161 8.188 0 .932-.48 1.479-1.084 1.644-1.708-.165-.624-.712-1.228-1.644-1.708Z"/><path fill="#000" d="M110.465 107.564c-2.262-1.161-5.929-1.161-8.188 0-.936.48-1.483 1.084-1.644 1.708.161.624.708 1.228 1.644 1.708 2.259 1.161 5.926 1.161 8.188 0 .932-.48 1.479-1.084 1.644-1.708-.165-.624-.712-1.228-1.644-1.708Z" opacity=".5"/><path fill="#5721DF" d="M106.918 106.822v.849l-.289.306-.537.563v-.885l.826-.833Z"/><path fill="#000" d="M106.918 106.822v.849l-.289.306-.537.563v-.885l.826-.833Z" opacity=".3"/><path fill="#5721DF" d="M106.093 107.665v.5a4.655 4.655 0 0 1-.826.234.87.87 0 0 1-.352 0 1.11 1.11 0 0 1-.168-.067c-.205-.124-.238-.305.151-.53a1.364 1.364 0 0 1 1.195-.137Z"/><path fill="#000" d="M106.093 107.665v.5a4.655 4.655 0 0 1-.826.234.87.87 0 0 1-.352 0 1.11 1.11 0 0 1-.168-.067c-.205-.124-.238-.305.151-.53a1.364 1.364 0 0 1 1.195-.137Z" opacity=".45"/><path fill="#5721DF" d="M109.934 110.067v.731l-.926.537-.671-.399a3.506 3.506 0 0 1-2.661.121v-.735l.423-.416-.453.107a2.701 2.701 0 0 1-2.07-.235c-.416-.241-.611-.503-.607-.775v-.711l.074-.312-.252-.148v-.734l.671.395a1.075 1.075 0 0 0-.346.335 1.068 1.068 0 0 0-.161.454c0 .262.202.517.608.752.902.523 1.798.335 2.617.087.761-.248 1.318-.54 1.758-.289.272.158.188.353-.117.527a1.516 1.516 0 0 1-1.309.077l-.866.886c.158.061.321.11.487.144a3.626 3.626 0 0 0 2.174-.261l.671.396.956-.534Z"/><path fill="#000" d="M102.982 108.289c0 .261.201.516.607.751.903.524 1.799.336 2.618.088.761-.249 1.318-.541 1.758-.289.272.158.188.352-.118.527a1.536 1.536 0 0 1-.645.187 1.532 1.532 0 0 1-.663-.11l-.893.879c.158.061.321.11.487.144a3.627 3.627 0 0 0 2.174-.261l.671.396.926-.534v.731l-.926.537-.671-.399a3.506 3.506 0 0 1-2.661.121v-.735l.423-.416-.423.107a2.701 2.701 0 0 1-2.07-.235c-.416-.241-.611-.503-.607-.775v-.711l.073-.312" opacity=".35"/><path fill="#000" d="M102.804 107.104v.735l.252.148a1.52 1.52 0 0 1 .433-.487l-.685-.396Z" opacity=".45"/><path fill="#5721DF" d="M109.78 109.587a.844.844 0 0 1-.067.336l-.466-.269a.908.908 0 0 0 .526-.704c.004.214.007.617.007.637Z"/><path fill="#000" d="M109.78 109.587a.844.844 0 0 1-.067.336l-.466-.269a.908.908 0 0 0 .526-.704c.004.214.007.617.007.637Z" opacity=".3"/><path fill="#5721DF" d="m109.78 109.976-.53-.308a.907.907 0 0 0 .53-.816v-.07a1.001 1.001 0 0 0-.594-.718 2.437 2.437 0 0 0-1.235-.336h-.365a.305.305 0 0 0-.074 0 4.544 4.544 0 0 0-.601.124 4.064 4.064 0 0 0-.278.081l-.39.128-.147.05a4.593 4.593 0 0 1-.822.235.89.89 0 0 1-.356 0 .702.702 0 0 1-.164-.071c-.208-.117-.242-.302.147-.527a1.366 1.366 0 0 1 1.195-.124l.825-.832a3.521 3.521 0 0 0-2.489.138l-.688-.396-.936.54.687.396a1.061 1.061 0 0 0-.513.788c0 .262.205.517.611.752.902.524 1.798.352 2.617.087.762-.248 1.315-.54 1.755-.288.275.157.191.335-.114.527a1.525 1.525 0 0 1-1.309.077l-.879.872a3.33 3.33 0 0 0 1.332.205 3.992 3.992 0 0 0 1.342-.336l.671.396.926-.533-.154-.041Z"/><path fill="#5721DF" d="M108.32 110.205v.731l.688.399v-.734l-.688-.396Z"/><path fill="#000" d="M108.32 110.205v.731l.688.399v-.734l-.688-.396Z" opacity=".45"/><path fill="#F5F5F5" d="m102.801 107.104.939-.54.688.396-.684-.285-.943.429Zm2.097.675a1.35 1.35 0 0 1 1.195-.124l.825-.833-.825.749a1.253 1.253 0 0 0-1.195.208Zm.748 2.546a3.285 3.285 0 0 0 1.332.205 2.955 2.955 0 0 1-1.194-.242l.741-.835-.879.872Zm2.674-.12.688.308.926-.446-.926.534-.688-.396Zm-8.187-4.614c2.436-1.48 6.238-1.627 6.238-1.627-2.392 0-4.63.533-6.308 1.503-1.61.929-2.496 2.141-2.496 3.412 0 0 .087-1.781 2.566-3.288Zm5.513 8.586c2.587.114 5.241-.399 7.221-1.54 2.057-1.188 2.936-2.798 2.637-4.362 0 0 .386 2.527-2.795 4.255-3.181 1.728-7.063 1.647-7.063 1.647Z"/><path fill="#fff" d="M100.278 108.856a1.602 1.602 0 0 1 .053-.4c.015-.077.036-.153.061-.228 0-.04.033-.077.05-.117a2.71 2.71 0 0 1 .091-.191c.033-.064.05-.081.077-.121.027-.04.074-.118.114-.175l.104-.127c.044-.051.087-.101.138-.151l.137-.138.141-.121.188-.147c.04-.03.08-.061.124-.087.044-.027.168-.114.258-.168l-1.399-1.403c-.117.064-.235.128-.335.195a6.047 6.047 0 0 0-1.745 1.439l1.946 1.946-.003-.006Zm6.996 3.278-.279.017h-.678c-.238 0-.476 0-.708-.027l-.218-.017a9.997 9.997 0 0 1-.735-.084 8.081 8.081 0 0 1-.728-.144l-.161-.037a8.677 8.677 0 0 1-.671-.198l2.091 2.09c.399.031.805.047 1.218.047.795.003 1.59-.059 2.375-.184l-1.473-1.473-.033.01Zm-4.295-3.842c0 .262.201.52.61.755.281.165.593.271.916.312l-1.422-1.423a.628.628 0 0 0-.104.356Zm12.196.584c0-1.268-.889-2.476-2.496-3.406a10.261 10.261 0 0 0-2.308-.963l4.774 4.771c.021-.133.031-.267.03-.402Zm-8.804-3.285h.601l.292.02.315.027.245.034c.117 0 .235.026.335.046.101.021.141.027.212.041.124.02.245.043.366.07h.053l-1.872-1.855h-.547a14.642 14.642 0 0 0-1.872.114l1.52 1.52.352-.017Zm5.986 3.906a1.932 1.932 0 0 1-.151.345l-.047.084a2.348 2.348 0 0 1-.151.218l-.05.067a3.228 3.228 0 0 1-.202.225l-.063.067a3.738 3.738 0 0 1-.272.235l-.057.044-.098.074 1.423 1.422a6.41 6.41 0 0 0 1.429-1.097l-1.741-1.738a.393.393 0 0 1-.02.054Zm-2.577-.641a.457.457 0 0 0 0-.074c-.02-.255-.205-.497-.591-.718a2.386 2.386 0 0 0-1.006-.312l1.517 1.513a.824.824 0 0 0 .08-.409Zm-5.925-2.976h.02l-1.4-1.396a10.79 10.79 0 0 0-1.419.496l1.379 1.379a8.18 8.18 0 0 1 1.42-.479Zm5.744 5.811a9.779 9.779 0 0 1-.601.174l-.171.041c-.188.043-.382.084-.577.117l-.131.027 1.423 1.423a12.13 12.13 0 0 0 1.496-.423l-1.379-1.376-.06.017Zm-3.06-2.241-.507.503.577.574c.128.008.255.008.383 0 .428-.03.849-.13 1.245-.296l-.725-.721a1.498 1.498 0 0 1-.973-.06Zm.362-.551-.762-.761h-.046a4.658 4.658 0 0 1-.826.235.87.87 0 0 1-.352 0 1.114 1.114 0 0 1-.168-.068c-.205-.124-.238-.305.151-.53.204-.122.434-.194.671-.208l-.752-.751c-.134.04-.261.09-.392.144l-.691-.396-.691.396 2.375 2.376c.266-.049.529-.116.785-.202.255-.077.487-.168.698-.235Zm.661-4.892 2.087 2.087c.33.11.65.245.96.403 1.204.617 1.865 1.463 1.865 2.382v.04l1.94 1.937a3.57 3.57 0 0 0 .392-.584l-6.14-6.137a13.258 13.258 0 0 0-1.104-.128Zm-7.499 8.281c.265.153.538.289.819.41l-3.252-3.248c.225 1.063 1.067 2.053 2.433 2.838Zm-2.493-3.496 4.305 4.305c.44.148.888.27 1.342.366l-5.496-5.5a2.825 2.825 0 0 0-.151.829Z" opacity=".3"/><path fill="#fff" d="M98.318 106.91a6.036 6.036 0 0 1 1.745-1.44c.114-.067.231-.131.335-.194l-.298-.296-.255.141a6.539 6.539 0 0 0-1.829 1.503l.285.286h.017Zm10.429 6.697c-.786.125-1.58.187-2.376.184-.413 0-.819-.016-1.218-.047l.429.427a15.73 15.73 0 0 0 3.514-.215l-.336-.336-.013-.013Zm-8.134-4.396c-.178-.812.299-1.654 1.426-2.305l-.231-.231c-.091.053-.175.111-.259.168-.084.057-.084.057-.124.087l-.188.147-.141.121-.137.138c-.05.05-.094.1-.138.151l-.104.127a2.018 2.018 0 0 0-.114.175c-.027.04-.054.08-.077.121a2.21 2.21 0 0 0-.091.191c-.026.064-.037.077-.05.117a1.822 1.822 0 0 0-.06.228.489.489 0 0 0-.024.091 1.996 1.996 0 0 0-.03.309l.342.365Zm6.375 2.621a9.756 9.756 0 0 1-4.486-.755l.577.577c.219.074.447.138.671.198l.162.037c.234.057.476.107.728.144.238.037.486.064.734.084l.219.017c.231.017.469.027.708.027h.687l.276-.024-.276-.305Zm5.704-6.362c1.608.93 2.497 2.138 2.497 3.406a2.7 2.7 0 0 1-.03.402l.335.336c.389-1.594-.48-3.271-2.604-4.499-.96-.537-1.993-.93-3.066-1.168l.557.557c.807.226 1.583.551 2.311.966Zm-6.321-1.496h.547l-.406-.406c-.793-.011-1.585.04-2.369.154l.356.356a14.818 14.818 0 0 1 1.872-.104Zm6.321 8.304.292.292c.522-.301 1-.672 1.42-1.104l-.282-.282c-.423.43-.904.798-1.43 1.094Zm-.563-3.097a2.444 2.444 0 0 1-1.084 1.443l.228.228.101-.07.057-.044c.097-.077.188-.154.272-.235l.063-.067c.071-.074.141-.148.202-.225l.05-.067a2.17 2.17 0 0 0 .151-.218l.047-.084a1.932 1.932 0 0 0 .168-.402l-.255-.259Zm-6.107-3.58.305.305c.989-.008 1.973.126 2.923.4l-.443-.447h-.057a7.17 7.17 0 0 0-.366-.07c-.07 0-.137-.03-.211-.04-.074-.01-.232-.034-.336-.047l-.245-.034-.315-.027-.292-.02h-.601c-.13-.03-.248-.023-.362-.02Zm3.52 7.858.335.336a11.56 11.56 0 0 0 1.473-.443l-.308-.312c-.491.172-.992.312-1.5.419Zm-7.067-8.982-.335-.336c-.478.14-.945.313-1.399.517l.302.302c.465-.194.944-.355 1.432-.483Zm.198 2.114a8.069 8.069 0 0 1 1.463-.453l-.261-.262h-.021a7.75 7.75 0 0 0-1.415.477l.234.238Zm6.731 4.815a9.238 9.238 0 0 1-1.57.335l.282.282.134-.023c.195-.034.389-.074.577-.118l.171-.04c.205-.054.406-.111.601-.174l.06-.021-.255-.241Zm-1.842-7.399c.373.027.742.071 1.101.128l-.46-.463a12.241 12.241 0 0 0-1.067-.087l.426.422Zm7.536 6.563-.292-.295a3.527 3.527 0 0 1-.392.584l.285.288a4.17 4.17 0 0 0 .399-.577Zm-4.489-4.073a7.142 7.142 0 0 0-.953-.396l.56.56c.081.041.168.074.249.118.979.5 1.533 1.141 1.677 1.795l.336.335v-.043c-.004-.906-.665-1.752-1.869-2.369Zm-10.546 5.791c-1.366-.785-2.208-1.775-2.433-2.832l-.463-.449c.05 1.322.95 2.634 2.685 3.64a10.07 10.07 0 0 0 1.734.785l-.704-.734a7.822 7.822 0 0 1-.819-.41Zm1.812.809.6.601c.406.107.826.197 1.252.271l-.51-.506a11.987 11.987 0 0 1-1.342-.366Zm-4.155-5.134-.308-.308a3.208 3.208 0 0 0-.211.765l.369.372c.009-.282.06-.562.15-.829Z" opacity=".15"/><path fill="#5721DF" d="M115.628 106.292a5.953 5.953 0 0 0-2.201-2.033c-3.593-2.074-9.422-2.074-13.015 0a5.987 5.987 0 0 0-2.201 2.033h-.497v1.883c.067 1.305.96 2.603 2.685 3.6 3.593 2.077 9.421 2.077 13.015 0 1.731-1.007 2.63-2.295 2.684-3.6v-1.883h-.47Z"/><path fill="#000" d="M115.628 106.292a5.953 5.953 0 0 0-2.201-2.033c-3.593-2.074-9.422-2.074-13.015 0a5.987 5.987 0 0 0-2.201 2.033h-.497v1.883c.067 1.305.96 2.603 2.685 3.6 3.593 2.077 9.421 2.077 13.015 0 1.731-1.007 2.63-2.295 2.684-3.6v-1.883h-.47Z" opacity=".25"/><path fill="#000" d="M106.921 102.702c-2.348 0-4.714.52-6.509 1.557a5.987 5.987 0 0 0-2.201 2.033h-.497v1.883c.067 1.305.96 2.603 2.685 3.6 1.795 1.037 4.153 1.557 6.509 1.557l.013-10.63Z" opacity=".1"/><path fill="#000" d="M101.892 103.564c-.511.192-1.006.424-1.48.695a5.987 5.987 0 0 0-2.201 2.033h-.497v1.883c.067 1.305.96 2.603 2.685 3.6.473.271.968.503 1.479.694l.014-8.905Z" opacity=".1"/><path fill="#5721DF" d="M111.948 103.564c.511.192 1.006.424 1.479.695a5.953 5.953 0 0 1 2.201 2.033h.497v1.883c-.067 1.305-.966 2.603-2.684 3.6-.474.271-.969.503-1.48.694l-.013-8.905Z" opacity=".5"/><path fill="#5721DF" d="M113.427 102.534c-3.593-2.073-9.422-2.073-13.015 0-3.594 2.074-3.597 5.443 0 7.516 3.597 2.074 9.422 2.077 13.015 0 3.594-2.077 3.597-5.439 0-7.516Z"/><path fill="#000" d="M113.427 102.534c-3.593-2.073-9.422-2.073-13.015 0-3.594 2.074-3.597 5.443 0 7.516 3.597 2.074 9.422 2.077 13.015 0 3.594-2.077 3.597-5.439 0-7.516Z" opacity=".2"/><path fill="#5721DF" d="M111.159 103.91a10.41 10.41 0 0 0-8.479 0c-1.204.617-1.869 1.466-1.869 2.386 0 .919.671 1.761 1.869 2.382a10.41 10.41 0 0 0 8.479 0c1.205-.621 1.866-1.466 1.866-2.382 0-.916-.668-1.769-1.866-2.386Z"/><path fill="#000" d="M111.159 103.91a10.41 10.41 0 0 0-8.479 0c-1.204.617-1.869 1.466-1.869 2.386 0 .919.671 1.761 1.869 2.382a10.41 10.41 0 0 0 8.479 0c1.205-.621 1.866-1.466 1.866-2.382 0-.916-.668-1.769-1.866-2.386Z" opacity=".4"/><path fill="#5721DF" d="M113.229 102.883c-1.677-.969-3.919-1.503-6.311-1.503s-4.627.534-6.305 1.503c-1.61.93-2.496 2.141-2.496 3.413 0 1.271.886 2.479 2.496 3.409 1.678.969 3.916 1.503 6.305 1.503s4.634-.534 6.311-1.503c1.608-.93 2.497-2.141 2.497-3.409 0-1.269-.889-2.483-2.497-3.413Zm-2.07 5.788a10.393 10.393 0 0 1-8.479 0c-1.204-.621-1.869-1.466-1.869-2.382 0-.916.671-1.768 1.869-2.386a10.41 10.41 0 0 1 8.479 0c1.205.618 1.866 1.467 1.866 2.386s-.668 1.768-1.866 2.382Z"/><path fill="#000" d="M106.921 109.262c3.197 0 5.788-1.33 5.788-2.97 0-1.64-2.591-2.969-5.788-2.969-3.196 0-5.788 1.329-5.788 2.969s2.592 2.97 5.788 2.97Z" opacity=".2"/><path fill="#5721DF" d="M106.921 109.262c3.197 0 5.788-1.33 5.788-2.97 0-1.64-2.591-2.969-5.788-2.969-3.196 0-5.788 1.329-5.788 2.969s2.592 2.97 5.788 2.97Z"/><path fill="#000" d="M106.921 109.262c3.197 0 5.788-1.33 5.788-2.97 0-1.64-2.591-2.969-5.788-2.969-3.196 0-5.788 1.329-5.788 2.969s2.592 2.97 5.788 2.97Z" opacity=".6"/><path fill="#5721DF" d="M111.015 104.98c-2.262-1.161-5.929-1.161-8.191 0-.932.48-1.479 1.084-1.64 1.708.161.624.708 1.225 1.64 1.705 2.262 1.161 5.929 1.161 8.191 0 .933-.48 1.479-1.081 1.644-1.705-.165-.624-.711-1.228-1.644-1.708Z"/><path fill="#000" d="M111.015 104.98c-2.262-1.161-5.929-1.161-8.191 0-.932.48-1.479 1.084-1.64 1.708.161.624.708 1.225 1.64 1.705 2.262 1.161 5.929 1.161 8.191 0 .933-.48 1.479-1.081 1.644-1.705-.165-.624-.711-1.228-1.644-1.708Z" opacity=".5"/><path fill="#5721DF" d="M107.468 104.239v.849l-.288.305-.537.56v-.882l.825-.832Z"/><path fill="#000" d="M107.468 104.239v.849l-.288.305-.537.56v-.882l.825-.832Z" opacity=".3"/><path fill="#5721DF" d="M106.653 105.071v.5a4.926 4.926 0 0 1-.826.235.87.87 0 0 1-.352 0 .8.8 0 0 1-.168-.071c-.204-.121-.238-.302.151-.527a1.35 1.35 0 0 1 1.195-.137Z"/><path fill="#000" d="M106.653 105.071v.5a4.926 4.926 0 0 1-.826.235.87.87 0 0 1-.352 0 .8.8 0 0 1-.168-.071c-.204-.121-.238-.302.151-.527a1.35 1.35 0 0 1 1.195-.137Z" opacity=".45"/><path fill="#5721DF" d="M110.485 107.48v.735l-.93.533-.671-.396a3.502 3.502 0 0 1-2.661.121v-.735l.423-.419-.423.117a2.704 2.704 0 0 1-2.07-.238c-.416-.238-.611-.5-.611-.772v-.714l.078-.312-.255-.148v-.731l.671.396a1.058 1.058 0 0 0-.51.788c0 .265.204.52.61.755.903.52 1.799.336 2.618.087.761-.248 1.318-.54 1.758-.288.271.157.188.335-.118.526a1.525 1.525 0 0 1-1.308.078l-.879.869c.158.06.32.107.486.141a3.61 3.61 0 0 0 2.174-.259l.671.396.947-.53Z"/><path fill="#000" d="M103.529 105.705c0 .265.205.52.611.755.902.52 1.798.336 2.617.087.762-.248 1.319-.54 1.758-.288.272.157.188.335-.117.526-.199.11-.42.173-.646.186a1.519 1.519 0 0 1-.663-.108l-.879.869c.158.06.321.107.486.141.734.141 1.494.05 2.175-.259l.671.396.929-.537v.735l-.929.534-.671-.396a3.512 3.512 0 0 1-2.661.121v-.735l.423-.42-.423.118a2.707 2.707 0 0 1-2.07-.239c-.416-.238-.611-.499-.611-.771v-.715l.077-.312Z" opacity=".35"/><path fill="#000" d="M103.351 104.521v.731l.255.148c.11-.191.259-.357.436-.487l-.691-.392Z" opacity=".45"/><path fill="#5721DF" d="M110.344 106.994a.925.925 0 0 1-.067.352l-.467-.269a.908.908 0 0 0 .527-.704c.007.208.007.621.007.621Z"/><path fill="#000" d="M110.344 106.994a.925.925 0 0 1-.067.352l-.467-.269a.908.908 0 0 0 .527-.704c.007.208.007.621.007.621Z" opacity=".3"/><path fill="#5721DF" d="m110.344 107.393-.534-.309a.903.903 0 0 0 .534-.815.84.84 0 0 0 0-.071c-.02-.255-.208-.5-.591-.721a2.448 2.448 0 0 0-1.238-.336h-.436a4.932 4.932 0 0 0-.601.125l-.278.083a9.354 9.354 0 0 0-.389.128l-.148.05a4.849 4.849 0 0 1-.825.235.952.952 0 0 1-.353 0 .878.878 0 0 1-.168-.07c-.204-.121-.238-.302.151-.527a1.354 1.354 0 0 1 1.195-.124l.825-.832a3.538 3.538 0 0 0-2.493.137l-.691-.372-.936.54.671.396a1.065 1.065 0 0 0-.51.788c0 .265.205.52.611.755.902.524 1.798.336 2.617.084.762-.248 1.315-.54 1.755-.285.275.158.191.336-.114.527a1.505 1.505 0 0 1-1.309.074l-.879.872a3.205 3.205 0 0 0 1.332.205 3.9 3.9 0 0 0 1.342-.336l.671.396.93-.537-.141-.06Z"/><path fill="#5721DF" d="M108.871 107.621v.731l.684.396v-.731l-.684-.396Z"/><path fill="#000" d="M108.871 107.621v.731l.684.396v-.731l-.684-.396Z" opacity=".45"/><path fill="#F5F5F5" d="m103.351 104.521.936-.541.688.396-.681-.285-.943.43Zm2.097.674a1.354 1.354 0 0 1 1.195-.124l.825-.832-.815.741a1.26 1.26 0 0 0-1.205.215Zm.762 2.543a3.162 3.162 0 0 0 1.332.205 3.002 3.002 0 0 1-1.194-.238l.741-.839-.879.872Zm2.661-.117.684.309.93-.45-.93.537-.684-.396Zm-8.187-4.614c2.436-1.479 6.234-1.627 6.234-1.627-2.389 0-4.627.534-6.305 1.503-1.61.93-2.496 2.141-2.496 3.413 0 0 .087-1.782 2.567-3.289Zm5.526 8.587c2.587.114 5.241-.4 7.217-1.544 2.06-1.188 2.94-2.795 2.641-4.345 0 0 .386 2.523-2.795 4.251-3.181 1.728-7.063 1.638-7.063 1.638Z"/><path fill="#fff" d="M100.815 106.269c0-.104.009-.207.026-.309 0-.03.017-.057.024-.087.007-.03.037-.154.064-.228.026-.074.033-.077.05-.118a2.94 2.94 0 0 1 .091-.191c.033-.064.05-.084.073-.124l.118-.171c.033-.044.067-.088.104-.128.042-.053.088-.104.137-.151.044-.047.091-.094.138-.137l.141-.124.188-.148.124-.087c.08-.057.168-.111.258-.168l-1.402-1.409-.336.194a6.041 6.041 0 0 0-1.745 1.443l1.947 1.943Zm7.009 3.281h-.339c-.188 0-.376.017-.567.017h-.06c-.239 0-.477 0-.712-.027l-.218-.017c-.248-.02-.493-.047-.735-.083a8.08 8.08 0 0 1-.728-.145l-.161-.04a7.071 7.071 0 0 1-.671-.195l2.09 2.091a15.279 15.279 0 0 0 3.594-.134l-1.473-1.473-.02.006Zm-4.295-3.845c0 .265.201.52.611.755.28.167.592.274.916.315l-1.423-1.419a.619.619 0 0 0-.104.349Zm12.183.587c0-1.268-.889-2.479-2.496-3.409a10.43 10.43 0 0 0-2.309-.963l4.805 4.775a2.71 2.71 0 0 0 0-.403Zm-8.794-3.285h.604l.292.024.315.027c.084 0 .165.02.245.03.081.01.235.03.336.05l.211.037.366.074h.053l-1.885-1.886h-.55c-.625 0-1.25.039-1.869.118l1.52 1.52.362.006Zm5.999 3.906c0 .034-.02.064-.033.097a1.89 1.89 0 0 1-.118.249c0 .026-.03.053-.047.08a3.123 3.123 0 0 1-.151.222l-.05.063c-.064.08-.132.157-.205.228l-.063.064a2.601 2.601 0 0 1-.326.279l-.097.077 1.422 1.423a6.413 6.413 0 0 0 1.43-1.098l-1.742-1.741a.385.385 0 0 1-.02.057Zm-2.573-.644a.42.42 0 0 0 0-.071 1.014 1.014 0 0 0-.594-.721 2.42 2.42 0 0 0-1.007-.316l1.517 1.517a.89.89 0 0 0 .084-.409Zm-5.939-2.966h.017l-1.396-1.396c-.484.132-.959.298-1.42.496l1.379 1.379a7.909 7.909 0 0 1 1.42-.479Zm5.744 5.791a8.01 8.01 0 0 1-.6.171l-.172.044c-.191.043-.382.08-.577.114l-.134.027 1.426 1.426c.506-.11 1.005-.251 1.493-.423l-1.375-1.379-.061.02Zm-3.063-2.228-.504.5.574.574c.129.008.258.008.386 0a3.794 3.794 0 0 0 1.241-.292l-.721-.722a1.534 1.534 0 0 1-.976-.06Zm.362-.544-.762-.761-.043.017a4.83 4.83 0 0 1-.826.234.87.87 0 0 1-.352 0 .796.796 0 0 1-.168-.07c-.204-.121-.238-.302.151-.527.204-.122.434-.194.671-.208l-.751-.751c-.131.04-.259.09-.389.141l-.675-.423-.691.399 2.375 2.376c.266-.051.529-.118.786-.202.235-.077.466-.164.674-.225Zm.664-4.898 2.087 2.087c.33.109.65.243.96.399 1.205.617 1.866 1.466 1.866 2.386v.026l1.939 1.94c.15-.181.281-.377.393-.584l-6.144-6.144c-.359-.04-.728-.084-1.101-.11Zm-7.499 8.281c.264.153.536.292.816.416l-3.248-3.248c.224 1.053 1.067 2.043 2.432 2.832Zm-2.493-3.497 4.305 4.305c.44.147.889.269 1.342.366l-5.502-5.499c-.09.267-.138.546-.145.828Z" opacity=".3"/><path fill="#fff" d="M98.868 104.326a6.041 6.041 0 0 1 1.745-1.443l.336-.194-.295-.296c-.088.047-.172.091-.255.141a6.533 6.533 0 0 0-1.83 1.503l.286.289h.013Zm10.429 6.694a15.158 15.158 0 0 1-3.594.134l.426.43c1.176.06 2.355-.013 3.513-.218l-.335-.336-.01-.01Zm-8.127-4.392c-.178-.816.299-1.654 1.426-2.305l-.231-.232-.259.168-.124.087-.188.148-.141.124a2.95 2.95 0 0 0-.137.137 1.79 1.79 0 0 0-.138.151c-.037.041-.07.084-.104.128l-.117.171c-.024.04-.051.081-.074.124a3.257 3.257 0 0 0-.091.191c-.026.064-.036.078-.05.118-.013.04-.044.151-.064.228l-.023.087a2.043 2.043 0 0 0-.027.312l.342.363Zm6.352 2.62a9.743 9.743 0 0 1-4.486-.758l.577.577c.218.074.443.138.671.195l.161.04c.235.057.476.107.728.144.242.037.487.064.735.084l.218.017c.235.017.473.027.711.027h.688c.094 0 .181 0 .272-.02l-.275-.306Zm5.707-6.365c1.608.93 2.497 2.141 2.497 3.409 0 .135-.01.27-.03.403l.335.335c.389-1.593-.483-3.271-2.604-4.499-.96-.536-1.993-.93-3.066-1.171l.556.557c.807.228 1.583.552 2.312.966Zm-6.311-1.506h.55l-.406-.406c-.793-.01-1.586.042-2.372.154l.359.359c.62-.075 1.244-.111 1.869-.107Zm6.331 8.318.289.288a6.513 6.513 0 0 0 1.423-1.104l-.282-.282a6.442 6.442 0 0 1-1.43 1.098Zm-.557-3.097a2.436 2.436 0 0 1-1.083 1.442l.228.229c.035-.023.068-.048.101-.074a2.715 2.715 0 0 0 .325-.279l.064-.064c.072-.071.141-.148.204-.228l.051-.063c.057-.074.104-.148.151-.222.047-.074.033-.054.047-.08.045-.08.084-.163.117-.249 0-.033.024-.063.034-.097.01-.034 0-.04.016-.06l-.255-.255Zm-6.123-3.584.309.309c.988-.008 1.972.126 2.922.396l-.443-.443h-.057l-.366-.074-.211-.037c-.114-.02-.231-.033-.335-.05a2.384 2.384 0 0 0-.245-.03l-.316-.027-.292-.024h-.604l-.362-.02Zm3.523 7.862.336.335c.5-.116.992-.265 1.473-.446l-.312-.309c-.49.171-.99.311-1.497.42Zm-7.066-8.983-.336-.335c-.479.14-.947.312-1.402.517l.305.305c.466-.196.944-.358 1.433-.487Zm.198 2.114a8.044 8.044 0 0 1 1.463-.453l-.262-.265h-.02c-.486.112-.961.27-1.416.473l.235.245Zm6.731 4.815a9.306 9.306 0 0 1-1.574.336l.285.285.134-.027c.195-.033.389-.07.577-.114l.172-.044a8.01 8.01 0 0 0 .6-.171l.061-.02-.255-.245Zm-1.843-7.398c.373.026.742.07 1.101.124l-.463-.46a13.465 13.465 0 0 0-1.064-.09l.426.426Zm7.537 6.576-.292-.292a3.596 3.596 0 0 1-.393.584l.285.285c.149-.181.283-.374.4-.577Zm-4.49-4.087a7.088 7.088 0 0 0-.953-.396l.564.561.248.114c.98.503 1.534 1.141 1.678 1.798l.335.336v-.027c-.003-.923-.674-1.768-1.872-2.386Zm-10.546 5.792c-1.365-.789-2.208-1.779-2.432-2.832l-.463-.46c.05 1.322.95 2.634 2.684 3.637a10.12 10.12 0 0 0 1.735.789l-.718-.718a8.405 8.405 0 0 1-.806-.416Zm1.812.808.601.601c.406.107.825.198 1.248.272l-.507-.507a12.495 12.495 0 0 1-1.342-.366Zm-4.161-5.133-.308-.309a3.016 3.016 0 0 0-.212.765l.37.372c.008-.282.059-.561.15-.828Z" opacity=".15"/><path fill="#5721DF" d="M99.399 122.005 62.6 100.763l-18.398 10.619L81 132.625l18.398-10.62Z"/><path fill="#000" d="M46.14 111.382 81 131.514l16.462-9.502L62.6 101.88l-16.462 9.502Zm.969 0 15.492-8.945 33.889 19.568L81 130.951l-33.89-19.569Z" opacity=".4"/><path fill="#000" d="M72.489 122.193c-2.51 0-5.084-.577-7.067-1.721-1.929-1.117-3.036-2.637-3.036-4.174 0-1.409.906-2.708 2.553-3.661 3.517-2.03 9.456-1.902 13.237.282 1.933 1.114 3.04 2.634 3.04 4.171 0 1.409-.91 2.711-2.553 3.66-1.644.95-3.886 1.443-6.174 1.443Zm-1.376-10.673c-2.218 0-4.379.463-6.01 1.402-1.54.89-2.388 2.091-2.388 3.376 0 1.416 1.046 2.832 2.875 3.889 3.691 2.13 9.482 2.254 12.905.278 1.543-.889 2.392-2.087 2.392-3.375 0-1.416-1.05-2.832-2.875-3.886-1.936-1.12-4.45-1.684-6.899-1.684Z" opacity=".4"/><path fill="#000" d="M72.485 121.009c-2.382 0-4.737-.574-6.465-1.571-1.55-.895-2.443-2.04-2.443-3.14 0-.966.695-1.899 1.96-2.627 1.439-.833 3.419-1.289 5.576-1.289 2.382 0 4.741.571 6.47 1.567 1.55.896 2.442 2.044 2.442 3.141 0 .966-.698 1.899-1.96 2.627-1.44.832-3.422 1.292-5.58 1.292Z" opacity=".2"/><path fill="#000" d="m79.062 128.984-10.113-5.885.808.104a17.67 17.67 0 0 0 2.181.138 15.362 15.362 0 0 0 7.047-1.852c1.788-1.034 3.597-2.883 3.597-4.698a4.397 4.397 0 0 0-.41-1.815l-.218-.47 11.073 6.429-1.215.705a.52.52 0 0 0-.319.412.539.539 0 0 0 .32.42l1.217.701-10.09 5.788-1.05-.607a1.97 1.97 0 0 0-1.775 0l-1.053.63Z" opacity=".2"/><path fill="#5721DF" d="M83.501 124.877a3.434 3.434 0 0 1-1.678-.412 1.314 1.314 0 0 1-.761-1.071 1.128 1.128 0 0 1 .65-.949 3.498 3.498 0 0 1 3.171.064 1.309 1.309 0 0 1 .765 1.07 1.132 1.132 0 0 1-.65.953c-.462.241-.977.36-1.497.345Z"/><path fill="#000" d="m61.691 118.848-11.072-6.375 1.218-.701c.204-.118.335-.266.315-.417a.519.519 0 0 0-.315-.416l-1.218-.704 10.066-5.735 1.05.608a2.015 2.015 0 0 0 1.772 0l1.05-.608 10.11 5.819-.82-.104a16.62 16.62 0 0 0-2.184-.141c-2.395 0-5.257.724-7.123 1.802-2.329 1.342-3.51 2.784-3.51 4.284a6.34 6.34 0 0 0 .426 2.211l.235.477Z" opacity=".2"/><path fill="#5721DF" d="M60.35 111.56a3.478 3.478 0 0 1-1.678-.409 1.319 1.319 0 0 1-.765-1.071 1.13 1.13 0 0 1 .65-.953 3.53 3.53 0 0 1 3.175.064 1.324 1.324 0 0 1 .761 1.071 1.13 1.13 0 0 1-.65.953c-.46.241-.975.36-1.494.345Zm39.049 10.445v4.473L81 137.101v-4.476l18.398-10.62Z"/><path fill="#000" d="M99.399 122.005v4.473L81 137.101v-4.476l18.398-10.62Z" opacity=".1"/><path fill="#000" d="m81.001 133.625 5.808-3.235-5.811 3.507.003-.272Zm18.398-9.496-1.936 1.232 1.936-1.007v-.225Zm0 1.067-9.684 5.755 9.684-5.426v-.329Zm-18.401 9.493 9.683-5.416-9.683 5.768v-.352Z" opacity=".1"/><path fill="#5721DF" d="m81.001 137.101-36.798-21.246v-4.473l36.798 21.243v4.476Z"/><path fill="#000" d="m81.001 137.101-36.798-21.246v-4.473l36.798 21.243v4.476Z" opacity=".2"/><path fill="#000" d="m81.001 133.625-1.94-1 1.937 1.272.003-.272Zm-.003 1.063-9.734-5.442 9.734 5.795v-.353Zm-36.795-21.199 6.778 4.044-6.778-3.782v-.262Zm0 1.124 3.872 2.363-3.872-2.114v-.249Z" opacity=".3" style="mix-blend-mode:multiply"/><path fill="#7C7C7C" d="m84.206 112.49-19.039 10.995-5.811-3.352 19.038-10.995 5.812 3.352Z"/><path fill="#444" d="M59.356 120.133v4.865l5.811 3.352v-4.865l-5.811-3.352Z"/><path fill="#E0E0E0" d="m65.167 128.35.34-.194-.34-.198v.392Zm19.039-15.86v.744l-.645-.372.645-.372Z"/><path fill="#000" d="M65.506 128.152v-4.469l-.339-.198v4.473l.34.194Z" opacity=".3" style="mix-blend-mode:multiply"/><path fill="#000" d="m65.506 123.683 18.398-10.623-.343-.198-18.394 10.623.34.198Z" opacity=".2" style="mix-blend-mode:multiply"/><path fill="#FAFAFA" d="m83.578 112.131-19.041 10.992-.484-.279 19.042-10.992.483.279Zm-4.067-2.349L60.47 120.774l-.483-.279 19.038-10.992.486.279Z"/><path fill="#E0E0E0" d="M64.537 123.123v4.865l-.484-.279v-4.865l.484.279Zm-4.067-2.349v4.865l-.487-.278.004-4.866.483.279Z"/><path fill="#5721DF" d="m98.573 15.067-12.049 6.96 12.052 6.955 12.053-6.956-12.056-6.959Z"/><path fill="#000" d="m98.573 15.067-12.049 6.96 12.052 6.955 12.053-6.956-12.056-6.959Z" opacity=".3"/><path fill="#5721DF" d="M110.629 22.003v40.23L98.576 69.19V28.985l12.053-6.982Z"/><path fill="#000" d="M110.629 22.003v40.23L98.576 69.19V28.985l12.053-6.982Z" opacity=".4"/><path fill="#5721DF" d="M98.576 28.985V69.19l-12.052-6.96V22.027l12.052 6.96Z"/><path fill="#000" d="M98.576 28.985V69.19l-12.052-6.96V22.027l12.052 6.96Z" opacity=".55"/><path fill="#5721DF" d="m75.81 49.859-12.049 6.955 12.053 6.96 12.049-6.956-12.052-6.96Z"/><path fill="#fff" d="m75.81 49.859-12.049 6.955 12.053 6.96 12.049-6.956-12.052-6.96Z" opacity=".3"/><path fill="#5721DF" d="M87.866 56.818v18.555l-12.052 6.959V63.773l12.052-6.955Zm-12.052 6.955v18.559l-12.052-6.96V56.815l12.052 6.96Z"/><path fill="#000" d="M75.814 63.773v18.559l-12.052-6.96V56.815l12.052 6.96Z" opacity=".1"/><path fill="#5721DF" d="m53.048 39.81-12.052 6.959 12.052 6.955 12.049-6.959-12.049-6.956Z"/><path fill="#fff" d="m53.048 39.81-12.052 6.959 12.052 6.955 12.049-6.959-12.049-6.956Z" opacity=".7"/><path fill="#5721DF" d="M65.1 46.769v41.763l-12.052 6.946V53.724L65.1 46.77Z"/><path fill="#fff" d="M65.1 46.769v41.763l-12.052 6.946V53.724L65.1 46.77Z" opacity=".6"/><path fill="#5721DF" d="M53.048 53.724v41.754l-12.052-6.959v-41.75l12.052 6.955Z"/><path fill="#fff" d="M53.048 53.724v41.754l-12.052-6.959v-41.75l12.052 6.955Z" opacity=".4"/><path fill="#7C7C7C" d="m30.282 62.227-12.05 6.962 12.053 6.959 12.05-6.956-12.053-6.965Z"/><path fill="#5E5E5E" d="M42.338 69.165v32.494l-12.053 6.958-.003-32.466 12.056-6.986Z"/><path fill="#444" d="m30.282 76.151.003 32.466-12.052-6.958V69.165l12.049 6.986Z"/><path fill="#FFBF00" d="M99.915 8.112v3.09l-4.207-2.433a1.577 1.577 0 0 1-.715-1.238v-2.46l4.922 3.04Zm9.271 4.731v2.885c0 .457-.319.641-.715.413l-4.536-2.617V10.43l5.251 2.413ZM55.169 36.021l.556-.852 22.146 20.317 1.03-.148-.017.027a.805.805 0 0 1-1.087.292l-2.933-1.678a4.315 4.315 0 0 1-.735-.54L55.17 36.02Z"/><path fill="#FFBF00" d="m99.915 8.112 4.02 2.318-25.444 42.522-3.489-3.2 24.913-41.64Z"/><path fill="#FFE084" d="M103.935 10.43v3.09l-25.02 41.818a.642.642 0 0 1-1.03.148l-21.562-19.76a.672.672 0 0 0-1.057.134L35.63 65.864l-2.228 3.402a.835.835 0 0 1-.446.336v-3.09l.453-.336 2.225-3.403 19.639-30.01a.673.673 0 0 1 1.056-.13l21.552 19.76a.645.645 0 0 0 1.03-.149l25.024-41.814Z"/><path fill="#FFBF00" d="M32.96 66.525v3.09a.859.859 0 0 1-.712-.067l-2.271-1.309h-.02a1.582 1.582 0 0 1-.692-1.224V64.38l3.694 2.144Z"/><path fill="#FFBF00" d="m33.413 66.18 21.863-33.413a.698.698 0 0 1 .923-.229L52.41 30.19a.849.849 0 0 0-1.154.255L29.396 63.86a.772.772 0 0 0 .262 1.1l2.59 1.497a.882.882 0 0 0 1.165-.279ZM95.275 5.43l13.3 7.681c.396.228.672.047.601-.406L107.539.891a.624.624 0 0 0-.886-.52L95.325 4.733c-.416.154-.446.47-.05.698Z"/><path fill="#5721DF" d="m133.398 64.676-4.123-2.389 7.979-6.805 4.123 2.383-7.979 6.811Z"/><path fill="#000" d="m133.398 64.676-4.123-2.389 7.979-6.805 4.123 2.383-7.979 6.811Z" opacity=".3"/><path fill="#5721DF" d="M135.932 66.246c-2.108-1.493-5.775-.365-8.875.614-.745.249-1.42.473-2.03.671a3.755 3.755 0 0 0-.306 1.436c0 2.403 2.037 1.749 6.466.289a32.75 32.75 0 0 1 4.577-1.205c.134 1.225.983 2.35 4.295.591l-4.127-2.396Z"/><path fill="#000" d="M135.932 66.246c-2.108-1.493-5.775-.365-8.875.614-.745.249-1.42.473-2.03.671a3.755 3.755 0 0 0-.306 1.436c0 2.403 2.037 1.749 6.466.289a32.75 32.75 0 0 1 4.577-1.205c.134 1.225.983 2.35 4.295.591l-4.127-2.396Z" opacity=".3"/><path fill="#5721DF" d="m125.711 97.531-4.124-2.382v-4.872l4.124 2.39v4.864Z"/><path fill="#000" d="m125.711 97.531-4.124-2.382v-4.872l4.124 2.39v4.864Z" opacity=".3"/><path fill="#5721DF" d="M132.7 79.04c0 1.936-1.456 3.664-3.61 4.92-3.439 1.996-4.775.368-5.07-1.222l-.725-.42a7.633 7.633 0 0 0 1.678-.748c1.631-.95 2.859-2.174 3.355-3.55 2.54-.832 4.372-1.157 4.372 1.02Z"/><path fill="#000" d="M132.7 79.04c0 1.936-1.456 3.664-3.61 4.92-3.439 1.996-4.775.368-5.07-1.222l-.725-.42a7.633 7.633 0 0 0 1.678-.748c1.631-.95 2.859-2.174 3.355-3.55 2.54-.832 4.372-1.157 4.372 1.02Z" opacity=".3"/><path fill="#5721DF" d="M117.363 90.978a2.722 2.722 0 0 0-1.506-.365 8.076 8.076 0 0 1-.222-.772l-4.127-2.382c.413 1.788 1.231 2.906 2.312 3.523l4.117 2.379s.694-1.55-.574-2.383Z"/><path fill="#000" d="M117.363 90.978a2.722 2.722 0 0 0-1.506-.365 8.076 8.076 0 0 1-.222-.772l-4.127-2.382c.413 1.788 1.231 2.906 2.312 3.523l4.117 2.379s.694-1.55-.574-2.383Z" opacity=".3"/><path fill="#5721DF" d="M131.187 69.246c-4.429 1.46-6.466 2.114-6.466-.289.007-.494.11-.982.306-1.436-3.02.933-4.429 1.05-4.429-.946 0-1.466.99-3.275 3.721-4.865 2.916-1.678 4.546-1.295 4.956.577l7.979-6.805c-.034-.104-.074-.194-.111-.295.496-.11.974-.292 1.416-.543l-3.292-1.957a4.43 4.43 0 0 0-.315-.188l-.051-.03a5.606 5.606 0 0 0-3.133-.51c-1.425.16-2.817.542-4.124 1.131v-.084l4.124-2.382-4.124-2.386-2.798 1.627-3.785 2.202v4.865c-5.59 4.07-9.083 9.395-9.083 15.14 0 2.616.708 4.103 1.849 4.861l.053.034c.099.06.201.117.306.167l3.452 1.946a2.555 2.555 0 0 0-.211-1.556 19.236 19.236 0 0 0 3.231-.705c4.198-1.268 7.922-3.261 7.922-.151 0 .467-.086.93-.252 1.366 2.547-.833 4.379-1.158 4.379 1.006 0 1.936-1.456 3.664-3.61 4.92-3.439 1.996-4.775.368-5.07-1.222l-.725-.42-3.399-1.966-8.388 7.107 4.127 2.382c.134.61.347 1.198.634 1.752 1.611.026 3.459-.504 5.318-1.316v1.97l4.124.503 2.399-1.396V86.49c5.647-4.167 9.549-9.78 9.549-15.643.031-1-.128-1.997-.466-2.939-1.876.04-4.06.722-6.013 1.339Z"/><path fill="#fff" d="M131.187 69.246c-4.429 1.46-6.466 2.114-6.466-.289.007-.494.11-.982.306-1.436-3.02.933-4.429 1.05-4.429-.946 0-1.466.99-3.275 3.721-4.865 2.916-1.678 4.546-1.295 4.956.577l7.979-6.805c-.034-.104-.074-.194-.111-.295.496-.11.974-.292 1.416-.543l-3.292-1.957a4.43 4.43 0 0 0-.315-.188l-.051-.03a5.606 5.606 0 0 0-3.133-.51c-1.425.16-2.817.542-4.124 1.131v-.084l4.124-2.382-4.124-2.386-2.798 1.627-3.785 2.202v4.865c-5.59 4.07-9.083 9.395-9.083 15.14 0 2.616.708 4.103 1.849 4.861l.053.034c.099.06.201.117.306.167l3.452 1.946a2.555 2.555 0 0 0-.211-1.556 19.236 19.236 0 0 0 3.231-.705c4.198-1.268 7.922-3.261 7.922-.151 0 .467-.086.93-.252 1.366 2.547-.833 4.379-1.158 4.379 1.006 0 1.936-1.456 3.664-3.61 4.92-3.439 1.996-4.775.368-5.07-1.222l-.725-.42-3.399-1.966-8.388 7.107 4.127 2.382c.134.61.347 1.198.634 1.752 1.611.026 3.459-.504 5.318-1.316v1.97l4.124.503 2.399-1.396V86.49c5.647-4.167 9.549-9.78 9.549-15.643.031-1-.128-1.997-.466-2.939-1.876.04-4.06.722-6.013 1.339Z" opacity=".4"/><path fill="#5721DF" d="M137.186 67.907c-1.868.04-4.053.722-6.006 1.342-4.429 1.46-6.465 2.114-6.465-.288.006-.494.11-.982.305-1.436.473-1.124 1.53-2.329 3.422-3.43 2.913-1.677 4.544-1.291 4.95.584l7.979-6.811c-.765-2.302-2.322-3.5-4.634-3.55-1.386-.037-3.05.336-4.976 1.161v-4.855l-4.124 2.395-2.456 1.43v4.865c-5.59 4.074-9.086 9.395-9.086 15.14a8.466 8.466 0 0 0 .496 3.133c1.235 3.084 4.617 2.661 8.181 1.614 1.248-.376 2.463-.819 3.543-1.167 2.547-.833 4.379-1.158 4.379 1.006 0 1.936-1.457 3.664-3.611 4.92-3.439 1.996-4.774.368-5.07-1.222l-8.388 7.103c.134.61.347 1.198.634 1.752 1.091 2.046 3.044 2.61 5.318 2.311a15.7 15.7 0 0 0 4.124-1.238v4.865l6.523-3.764v-4.892c5.65-4.16 9.549-9.774 9.549-15.643.01-4.224-1.989-5.385-4.587-5.325Z"/><path fill="#5721DF" d="m125.188 59.304-4.127-2.386V52.05l4.127 2.386v4.868Z"/><path fill="#000" d="m125.188 59.304-4.127-2.386V52.05l4.127 2.386v4.868Z" opacity=".3"/><path fill="#fff" d="M121.061 52.05c.698.379 1.399.755 2.09 1.144.691.39 1.389.775 2.077 1.171h-.08c.546-.336 1.09-.648 1.64-.96l1.651-.95 1.661-.932c.554-.312 1.111-.61 1.678-.913-.541.336-1.077.672-1.621 1.007l-1.631.98-1.64.966c-.544.336-1.098.634-1.648.953l-.04.023-.04-.023c-.688-.4-1.373-.802-2.051-1.215-.677-.412-1.355-.835-2.046-1.251Z"/><path fill="#fff" d="m125.188 59.304-.087-4.869h.174l-.087 4.87Z"/><path fill="#fff" d="m125.188 59.3-.725.575c-.235.174-.507.409-.815.67-.309.262-.655.574-1.007.917-.352.342-.748.738-1.158 1.14-.409.403-.801.873-1.191 1.37-.198.24-.402.486-.59.751-.188.265-.393.517-.567.795-.175.279-.366.554-.54.839l-.497.869-.45.896c-.144.302-.261.614-.392.916a15.361 15.361 0 0 0-.601 1.835c-.037.151-.084.302-.114.453-.03.151-.06.299-.087.45a7.516 7.516 0 0 0-.148.869c-.033.288-.08.564-.094.835-.013.272-.027.53-.037.782-.016.458-.006.916.031 1.373.028.351.079.7.151 1.046.063.286.127.507.177.671.051.165.081.229.081.229l-.087-.225a6.229 6.229 0 0 1-.198-.654 9.063 9.063 0 0 1-.188-1.047 10.247 10.247 0 0 1-.067-1.38c0-.254.016-.516.023-.791.007-.275.054-.55.077-.84.024-.288.081-.583.135-.882.048-.307.114-.612.198-.912.158-.632.357-1.252.593-1.86.131-.308.249-.62.393-.925.144-.305.299-.604.446-.91l.51-.875c.175-.285.366-.56.547-.839.181-.279.389-.537.581-.802.191-.265.396-.51.597-.751.392-.5.825-.933 1.218-1.343a16.53 16.53 0 0 1 1.181-1.127c.386-.329.725-.64 1.05-.893.326-.251.597-.483.836-.65l.728-.574Zm11.998 8.607h-.157c-.101 0-.249.017-.436.037a15.24 15.24 0 0 0-1.544.269 27.18 27.18 0 0 0-2.141.573c-.778.239-1.6.497-2.422.772l-1.235.39c-.409.123-.812.244-1.208.335a8.897 8.897 0 0 1-1.151.241c-.35.062-.707.075-1.06.037a1.193 1.193 0 0 1-.799-.399l-.117-.158c-.03-.057-.047-.114-.07-.168a.985.985 0 0 1-.084-.305 1.938 1.938 0 0 1-.041-.436v-.158.155c.006.145.026.29.061.432.018.103.051.203.097.296.027.05.047.104.077.157l.118.145c.202.203.474.323.761.335.345.03.692.008 1.03-.063.182-.03.366-.068.557-.115.192-.047.38-.094.578-.147a29.44 29.44 0 0 0 1.194-.356l1.231-.4a73.12 73.12 0 0 1 2.433-.75c.782-.226 1.523-.4 2.164-.524.516-.1 1.037-.166 1.561-.198h.439l.164.003ZM132.7 79.04v.144a3.967 3.967 0 0 1-.147 1.027 3.998 3.998 0 0 1-.299.769c-.147.29-.319.567-.513.828-.218.291-.46.564-.722.816a10.269 10.269 0 0 1-1.892 1.416l-.53.278c-.175.094-.366.165-.547.248a6.03 6.03 0 0 1-1.121.336 2.941 2.941 0 0 1-1.097 0 2.608 2.608 0 0 1-.49-.154 2.3 2.3 0 0 1-.403-.259 2.093 2.093 0 0 1-.536-.627 3.167 3.167 0 0 1-.356-.977l-.027-.14.037.14a3.256 3.256 0 0 0 .399.943 2.248 2.248 0 0 0 .933.816c.15.06.307.105.466.13a3.06 3.06 0 0 0 1.047-.016 5.671 5.671 0 0 0 1.084-.336c.175-.084.356-.15.53-.248l.527-.285c.341-.197.671-.41.99-.641a9 9 0 0 0 .882-.728c.5-.456.923-.99 1.252-1.58a4.75 4.75 0 0 0 .335-.742c.068-.197.118-.399.151-.604.025-.133.041-.268.047-.403v-.15Zm-21.192 8.419 2.087 1.147 2.077 1.168h-.087l2.09-1.785 2.101-1.768c.701-.594 1.409-1.175 2.113-1.759.705-.583 1.42-1.154 2.131-1.734-.688.607-1.369 1.221-2.06 1.818-.691.597-1.382 1.201-2.08 1.792l-2.094 1.782-2.104 1.768-.04.033-.047-.026-2.047-1.215-2.04-1.221Zm20.726 1.416.638-.51c.204-.161.452-.356.721-.598.268-.241.59-.493.909-.801.319-.31.688-.625 1.037-1.007l.55-.557.551-.604c.191-.201.372-.416.553-.638.181-.221.369-.44.547-.67.336-.467.711-.937 1.027-1.433.315-.497.631-1.007.926-1.504.295-.496.54-1.006.751-1.533.212-.527.396-1.007.581-1.486.07-.245.141-.48.208-.712l.097-.335c.031-.108.051-.222.074-.336.091-.433.185-.828.225-1.188.04-.359.101-.67.107-.929.031-.517.047-.815.047-.815s0 .298-.016.818c-.01.312-.036.624-.078.933-.037.405-.1.808-.188 1.205-.023.107-.043.221-.067.335-.023.114-.06.225-.09.336-.064.231-.128.473-.195.721-.178.48-.335 1.007-.564 1.507-.228.5-.479 1.03-.748 1.553a12.94 12.94 0 0 1-.923 1.52c-.342.49-.671.97-1.043 1.436-.181.232-.372.45-.557.671-.185.222-.369.437-.56.638l-.574.627-.564.55c-.359.363-.728.672-1.06.974-.332.302-.671.547-.936.778-.265.232-.534.416-.742.57l-.644.484Zm-10.647 5.033c.356-.06.705-.141 1.054-.235.349-.094.691-.191 1.03-.305a27.57 27.57 0 0 0 2.013-.779l.121-.054v2.567c0 .809-.033 1.62-.07 2.433a99.073 99.073 0 0 1-.071-2.433V92.67l.121.077c-.664.286-1.344.535-2.037.745-.704.21-1.428.35-2.161.416Zm6.876-29.816c.221-.124.432-.258.671-.372.238-.114.446-.228.671-.336a3.39 3.39 0 0 1 .335-.137 2.71 2.71 0 0 1 .363-.121c.12-.03.241-.074.365-.094.125-.02.252-.05.38-.057.127-.008.255-.008.382 0a2.132 2.132 0 0 1 .755.164c.118.055.231.12.336.198.103.08.196.173.278.275.083.104.155.217.215.336.061.114.112.233.154.355.044.125.071.249.107.373l-.13-.044 1.993-1.708 2.013-1.697 2.013-1.678 2.013-1.678-1.963 1.742-1.976 1.721-1.99 1.711-2.013 1.698-.094.08-.033-.123c-.034-.118-.061-.239-.101-.356a1.949 1.949 0 0 0-.144-.336 1.4 1.4 0 0 0-.195-.302 1.507 1.507 0 0 0-.557-.446 1.346 1.346 0 0 0-.335-.117 1.828 1.828 0 0 0-.359-.054 2.705 2.705 0 0 0-.369 0c-.125 0-.245.034-.37.05-.124.017-.241.054-.362.08-.121.028-.242.071-.359.108-.12.035-.237.076-.352.124a8.225 8.225 0 0 0-.691.296c-.225.107-.44.231-.651.345Z"/></svg>