<svg xmlns="http://www.w3.org/2000/svg" width="185" height="176" fill="none"><path fill="#F5F5F5" d="M92.333 155.029c50.995 0 92.334-20.764 92.334-46.377 0-25.613-41.339-46.377-92.334-46.377C41.34 62.275 0 83.04 0 108.652c0 25.613 41.339 46.377 92.333 46.377Z"/><path fill="#E0E0E0" d="M42.632 116.622c15.545 0 28.148-6.397 28.148-14.287 0-7.89-12.603-14.287-28.148-14.287-15.546 0-28.148 6.396-28.148 14.287 0 7.89 12.602 14.287 28.148 14.287Zm32.283 29.923c8.788 0 15.912-3.616 15.912-8.077s-7.124-8.077-15.912-8.077c-8.787 0-15.911 3.616-15.911 8.077s7.124 8.077 15.911 8.077Z"/><path fill="#E0E0E0" d="M99.837 139.155h9.887l71.088-36.258-70.046-37.862-32.132 17.786 48.188 24.965-43.955 22.612 16.97 8.757Z"/><path fill="#455A64" d="m30.43 93.478-4.713 2.384s2.45-6.717 1.23-13.514c-.461-2.567-1.487-3.847-1.846-4.537-.36-.69-3.122-4.944-.617-6.87 2.505-1.924 8.295 2.016 7.897 12.46a36.7 36.7 0 0 1-1.95 10.077Z"/><path fill="#fff" d="M28.238 94.751a.199.199 0 0 1-.063 0 .184.184 0 0 1-.106-.086.151.151 0 0 1-.007-.128c0-.041 1.822-4.364 1.822-11.344 0-6.98-4.007-10.668-4.046-10.695a.166.166 0 0 1-.04-.054.148.148 0 0 1 0-.127.166.166 0 0 1 .04-.054.205.205 0 0 1 .133-.047c.05 0 .097.017.132.047.043.038 4.156 3.858 4.156 10.937 0 7.08-1.83 11.42-1.85 11.462a.168.168 0 0 1-.07.067.197.197 0 0 1-.101.022Z"/><path fill="#37474F" d="m29.389 93.972-7.804 3.985s-3.535-.504-3.227-3.482c.308-2.977 1.756-3.664 0-4.992-1.756-1.328-2.24-1.422-2.134-2.705.105-1.283 1.077-1.832 1.537-2.336.46-.503 1.744-1.556.87-3.105s-2.06-3.064-.253-3.754c1.073-.414 2.868.135 4.05 1.28 1.182 1.146 2.15 1.97 3.277 2.246 1.128.276 3.489.321 3.387 2.07-.101 1.75-.616 2.34-.156 3.106.862 1.456 4.659 2.28.453 7.687Z"/><path fill="#fff" d="M26.216 95.759a.207.207 0 0 1-.07-.018.184.184 0 0 1-.058-.04.15.15 0 0 1-.044-.121c0-.104.972-10.24-6.816-16.975a.173.173 0 0 1-.05-.053.15.15 0 0 1 .034-.193.191.191 0 0 1 .065-.038.21.21 0 0 1 .152.006c.023.01.044.025.06.043 7.918 6.845 6.942 17.137 6.93 17.25a.16.16 0 0 1-.07.106.202.202 0 0 1-.133.033Z"/><path fill="#fff" d="M24.945 86.91a.2.2 0 0 1-.127-.06.157.157 0 0 1-.045-.12 5.61 5.61 0 0 1 .774-2.412 6.365 6.365 0 0 1 1.801-1.935.212.212 0 0 1 .209-.004.18.18 0 0 1 .053.045.154.154 0 0 1 .031.059.144.144 0 0 1-.023.125.172.172 0 0 1-.051.047 6.117 6.117 0 0 0-1.683 1.833 5.402 5.402 0 0 0-.737 2.27.153.153 0 0 1-.02.062.171.171 0 0 1-.045.05.211.211 0 0 1-.137.039Zm.55 1.766a.208.208 0 0 1-.078-.016.186.186 0 0 1-.063-.043c0-.017-1.95-1.911-6.399-1.411a.215.215 0 0 1-.145-.036.16.16 0 0 1-.033-.244.203.203 0 0 1 .131-.065c4.66-.521 6.633 1.442 6.727 1.525a.165.165 0 0 1 .04.054.148.148 0 0 1 0 .127.164.164 0 0 1-.04.053.184.184 0 0 1-.063.042.204.204 0 0 1-.077.014Z"/><path fill="#37474F" d="M43.135 109.038c13.123 0 23.762-5.4 23.762-12.061 0-6.662-10.639-12.062-23.762-12.062-13.124 0-23.762 5.4-23.762 12.062 0 6.661 10.638 12.061 23.762 12.061Z"/><path fill="#253239" d="M66.897 96.977c0 6.662-10.636 12.075-23.762 12.075-13.126 0-23.766-5.413-23.766-12.075v3.37c0 6.659 10.636 12.059 23.758 12.059s23.762-5.4 23.762-12.059v-3.37h.008Z"/><path fill="#5721DF" d="M43.135 107.6c-12.185 0-22.1-4.765-22.1-10.623 0-5.859 9.915-10.623 22.1-10.623 12.185 0 22.104 4.764 22.104 10.623 0 5.858-9.915 10.623-22.104 10.623Zm0-20.88c-11.96 0-21.69 4.598-21.69 10.257 0 5.658 9.73 10.257 21.69 10.257s21.69-4.603 21.69-10.257c0-5.655-9.727-10.258-21.69-10.258Zm0-43.02c-12.185 0-22.1-4.769-22.1-10.627 0-5.858 9.915-10.623 22.1-10.623 12.185 0 22.104 4.765 22.104 10.623S55.324 43.7 43.135 43.7Zm0-20.884c-11.96 0-21.69 4.602-21.69 10.257 0 5.655 9.73 10.26 21.69 10.26s21.69-4.612 21.69-10.26-9.727-10.257-21.69-10.257Z"/><path fill="#5721DF" d="M64.825 96.98v-.003h.414l-.414.003Zm-43.79 0v-.003h.413l-.413.003Zm44.204-.003h-.414c0-5.659-9.727-10.258-21.69-10.258-11.963 0-21.69 4.6-21.69 10.258h-.39v-11.19c-.011-3.055.914-6.056 2.679-8.684 1.764-2.627 4.3-4.783 7.34-6.237l6.037-2.874c.537-.258.986-.64 1.299-1.104.313-.465.478-.996.478-1.537 0-.541-.165-1.072-.478-1.537a3.254 3.254 0 0 0-1.3-1.104l-6.036-2.874c-3.04-1.45-5.579-3.603-7.346-6.227-1.768-2.624-2.699-5.623-2.693-8.678V33.546h.437v.162c.698 5.4 10.203 9.63 21.643 9.63 11.44 0 20.95-4.23 21.648-9.63l.02-.162h.436V44.93c.01 3.056-.917 6.056-2.682 8.683s-4.302 4.782-7.341 6.236l-6.04 2.874c-.537.259-.985.64-1.297 1.105a2.75 2.75 0 0 0-.477 1.536c0 .54.165 1.07.477 1.535.312.465.76.847 1.297 1.106l6.04 2.874c6.122 3.184 9.961 8.898 10.023 14.922l.02 11.175ZM43.135 86.354c10.73 0 19.697 3.691 21.69 8.57v-9.136c-.058-5.893-3.82-11.49-9.813-14.601l-6.032-2.87a3.652 3.652 0 0 1-1.456-1.24 3.084 3.084 0 0 1-.536-1.724c0-.607.185-1.203.536-1.724.35-.522.853-.95 1.456-1.24l6.04-2.874c2.972-1.421 5.453-3.527 7.179-6.095 1.727-2.568 2.634-5.501 2.626-8.489v-9.798c-1.99 4.91-11.015 8.58-21.69 8.58s-19.697-3.67-21.69-8.58v9.798c-.01 2.99.897 5.927 2.624 8.497 1.727 2.57 4.21 4.679 7.185 6.1l6.04 2.875c.603.29 1.106.718 1.456 1.24.35.521.536 1.117.536 1.724 0 .606-.185 1.202-.536 1.723-.35.522-.853.95-1.456 1.24l-6.04 2.874c-2.975 1.422-5.458 3.53-7.186 6.1-1.727 2.571-2.634 5.508-2.623 8.498v9.122c1.993-4.879 10.964-8.57 21.69-8.57Z"/><path fill="#5721DF" d="M44.996 77.787a4.126 4.126 0 0 0-1.86-.437 4.12 4.12 0 0 0-1.858.437c-4.917 2.487-17.886 9.44-17.886 13.652 0 5.2 8.837 9.416 19.743 9.416 10.906 0 19.747-4.216 19.747-9.416 0-4.212-12.97-11.164-17.886-13.652Z"/><path fill="#fff" d="M44.996 77.787a4.126 4.126 0 0 0-1.86-.437 4.12 4.12 0 0 0-1.858.437c-4.917 2.487-17.886 9.44-17.886 13.652 0 5.2 8.837 9.416 19.743 9.416 10.906 0 19.747-4.216 19.747-9.416 0-4.212-12.97-11.164-17.886-13.652Z" opacity=".3"/><path fill="#5721DF" d="M43.135 100.855c-10.906 0-19.743-4.216-19.743-9.416v4.772c0 5.199 8.841 9.415 19.743 9.415s19.747-4.216 19.747-9.415v-4.772c0 5.2-8.841 9.416-19.747 9.416Zm-19.743-67.13v10.35c-.007 2.726.82 5.403 2.395 7.746 1.575 2.344 3.837 4.267 6.548 5.565l5.462 2.591c.082.042.164.083.238.128.195.11.39.217.593.317 1.117.618 2.038 1.478 2.675 2.497a6.249 6.249 0 0 1 .97 3.33v4.486a.743.743 0 0 0 .256.556.95.95 0 0 0 1.252 0 .746.746 0 0 0 .26-.556V66.25a6.251 6.251 0 0 1 .967-3.33c.637-1.02 1.557-1.879 2.673-2.498.203-.1.39-.207.597-.317.074-.045.156-.086.238-.128l5.443-2.59c2.71-1.3 4.973-3.222 6.547-5.566 1.575-2.343 2.402-5.02 2.396-7.745v-10.35h-39.51ZM44.02 73.95a.722.722 0 0 0-.15-.434.873.873 0 0 0-.399-.287.995.995 0 0 0-.511-.043.926.926 0 0 0-.453.215.759.759 0 0 0-.241.401.7.7 0 0 0 .051.452.81.81 0 0 0 .326.351.97.97 0 0 0 1.117-.1.747.747 0 0 0 .26-.555Z"/><path fill="#fff" d="M23.392 33.725v10.35c-.007 2.726.82 5.403 2.395 7.746 1.575 2.344 3.837 4.267 6.548 5.565l5.462 2.591c.082.042.164.083.238.128.195.11.39.217.593.317 1.117.618 2.038 1.478 2.675 2.497a6.249 6.249 0 0 1 .97 3.33v4.486a.743.743 0 0 0 .256.556.95.95 0 0 0 1.252 0 .746.746 0 0 0 .26-.556V66.25a6.251 6.251 0 0 1 .967-3.33c.637-1.02 1.557-1.879 2.673-2.498.203-.1.39-.207.597-.317.074-.045.156-.086.238-.128l5.443-2.59c2.71-1.3 4.973-3.222 6.547-5.566 1.575-2.343 2.402-5.02 2.396-7.745v-10.35h-39.51ZM44.02 73.95a.722.722 0 0 0-.15-.434.873.873 0 0 0-.399-.287.995.995 0 0 0-.511-.043.926.926 0 0 0-.453.215.759.759 0 0 0-.241.401.7.7 0 0 0 .051.452.81.81 0 0 0 .326.351.97.97 0 0 0 1.117-.1.747.747 0 0 0 .26-.555Z" opacity=".3"/><path fill="#5721DF" d="M43.135 43.14c10.906 0 19.747-4.215 19.747-9.415 0-5.2-8.841-9.415-19.747-9.415s-19.747 4.215-19.747 9.415c0 5.2 8.84 9.416 19.747 9.416Z"/><path fill="#fff" d="m41.512 68.154-3.84 2.874c-3.901 2.905-6.305 8.58-6.305 14.76v19.686a27.209 27.209 0 0 1-3.473-1.311V85.788c0-6.18 2.775-11.855 7.223-14.76l4.39-2.874c1.83-1.197 1.83-4.413 0-5.603l-4.39-2.874c-4.433-2.905-7.223-8.584-7.223-14.746V33.725h3.473v11.206c0 6.18 2.423 11.858 6.305 14.763l3.84 2.874c1.596 1.173 1.596 4.389 0 5.586Z" opacity=".5" style="mix-blend-mode:overlay"/><path fill="#37474F" d="M43.135 45.135c13.123 0 23.762-5.4 23.762-12.062 0-6.661-10.639-12.062-23.762-12.062-13.124 0-23.762 5.4-23.762 12.062 0 6.662 10.638 12.062 23.762 12.062Z"/><path fill="#253239" d="M66.897 33.073c0 6.662-10.636 12.076-23.762 12.076-13.126 0-23.766-5.414-23.766-12.076v3.37c0 6.663 10.636 12.076 23.758 12.076s23.762-5.4 23.762-12.075v-3.37h.008Z"/><path fill="#5721DF" d="M120.891 66.653v-13.31L99.844 42.488v-13.31L78.802 18.32v66.55l21.042 10.858 21.047 10.854 21.043 10.857V77.511l-21.043-10.858Z"/><path fill="#fff" d="M120.891 66.653v13.311l21.043 10.858V77.51l-21.043-10.858Z" opacity=".3"/><path fill="#5721DF" d="M141.934 77.511v13.31l-21.043 10.858v13.307l-21.047 10.858v13.311l21.047-10.858 21.043-10.858 21.046-10.857V66.653l-21.046 10.858Z"/><path fill="#fff" d="M141.934 77.511v13.31l-21.043 10.858v13.307l-21.047 10.858v13.311l21.047-10.858 21.043-10.858 21.046-10.857V66.653l-21.046 10.858Z" opacity=".1"/><path fill="#5721DF" d="M99.844 29.178 78.802 18.32 99.844 7.463l21.047 10.857-21.047 10.858Z"/><path fill="#fff" d="M99.844 29.178 78.802 18.32 99.844 7.463l21.047 10.857-21.047 10.858Z" opacity=".7"/><path fill="#5721DF" d="M99.844 42.489V29.178l21.047-10.858v13.31L99.844 42.49Z"/><path fill="#000" d="M99.844 42.489V29.178l21.047-10.858v13.31L99.844 42.49Z" opacity=".1"/><path fill="#5721DF" d="M120.891 53.343 99.844 42.488l21.047-10.857 21.043 10.858-21.043 10.854Z"/><path fill="#5721DF" d="M120.891 66.653v-13.31l21.043-10.855v13.308l-21.043 10.857Z"/><path fill="#fff" d="M120.891 53.343 99.844 42.488l21.047-10.857 21.043 10.858-21.043 10.854Z" opacity=".7"/><path fill="#000" d="M120.891 66.653v-13.31l21.043-10.855v13.308l-21.043 10.857Z" opacity=".1"/><path fill="#5721DF" d="m141.934 77.511-21.043-10.858 21.043-10.857 21.046 10.857-21.046 10.858Z"/><path fill="#fff" d="m141.934 77.511-21.043-10.858 21.043-10.857 21.046 10.857-21.046 10.858Z" opacity=".7"/><path fill="#5721DF" d="m120.891 101.679 21.043-10.857-21.043-10.858-21.047 10.858 21.047 10.857Z"/><path fill="#fff" d="m120.891 101.679 21.043-10.857-21.043-10.858-21.047 10.858 21.047 10.857Z" opacity=".7"/><path fill="#5721DF" d="M120.891 114.986v-13.307L99.844 90.822v13.31l21.047 10.854Z"/><path fill="#fff" d="M120.891 114.986v-13.307L99.844 90.822v13.31l21.047 10.854Z" opacity=".3"/><path fill="#5721DF" d="m99.844 125.844 21.047-10.858-21.047-10.854-21.042 10.854 21.042 10.858Z"/><path fill="#5721DF" d="M99.844 139.155v-13.311l-21.042-10.858v13.311l21.042 10.858Z"/><path fill="#fff" d="m99.844 125.844 21.047-10.858-21.047-10.854-21.042 10.854 21.042 10.858Z" opacity=".7"/><path fill="#fff" d="M99.844 139.155v-13.311l-21.042-10.858v13.311l21.042 10.858Z" opacity=".3"/><path fill="#5721DF" d="m116.821 112.889-21.042 10.857-12.908-6.658 21.047-10.858 12.903 6.659Z"/><path fill="#fff" d="m116.821 112.889-21.042 10.857-12.908-6.658 21.047-10.858 12.903 6.659Z" opacity=".4"/><path fill="#5721DF" d="M95.779 123.746v13.308l-12.912-6.656v-13.31h.004l12.908 6.658Zm42.089-35.026-21.047 10.858-12.903-6.655 21.043-10.858 12.907 6.656Z"/><path fill="#fff" d="m137.868 88.72-21.047 10.858-12.903-6.655 21.043-10.858 12.907 6.656Z" opacity=".4"/><path fill="#5721DF" d="M116.821 99.578v13.311l-12.907-6.659V92.923h.004l12.903 6.655Zm21.047-24.165v13.308l-12.911-6.656v-13.31h.004l12.907 6.658Z"/><path fill="#5721DF" d="M137.868 75.413v13.308l-12.911-6.656v-13.31h.004l12.907 6.658Zm-33.954-35.026 21.043 10.858 12.907-6.655-21.047-10.861-12.903 6.658Z"/><path fill="#fff" d="m103.914 40.387 21.043 10.858 12.907-6.655-21.047-10.861-12.903 6.658Z" opacity=".5" style="mix-blend-mode:overlay"/><path fill="#5721DF" d="M124.957 51.245v13.31l12.911-6.658V44.59h-.004l-12.907 6.655Z"/><path fill="#000" d="M124.957 51.245v13.31l12.911-6.658V44.59h-.004l-12.907 6.655Z" opacity=".3"/><path fill="#5721DF" d="m82.867 16.22 21.047 10.86 12.903-6.659L95.775 9.564l-12.908 6.655Z"/><path fill="#fff" d="m82.867 16.22 21.047 10.86 12.903-6.659L95.775 9.564l-12.908 6.655Z" opacity=".5" style="mix-blend-mode:overlay"/><path fill="#5721DF" d="M103.914 27.08v13.307l12.907-6.658V20.42h-.004l-12.903 6.66Z"/><path fill="#000" d="M103.914 27.08v13.307l12.907-6.658V20.42h-.004l-12.903 6.66Z" opacity=".3"/><path fill="#5721DF" d="m141.934 59.998-4.07-2.105-12.907 6.66 4.073 2.1-4.069 2.101 12.907 6.656 4.066-2.098 12.907-6.659-12.907-6.655Z"/><path fill="#fff" d="m141.934 59.998-4.07-2.105-12.907 6.66 4.073 2.1-4.069 2.101 12.907 6.656 4.066-2.098 12.907-6.659-12.907-6.655Z" opacity=".4"/><path fill="#5721DF" d="M91.463 14.163a.23.23 0 0 1-.093-.02l-.78-.408a.182.182 0 0 1-.056-.043.159.159 0 0 1-.032-.059.147.147 0 0 1 .02-.126.186.186 0 0 1 .113-.077.21.21 0 0 1 .141.015l.78.407a.173.173 0 0 1 .088.102.151.151 0 0 1-.017.126.174.174 0 0 1-.069.062.202.202 0 0 1-.095.02Zm15.455 7.977a.187.187 0 0 1-.093-.025l-1.561-.796a.203.203 0 0 1-.056-.043.153.153 0 0 1-.032-.058.144.144 0 0 1-.006-.066.176.176 0 0 1 .024-.061.178.178 0 0 1 .048-.05.204.204 0 0 1 .14-.033c.024.003.048.01.069.02l1.561.798c.021.01.04.025.055.043a.154.154 0 0 1 .036.123.156.156 0 0 1-.025.061.169.169 0 0 1-.066.063.196.196 0 0 1-.094.024Zm-3.09-1.598a.226.226 0 0 1-.093-.02l-1.561-.797a.172.172 0 0 1-.089-.101.159.159 0 0 1-.005-.066.144.144 0 0 1 .024-.061.164.164 0 0 1 .048-.05.212.212 0 0 1 .209-.013l1.561.798a.17.17 0 0 1 .087.102.158.158 0 0 1 .004.064.157.157 0 0 1-.025.061.164.164 0 0 1-.066.062.199.199 0 0 1-.094.021Zm-3.09-1.594a.218.218 0 0 1-.094-.02l-1.56-.797a.177.177 0 0 1-.088-.104.155.155 0 0 1 .066-.176.199.199 0 0 1 .14-.032c.024.003.048.01.069.022l1.561.797a.174.174 0 0 1 .081.08c.017.034.02.072.009.107a.17.17 0 0 1-.068.09.206.206 0 0 1-.116.033Zm-3.09-1.594a.171.171 0 0 1-.094-.024l-1.56-.797a.173.173 0 0 1-.088-.101.152.152 0 0 1 .017-.127.17.17 0 0 1 .048-.048.194.194 0 0 1 .137-.032c.024.003.048.01.069.022l1.56.797c.043.023.073.06.086.102a.152.152 0 0 1-.02.125.18.18 0 0 1-.066.06.208.208 0 0 1-.09.023Zm-3.094-1.594a.189.189 0 0 1-.094-.024l-1.56-.797a.173.173 0 0 1-.086-.102.152.152 0 0 1 .019-.126.186.186 0 0 1 .112-.077.21.21 0 0 1 .141.015l1.561.797a.173.173 0 0 1 .088.101.152.152 0 0 1-.018.127.177.177 0 0 1-.068.063.208.208 0 0 1-.096.023Zm14.698 7.584a.19.19 0 0 1-.094-.024l-.78-.408a.176.176 0 0 1-.055-.043.156.156 0 0 1-.032-.058.155.155 0 0 1 .02-.126.174.174 0 0 1 .113-.078.203.203 0 0 1 .141.02l.78.403a.174.174 0 0 1 .088.1.153.153 0 0 1-.017.127.176.176 0 0 1-.069.063.207.207 0 0 1-.095.024Z"/><path fill="#000" d="M91.463 14.163a.23.23 0 0 1-.093-.02l-.78-.408a.182.182 0 0 1-.056-.043.159.159 0 0 1-.032-.059.147.147 0 0 1 .02-.126.186.186 0 0 1 .113-.077.21.21 0 0 1 .141.015l.78.407a.173.173 0 0 1 .088.102.151.151 0 0 1-.017.126.174.174 0 0 1-.069.062.202.202 0 0 1-.095.02Zm15.455 7.977a.187.187 0 0 1-.093-.025l-1.561-.796a.203.203 0 0 1-.056-.043.153.153 0 0 1-.032-.058.144.144 0 0 1-.006-.066.176.176 0 0 1 .024-.061.178.178 0 0 1 .048-.05.204.204 0 0 1 .14-.033c.024.003.048.01.069.02l1.561.798c.021.01.04.025.055.043a.154.154 0 0 1 .036.123.156.156 0 0 1-.025.061.169.169 0 0 1-.066.063.196.196 0 0 1-.094.024Zm-3.09-1.598a.226.226 0 0 1-.093-.02l-1.561-.797a.172.172 0 0 1-.089-.101.159.159 0 0 1-.005-.066.144.144 0 0 1 .024-.061.164.164 0 0 1 .048-.05.212.212 0 0 1 .209-.013l1.561.798a.17.17 0 0 1 .087.102.158.158 0 0 1 .004.064.157.157 0 0 1-.025.061.164.164 0 0 1-.066.062.199.199 0 0 1-.094.021Zm-3.09-1.594a.218.218 0 0 1-.094-.02l-1.56-.797a.177.177 0 0 1-.088-.104.155.155 0 0 1 .066-.176.199.199 0 0 1 .14-.032c.024.003.048.01.069.022l1.561.797a.174.174 0 0 1 .081.08c.017.034.02.072.009.107a.17.17 0 0 1-.068.09.206.206 0 0 1-.116.033Zm-3.09-1.594a.171.171 0 0 1-.094-.024l-1.56-.797a.173.173 0 0 1-.088-.101.152.152 0 0 1 .017-.127.17.17 0 0 1 .048-.048.194.194 0 0 1 .137-.032c.024.003.048.01.069.022l1.56.797c.043.023.073.06.086.102a.152.152 0 0 1-.02.125.18.18 0 0 1-.066.06.208.208 0 0 1-.09.023Zm-3.094-1.594a.189.189 0 0 1-.094-.024l-1.56-.797a.173.173 0 0 1-.086-.102.152.152 0 0 1 .019-.126.186.186 0 0 1 .112-.077.21.21 0 0 1 .141.015l1.561.797a.173.173 0 0 1 .088.101.152.152 0 0 1-.018.127.177.177 0 0 1-.068.063.208.208 0 0 1-.096.023Zm14.698 7.584a.19.19 0 0 1-.094-.024l-.78-.408a.176.176 0 0 1-.055-.043.155.155 0 0 1-.036-.123.174.174 0 0 1 .137-.14.203.203 0 0 1 .141.02l.78.404a.174.174 0 0 1 .088.101.153.153 0 0 1-.017.126.176.176 0 0 1-.069.063.207.207 0 0 1-.095.024Z" opacity=".3"/><path fill="#5721DF" d="M112.397 38.273a.188.188 0 0 1-.094-.025l-.78-.407a.176.176 0 0 1-.055-.043.156.156 0 0 1-.032-.058.155.155 0 0 1 .02-.126.174.174 0 0 1 .048-.049.195.195 0 0 1 .138-.032c.024.003.047.01.068.022l.78.407a.171.171 0 0 1 .082.08.154.154 0 0 1 .009.108.17.17 0 0 1-.068.089.207.207 0 0 1-.116.034Zm15.47 7.983a.164.164 0 0 1-.089-.024l-1.561-.797a.19.19 0 0 1-.056-.043.153.153 0 0 1-.032-.058.144.144 0 0 1 .018-.127.164.164 0 0 1 .048-.049.204.204 0 0 1 .139-.034c.025.003.049.01.07.021l1.561.8a.172.172 0 0 1 .087.102.15.15 0 0 1-.017.126.184.184 0 0 1-.071.062.215.215 0 0 1-.097.021Zm-3.094-1.597a.23.23 0 0 1-.093-.021l-1.561-.8a.173.173 0 0 1-.089-.101.15.15 0 0 1 .019-.127.188.188 0 0 1 .114-.078.21.21 0 0 1 .143.016l1.561.8a.176.176 0 0 1 .082.08.149.149 0 0 1 .008.108.164.164 0 0 1-.068.09.203.203 0 0 1-.116.033Zm-3.094-1.598a.23.23 0 0 1-.094-.02l-1.56-.8a.174.174 0 0 1-.088-.102.15.15 0 0 1 .018-.127.176.176 0 0 1 .048-.048.207.207 0 0 1 .209-.01l1.561.797a.172.172 0 0 1 .087.101.153.153 0 0 1-.017.127.171.171 0 0 1-.069.06.204.204 0 0 1-.095.022Zm-3.094-1.58a.23.23 0 0 1-.094-.02l-1.56-.798a.174.174 0 0 1-.088-.1.153.153 0 0 1 .017-.127.178.178 0 0 1 .048-.05.2.2 0 0 1 .14-.034c.025.003.048.01.07.022l1.561.797a.172.172 0 0 1 .087.1.153.153 0 0 1-.017.127.172.172 0 0 1-.069.062.204.204 0 0 1-.095.021Zm-3.094-1.594a.19.19 0 0 1-.094-.024l-1.561-.797a.187.187 0 0 1-.055-.043.156.156 0 0 1-.038-.123.156.156 0 0 1 .023-.062.18.18 0 0 1 .114-.078.216.216 0 0 1 .144.016l1.56.797c.044.023.075.06.088.103a.157.157 0 0 1-.017.128.186.186 0 0 1-.073.051.215.215 0 0 1-.091.015v.017Zm14.714 7.573a.23.23 0 0 1-.094-.02l-.78-.408a.176.176 0 0 1-.055-.043.154.154 0 0 1-.036-.123.175.175 0 0 1 .071-.11.207.207 0 0 1 .138-.034.2.2 0 0 1 .069.02l.78.408c.022.01.04.025.055.043a.155.155 0 0 1 .036.123.155.155 0 0 1-.024.061.187.187 0 0 1-.068.06.212.212 0 0 1-.092.023Z"/><path fill="#000" d="M112.397 38.273a.188.188 0 0 1-.094-.025l-.78-.407a.176.176 0 0 1-.055-.043.156.156 0 0 1-.032-.058.155.155 0 0 1 .02-.126.174.174 0 0 1 .048-.049.195.195 0 0 1 .138-.032c.024.003.047.01.068.022l.78.407a.171.171 0 0 1 .082.08.154.154 0 0 1 .009.108.17.17 0 0 1-.068.089.207.207 0 0 1-.116.034Zm15.47 7.983a.164.164 0 0 1-.089-.024l-1.561-.797a.19.19 0 0 1-.056-.043.153.153 0 0 1-.032-.058.144.144 0 0 1 .018-.127.164.164 0 0 1 .048-.049.204.204 0 0 1 .139-.034c.025.003.049.01.07.021l1.561.8a.172.172 0 0 1 .087.102.15.15 0 0 1-.017.126.184.184 0 0 1-.071.062.215.215 0 0 1-.097.021Zm-3.094-1.597a.23.23 0 0 1-.093-.021l-1.561-.8a.173.173 0 0 1-.089-.101.15.15 0 0 1 .019-.127.188.188 0 0 1 .114-.078.21.21 0 0 1 .143.016l1.561.8a.176.176 0 0 1 .082.08.149.149 0 0 1 .008.108.164.164 0 0 1-.068.09.203.203 0 0 1-.116.033Zm-3.094-1.598a.23.23 0 0 1-.094-.02l-1.56-.8a.174.174 0 0 1-.088-.102.15.15 0 0 1 .018-.127.176.176 0 0 1 .048-.048.207.207 0 0 1 .209-.01l1.561.797a.172.172 0 0 1 .087.101.153.153 0 0 1-.017.127.171.171 0 0 1-.069.06.204.204 0 0 1-.095.022Zm-3.094-1.58a.23.23 0 0 1-.094-.02l-1.56-.798a.174.174 0 0 1-.088-.1.153.153 0 0 1 .017-.127.178.178 0 0 1 .048-.05.2.2 0 0 1 .14-.034c.025.003.048.01.07.022l1.561.797a.172.172 0 0 1 .087.1.153.153 0 0 1-.017.127.172.172 0 0 1-.069.062.204.204 0 0 1-.095.021Zm-3.094-1.594a.19.19 0 0 1-.094-.024l-1.561-.797a.187.187 0 0 1-.055-.043.156.156 0 0 1-.038-.123.156.156 0 0 1 .023-.062.18.18 0 0 1 .114-.078.216.216 0 0 1 .144.016l1.56.797c.044.023.075.06.088.103a.157.157 0 0 1-.017.128.186.186 0 0 1-.073.051.215.215 0 0 1-.091.015v.017Zm14.714 7.573a.23.23 0 0 1-.094-.02l-.78-.408a.176.176 0 0 1-.055-.043.154.154 0 0 1-.036-.123.175.175 0 0 1 .071-.11.207.207 0 0 1 .138-.034.2.2 0 0 1 .069.02l.78.408c.022.01.04.025.055.043a.155.155 0 0 1 .036.123.155.155 0 0 1-.024.061.187.187 0 0 1-.068.06.212.212 0 0 1-.092.023Z" opacity=".3"/><path fill="#5721DF" d="M131.414 72.246a.21.21 0 0 1-.092-.023.186.186 0 0 1-.068-.06.155.155 0 0 1-.019-.126.174.174 0 0 1 .086-.102l.78-.407a.209.209 0 0 1 .141-.015c.048.012.088.04.113.078.024.038.03.084.017.126a.174.174 0 0 1-.088.101l-.78.407a.203.203 0 0 1-.09.021Zm2.579-1.328a.202.202 0 0 1-.093-.022.174.174 0 0 1-.067-.061.141.141 0 0 1-.025-.061.144.144 0 0 1 .036-.124.174.174 0 0 1 .056-.043l1.787-.924a.21.21 0 0 1 .209.013.16.16 0 0 1 .048.049.153.153 0 0 1 .018.126.177.177 0 0 1-.088.101l-1.791.922a.19.19 0 0 1-.09.024Zm3.578-1.846a.211.211 0 0 1-.094-.022.182.182 0 0 1-.07-.06.153.153 0 0 1-.017-.127.174.174 0 0 1 .088-.102l1.787-.924a.21.21 0 0 1 .143-.016c.048.011.089.04.114.078a.147.147 0 0 1 .018.127.169.169 0 0 1-.088.1l-1.787.922a.186.186 0 0 1-.094.034v-.01Zm3.578-1.846a.211.211 0 0 1-.094-.022.183.183 0 0 1-.07-.06.153.153 0 0 1-.017-.127.174.174 0 0 1 .088-.101l.503-.263-.503-.262a.176.176 0 0 1-.089-.1.157.157 0 0 1 .067-.176.212.212 0 0 1 .209-.013l.78.407a.172.172 0 0 1 .078.082.148.148 0 0 1 .008.107.159.159 0 0 1-.043.07.194.194 0 0 1-.074.044l-.78.39a.165.165 0 0 1-.063.024Zm-1.553-1.615a.204.204 0 0 1-.093-.02l-1.561-.8a.172.172 0 0 1-.087-.102.15.15 0 0 1 .017-.126.175.175 0 0 1 .047-.05.202.202 0 0 1 .206-.013l1.561.8c.042.024.073.06.085.103a.148.148 0 0 1-.019.126.17.17 0 0 1-.065.06.201.201 0 0 1-.091.022Zm-3.121-1.6a.166.166 0 0 1-.09-.025l-1.561-.8a.175.175 0 0 1-.085-.102.155.155 0 0 1 .019-.126.187.187 0 0 1 .113-.077.208.208 0 0 1 .141.015l1.56.8c.044.024.075.06.088.104a.157.157 0 0 1-.017.128.18.18 0 0 1-.066.059.215.215 0 0 1-.09.023h-.012Zm-3.094-1.605a.227.227 0 0 1-.094-.02l-.78-.408a.173.173 0 0 1-.086-.102.155.155 0 0 1 .019-.125.187.187 0 0 1 .113-.077.209.209 0 0 1 .141.015l.78.407a.172.172 0 0 1 .082.08c.016.034.02.072.009.107a.17.17 0 0 1-.068.09.206.206 0 0 1-.116.033Zm-2.759 23.554a.207.207 0 0 1-.093-.022.174.174 0 0 1-.067-.06.153.153 0 0 1-.017-.127.172.172 0 0 1 .087-.101l.781-.407a.208.208 0 0 1 .141-.015c.047.011.088.04.112.077a.15.15 0 0 1 .018.126.173.173 0 0 1-.088.102l-.78.407a.21.21 0 0 1-.094.02Zm-17.964 9.27a.202.202 0 0 1-.093-.021.175.175 0 0 1-.091-.122.13.13 0 0 1 .004-.065.172.172 0 0 1 .086-.102l1.499-.772a.208.208 0 0 1 .141-.015.181.181 0 0 1 .137.137.154.154 0 0 1-.036.123.188.188 0 0 1-.055.044l-1.498.773a.217.217 0 0 1-.094.02Zm2.997-1.545a.2.2 0 0 1-.095-.021.171.171 0 0 1-.069-.062.15.15 0 0 1-.017-.126.172.172 0 0 1 .087-.101l1.494-.773a.215.215 0 0 1 .144-.016.202.202 0 0 1 .066.029c.019.013.036.03.048.049a.156.156 0 0 1 .018.127.155.155 0 0 1-.033.058.187.187 0 0 1-.055.043l-1.499.773a.194.194 0 0 1-.089.02Zm2.992-1.542a.202.202 0 0 1-.093-.022.174.174 0 0 1-.067-.06.153.153 0 0 1-.02-.129.169.169 0 0 1 .087-.103l1.482-.77a.206.206 0 0 1 .206.011c.02.013.036.03.048.048a.152.152 0 0 1 .019.126.171.171 0 0 1-.085.102l-1.499.773a.185.185 0 0 1-.078.024Zm2.993-1.546a.212.212 0 0 1-.092-.023.185.185 0 0 1-.068-.06.156.156 0 0 1-.019-.125.175.175 0 0 1 .085-.102l1.499-.773a.196.196 0 0 1 .206.01.15.15 0 0 1 .047.049.144.144 0 0 1-.01.185.174.174 0 0 1-.056.042l-1.498.773a.183.183 0 0 1-.094.024Zm2.997-1.545a.203.203 0 0 1-.116-.034.164.164 0 0 1-.068-.09.149.149 0 0 1 .008-.107.181.181 0 0 1 .082-.08l1.498-.773a.21.21 0 0 1 .142-.016.188.188 0 0 1 .065.03c.019.013.035.03.047.049.024.038.03.083.017.126a.172.172 0 0 1-.087.101l-1.506.773a.234.234 0 0 1-.082.02Zm2.992-1.546a.194.194 0 0 1-.093-.021.173.173 0 0 1-.091-.123.154.154 0 0 1 .036-.123.176.176 0 0 1 .055-.043l1.498-.773a.209.209 0 0 1 .141-.015.183.183 0 0 1 .113.077.155.155 0 0 1 .02.126.156.156 0 0 1-.032.058.176.176 0 0 1-.055.044l-1.498.772a.227.227 0 0 1-.094.021Zm-17.257 8.904a.211.211 0 0 1-.093-.022.174.174 0 0 1-.067-.06.148.148 0 0 1-.019-.126.172.172 0 0 1 .085-.102l.78-.407a.203.203 0 0 1 .207.013.16.16 0 0 1 .047.05c.024.038.03.083.017.126a.172.172 0 0 1-.087.101l-.781.407a.202.202 0 0 1-.089.02Zm-.792 13.729a.209.209 0 0 1-.093-.022.172.172 0 0 1-.067-.061.154.154 0 0 1-.018-.125.176.176 0 0 1 .084-.103l.78-.407a.214.214 0 0 1 .141-.015c.048.012.088.04.113.077.024.039.03.084.017.127a.172.172 0 0 1-.087.101l-.781.407a.194.194 0 0 1-.089.021Zm-17.965 9.257a.212.212 0 0 1-.093-.021.167.167 0 0 1-.067-.062.147.147 0 0 1-.02-.126.165.165 0 0 1 .087-.102l1.498-.773a.214.214 0 0 1 .141-.015.19.19 0 0 1 .113.077.15.15 0 0 1-.011.185.188.188 0 0 1-.056.043l-1.498.773a.247.247 0 0 1-.094.021Zm2.993-1.546a.21.21 0 0 1-.093-.022.18.18 0 0 1-.067-.061.154.154 0 0 1-.017-.125.174.174 0 0 1 .084-.102l1.498-.773a.209.209 0 0 1 .209.013.17.17 0 0 1 .048.049.151.151 0 0 1-.015.185.193.193 0 0 1-.055.043l-1.498.772a.201.201 0 0 1-.094.021Zm2.997-1.542a.207.207 0 0 1-.096-.023.183.183 0 0 1-.068-.063.153.153 0 0 1-.017-.127.173.173 0 0 1 .087-.101l1.498-.77a.2.2 0 0 1 .141-.017.188.188 0 0 1 .113.076c.024.039.03.084.017.127a.176.176 0 0 1-.087.101l-1.495.773a.189.189 0 0 1-.093.024Zm2.992-1.546a.2.2 0 0 1-.115-.033.169.169 0 0 1-.069-.09.153.153 0 0 1 .009-.107.172.172 0 0 1 .082-.08l1.498-.773a.203.203 0 0 1 .141-.02.182.182 0 0 1 .139.14.151.151 0 0 1-.037.124.183.183 0 0 1-.056.042l-1.498.773a.178.178 0 0 1-.094.024Zm2.997-1.545a.21.21 0 0 1-.116-.034.17.17 0 0 1-.068-.089.145.145 0 0 1 .009-.108.175.175 0 0 1 .081-.08l1.495-.773a.204.204 0 0 1 .143-.016.17.17 0 0 1 .066.029.16.16 0 0 1 .066.176.177.177 0 0 1-.088.101l-1.498.773a.198.198 0 0 1-.09.021Zm2.993-1.546a.202.202 0 0 1-.094-.021.165.165 0 0 1-.066-.062.161.161 0 0 1-.025-.061.158.158 0 0 1 .004-.065.179.179 0 0 1 .032-.059.194.194 0 0 1 .055-.043l1.498-.773a.21.21 0 0 1 .142-.014.181.181 0 0 1 .112.077c.024.038.03.083.018.125a.179.179 0 0 1-.084.102l-1.499.773a.23.23 0 0 1-.093.021Zm-17.258 8.905a.222.222 0 0 1-.092-.023.185.185 0 0 1-.068-.06.152.152 0 0 1-.019-.126.174.174 0 0 1 .085-.102l.78-.407a.208.208 0 0 1 .21.013.154.154 0 0 1 .065.176.173.173 0 0 1-.087.101l-.78.407a.214.214 0 0 1-.094.021Z"/><path fill="#455A64" d="M101.643 19.248a4.359 4.359 0 0 1-1.8.386 4.36 4.36 0 0 1-1.801-.386c-.991-.51-.991-1.342 0-1.856a4.36 4.36 0 0 1 1.8-.385c.627 0 1.244.132 1.801.385.995.514.995 1.346 0 1.856Z"/><path fill="#5721DF" d="M99.844 9.38V1.909l10.922 3.736-10.922 3.737Z"/><path fill="#263238" d="M99.844 18.655a.418.418 0 0 1-.275-.101.326.326 0 0 1-.115-.244V.442a.307.307 0 0 1-.01-.159.326.326 0 0 1 .073-.145.383.383 0 0 1 .137-.102.432.432 0 0 1 .349 0 .383.383 0 0 1 .138.102.305.305 0 0 1 .062.304V18.32a.32.32 0 0 1-.107.228.41.41 0 0 1-.252.107Z"/><path fill="#F4F4F4" d="M106.47 39.113v-1.364l2.116-3.29c.134-.213.232-.388.293-.526.067-.141.112-.258.134-.351.022-.1.034-.187.034-.262 0-.163-.048-.264-.143-.303-.094-.046-.237-.02-.426.078a1.619 1.619 0 0 0-.494.414c-.156.18-.279.394-.368.64l-1.489-.071c.212-.56.53-1.09.954-1.591.423-.5.95-.912 1.581-1.236.463-.238.873-.364 1.229-.378.357-.015.636.08.837.284.201.204.301.517.301.937 0 .213-.025.44-.075.678a3.62 3.62 0 0 1-.284.824c-.145.306-.36.677-.645 1.112l-1.589 2.444-.31-.612 3.037-1.561V36.7l-4.693 2.413Zm7.75-3.834c-.519.267-.979.368-1.38.305-.396-.066-.709-.297-.937-.694-.223-.4-.335-.963-.335-1.69 0-.728.112-1.406.335-2.035a5.427 5.427 0 0 1 .937-1.657 4.465 4.465 0 0 1 1.38-1.115c.519-.266.976-.367 1.372-.3.402.063.714.294.937.694.229.396.343.958.343 1.686 0 .727-.114 1.407-.343 2.039a5.273 5.273 0 0 1-.937 1.657 4.405 4.405 0 0 1-1.372 1.11Zm0-1.778a.93.93 0 0 0 .343-.327c.1-.152.178-.364.234-.637.062-.277.092-.625.092-1.045 0-.426-.03-.743-.092-.95-.056-.216-.134-.348-.234-.397-.1-.048-.215-.04-.343.026a.93.93 0 0 0-.343.327c-.1.152-.181.366-.243.642a5.321 5.321 0 0 0-.083 1.04c0 .42.028.739.083.954.062.213.143.344.243.393.1.049.215.04.343-.026Zm5.951-1.282c-.557.287-1.048.42-1.472.4a1.246 1.246 0 0 1-.987-.574c-.234-.363-.352-.901-.352-1.616 0-.772.137-1.497.41-2.177a6.09 6.09 0 0 1 1.138-1.836 5.96 5.96 0 0 1 1.698-1.306c.346-.177.678-.301.996-.37.323-.079.597-.094.82-.046l-.711 1.918a.973.973 0 0 0-.527-.002 2.254 2.254 0 0 0-.536.2 2.375 2.375 0 0 0-.954.895c-.234.384-.351.83-.351 1.338v.555l-.452-.135c.112-.27.243-.517.394-.738.15-.228.329-.433.535-.614a3.28 3.28 0 0 1 .719-.492c.357-.184.686-.265.988-.244a.965.965 0 0 1 .736.345c.189.216.284.54.284.974 0 .47-.106.932-.318 1.386a4.553 4.553 0 0 1-.861 1.242 4.491 4.491 0 0 1-1.197.897Zm-.134-1.464a1.102 1.102 0 0 0 .603-.977c0-.207-.056-.342-.168-.404-.111-.068-.256-.056-.435.036a1.02 1.02 0 0 0-.309.244 1.336 1.336 0 0 0-.218.347c-.05.126-.075.258-.075.396a.57.57 0 0 0 .075.319.314.314 0 0 0 .218.123.625.625 0 0 0 .309-.084Zm5.506-1.297c-.518.267-.979.368-1.38.305-.396-.066-.708-.298-.937-.694-.223-.4-.335-.963-.335-1.69 0-.728.112-1.406.335-2.035a5.448 5.448 0 0 1 .937-1.658 4.477 4.477 0 0 1 1.38-1.114c.519-.267.976-.367 1.372-.3.402.063.714.294.937.694.229.396.343.958.343 1.686 0 .727-.114 1.407-.343 2.038a5.273 5.273 0 0 1-.937 1.658 4.405 4.405 0 0 1-1.372 1.11Zm0-1.778a.922.922 0 0 0 .343-.327c.101-.152.179-.364.235-.638.061-.276.092-.624.092-1.044 0-.427-.031-.743-.092-.95-.056-.216-.134-.348-.235-.397-.1-.049-.214-.04-.343.026a.937.937 0 0 0-.343.327c-.1.152-.181.366-.242.642a5.234 5.234 0 0 0-.084 1.04c0 .42.028.738.084.954.061.213.142.344.242.393.101.049.215.04.343-.026Zm2.04 35.563V61.88l2.116-3.29a4.29 4.29 0 0 0 .293-.526 1.86 1.86 0 0 0 .134-.35c.022-.1.033-.188.033-.263 0-.163-.047-.264-.142-.303-.095-.045-.237-.02-.426.078a1.62 1.62 0 0 0-.494.414c-.156.18-.279.394-.368.64l-1.489-.07a5.44 5.44 0 0 1 .953-1.592c.424-.5.951-.912 1.582-1.236.463-.238.872-.364 1.229-.378.357-.014.636.08.837.285.201.204.301.516.301.936 0 .213-.025.44-.075.678-.045.237-.14.511-.285.824a9.568 9.568 0 0 1-.644 1.112l-1.589 2.444-.31-.612 3.037-1.561v1.721l-4.693 2.413Zm7.75-3.834c-.519.267-.979.369-1.38.306-.396-.067-.709-.298-.937-.695-.224-.4-.335-.963-.335-1.69 0-.728.111-1.406.335-2.035a5.427 5.427 0 0 1 .937-1.657 4.465 4.465 0 0 1 1.38-1.114c.519-.267.976-.367 1.372-.301.401.063.714.294.937.694.229.397.343.959.343 1.686 0 .728-.114 1.407-.343 2.039a5.292 5.292 0 0 1-.937 1.657 4.405 4.405 0 0 1-1.372 1.11Zm0-1.777a.937.937 0 0 0 .343-.327c.1-.152.178-.365.234-.638.061-.276.092-.624.092-1.045 0-.426-.031-.743-.092-.95-.056-.215-.134-.348-.234-.396-.101-.049-.215-.04-.343.025a.93.93 0 0 0-.343.327c-.101.152-.181.366-.243.642a5.244 5.244 0 0 0-.083 1.04c0 .42.027.739.083.955.062.213.142.344.243.392.1.049.215.04.343-.025Zm5.248-.92a6.212 6.212 0 0 1-1.221.476c-.413.112-.775.151-1.088.117l.67-1.98c.251.034.513.021.786-.038a3.39 3.39 0 0 0 .778-.287c.223-.114.407-.253.552-.415.145-.163.218-.329.218-.498 0-.094-.025-.163-.075-.206-.051-.05-.14-.06-.268-.031-.123.025-.304.1-.544.223l-1.698.873.293-4.149 3.89-2v1.675l-3.196 1.643.996-1.462-.176 2.64-.996-.439 1.364-.7c.58-.299 1.043-.443 1.389-.433.351.008.605.131.761.371.162.23.243.54.243.929s-.095.81-.285 1.265c-.184.446-.474.884-.87 1.313-.39.42-.898.791-1.523 1.112Zm5.724-2.943c-.519.266-.979.368-1.38.305-.396-.066-.709-.298-.937-.694-.224-.4-.335-.963-.335-1.69 0-.728.111-1.406.335-2.035a5.427 5.427 0 0 1 .937-1.658 4.465 4.465 0 0 1 1.38-1.114c.519-.267.976-.367 1.372-.3.401.063.714.294.937.693.229.397.343.96.343 1.687 0 .727-.114 1.407-.343 2.038a5.292 5.292 0 0 1-.937 1.658 4.405 4.405 0 0 1-1.372 1.11Zm0-1.778a.93.93 0 0 0 .343-.327c.1-.152.178-.364.234-.638.061-.276.092-.624.092-1.044 0-.427-.031-.743-.092-.95-.056-.216-.134-.348-.234-.397-.1-.049-.215-.04-.343.026a.93.93 0 0 0-.343.327c-.1.152-.181.366-.243.642a5.321 5.321 0 0 0-.083 1.04c0 .42.028.738.083.954.062.213.143.344.243.393.1.048.215.04.343-.026Zm-18.882 31.376v-1.364l2.116-1.113c.134-.075.232-.15.293-.226a.576.576 0 0 0 .134-.213.77.77 0 0 0-.109-.677 1.104 1.104 0 0 0-.426-.36.785.785 0 0 0-.494-.094.485.485 0 0 0-.368.262l-1.489-1.602c.212-.343.53-.546.953-.61.424-.065.951.065 1.582.389.463.238.872.533 1.229.886.357.353.636.734.837 1.145.201.41.301.826.301 1.246 0 .213-.025.413-.075.6-.045.191-.14.368-.285.532-.145.157-.359.307-.644.45l-1.589.81-.31-.93 3.037 1.56v1.722l-4.693-2.413Zm7.75 4.135a4.482 4.482 0 0 1-1.381-1.114 5.448 5.448 0 0 1-.936-1.658 6.02 6.02 0 0 1-.335-2.034c0-.728.111-1.291.335-1.69.228-.397.541-.629.936-.695.402-.063.862.039 1.381.305.519.267.976.637 1.372 1.11.401.476.714 1.029.937 1.658.228.631.343 1.311.343 2.038 0 .728-.115 1.29-.343 1.687-.223.4-.536.63-.937.694-.396.066-.853-.034-1.372-.301Zm0-1.778c.128.066.242.075.343.026.1-.049.178-.181.234-.397.061-.213.092-.53.092-.95 0-.426-.031-.774-.092-1.044-.056-.273-.134-.486-.234-.638a.937.937 0 0 0-.343-.327c-.128-.066-.243-.074-.343-.026-.101.049-.181.18-.243.393-.056.21-.083.528-.083.954 0 .42.027.767.083 1.04.062.276.142.49.243.642a.93.93 0 0 0 .343.327Zm3.09 2.087v-1.41l2.485-2.768 2.024 1.04-2.392 2.815-.921-.783 4.535 2.33v1.722l-5.731-2.946Zm3.037 2.69v-1.129l.058-1.69v-1.007l1.858.954v3.857l-1.916-.985Zm5.621 3.04a4.465 4.465 0 0 1-1.38-1.114 5.427 5.427 0 0 1-.937-1.657 6.045 6.045 0 0 1-.335-2.035c0-.727.112-1.29.335-1.69.228-.397.541-.628.937-.694.401-.064.861.038 1.38.305.519.266.976.636 1.372 1.11.401.476.714 1.028.937 1.657.229.632.343 1.311.343 2.039 0 .727-.114 1.29-.343 1.686-.223.4-.536.631-.937.694-.396.066-.853-.034-1.372-.3Zm0-1.777c.128.066.243.074.343.025.1-.048.178-.18.234-.397.062-.212.092-.53.092-.95 0-.426-.03-.774-.092-1.044-.056-.273-.134-.486-.234-.638a.929.929 0 0 0-.343-.326c-.128-.066-.243-.075-.343-.026-.1.049-.181.18-.243.392-.055.21-.083.528-.083.955 0 .42.028.766.083 1.04.062.276.143.49.243.642.1.152.215.26.343.327Zm-40.373 15.858v-1.364l2.116-1.113c.134-.076.232-.151.293-.226a.574.574 0 0 0 .168-.441.768.768 0 0 0-.143-.449 1.1 1.1 0 0 0-.426-.361.778.778 0 0 0-.494-.093.484.484 0 0 0-.368.262l-1.489-1.603c.212-.342.53-.546.954-.61.423-.064.951.065 1.581.389.463.238.873.534 1.23.887.356.352.635.734.836 1.145.201.41.301.825.301 1.246 0 .213-.025.413-.075.6a1.219 1.219 0 0 1-.284.532c-.145.157-.36.307-.645.449l-1.589.81-.31-.93 3.037 1.561v1.721l-4.693-2.412Zm7.758 4.139a4.485 4.485 0 0 1-1.384-1.117 5.465 5.465 0 0 1-.94-1.662 6.055 6.055 0 0 1-.335-2.04c0-.729.111-1.294.335-1.695.229-.398.543-.63.94-.696.402-.063.863.039 1.384.306.52.267.978.638 1.375 1.113.403.477.716 1.031.94 1.662.229.633.343 1.314.343 2.044 0 .729-.114 1.293-.343 1.69-.224.401-.537.633-.94.696-.397.067-.855-.034-1.375-.301Zm0-1.783c.128.066.243.075.343.026.101-.049.179-.181.235-.398.062-.213.093-.531.093-.952a4.82 4.82 0 0 0-.093-1.047c-.056-.274-.134-.487-.235-.64a.93.93 0 0 0-.343-.327c-.129-.067-.244-.075-.344-.026-.101.049-.182.18-.244.393-.056.211-.083.529-.083.957 0 .421.027.769.083 1.043.062.277.143.491.244.644.1.152.215.261.344.327Zm5.088 4.398a8.425 8.425 0 0 1-1.225-.78 7.331 7.331 0 0 1-1.09-1.004l.671-1.296c.251.293.514.551.788.773.28.219.543.392.789.519.223.115.405.167.545.157.145-.013.218-.104.218-.274a.638.638 0 0 0-.16-.412c-.106-.137-.285-.269-.536-.399l-.78-.401v-1.367l1.518-.955.176.835-2.927-1.504v-1.679l4.378 2.251v1.367l-1.518.955-.948-1.091.52.268c.738.379 1.3.853 1.686 1.423.386.569.579 1.146.579 1.731 0 .377-.095.69-.285.938-.185.251-.476.384-.873.4-.391.019-.9-.133-1.526-.455Zm5.789 2.977a4.494 4.494 0 0 1-1.384-1.117 5.462 5.462 0 0 1-.939-1.662 6.055 6.055 0 0 1-.336-2.04c0-.729.112-1.294.336-1.695.229-.397.542-.629.939-.696.403-.063.864.039 1.384.306.52.268.979.638 1.376 1.113.403.477.716 1.031.939 1.662.23.633.344 1.315.344 2.044 0 .729-.114 1.293-.344 1.691-.223.4-.536.632-.939.695-.397.067-.856-.034-1.376-.301Zm0-1.783c.129.066.244.075.344.026.101-.049.179-.181.235-.398.062-.213.092-.531.092-.952 0-.428-.03-.777-.092-1.047-.056-.274-.134-.487-.235-.64a.924.924 0 0 0-.344-.327c-.128-.066-.243-.075-.344-.026-.1.049-.181.18-.243.393-.056.211-.084.53-.084.957 0 .421.028.769.084 1.043.062.277.143.491.243.644a.94.94 0 0 0 .344.327Zm-39.67 17.124v-1.364l2.117-1.113c.133-.076.231-.151.292-.226a.578.578 0 0 0 .134-.213.771.771 0 0 0-.109-.677 1.094 1.094 0 0 0-.426-.36.778.778 0 0 0-.494-.094.485.485 0 0 0-.368.262l-1.489-1.603c.212-.342.53-.546.954-.61.424-.064.95.066 1.58.39a4.96 4.96 0 0 1 1.23.886c.358.353.636.734.837 1.145.201.41.301.826.301 1.246 0 .213-.025.413-.075.601-.044.19-.14.367-.284.531-.145.157-.36.307-.644.449l-1.59.81-.31-.93 3.037 1.561v1.722l-4.693-2.413Zm7.758 4.139a4.488 4.488 0 0 1-1.384-1.117 5.467 5.467 0 0 1-.94-1.662 6.058 6.058 0 0 1-.335-2.04c0-.729.112-1.294.335-1.695.23-.397.543-.629.94-.696.402-.063.864.039 1.384.306.52.268.978.639 1.375 1.113a5.29 5.29 0 0 1 .94 1.662c.229.633.344 1.315.344 2.044 0 .729-.115 1.293-.344 1.691-.224.4-.537.632-.94.696-.397.066-.855-.035-1.375-.302Zm0-1.783c.128.067.243.075.344.026.1-.049.178-.181.234-.398.062-.213.093-.531.093-.952a4.82 4.82 0 0 0-.093-1.047c-.056-.274-.134-.487-.234-.64a.932.932 0 0 0-.344-.327c-.129-.066-.244-.075-.344-.026-.1.049-.182.18-.244.394-.055.21-.083.529-.083.956 0 .421.028.769.084 1.043.061.277.142.491.243.644.1.152.215.261.344.327Zm3.058 3.204v-1.367l2.122-1.116a1.04 1.04 0 0 0 .294-.227.572.572 0 0 0 .134-.214.773.773 0 0 0-.109-.678 1.098 1.098 0 0 0-.428-.361.775.775 0 0 0-.495-.094.486.486 0 0 0-.369.262l-1.493-1.606c.213-.344.531-.548.956-.612.425-.065.954.065 1.586.39.464.239.875.535 1.233.889.357.354.637.736.838 1.148.202.411.302.828.302 1.249 0 .214-.025.415-.075.602-.045.191-.14.369-.285.533-.146.158-.361.308-.646.451l-1.594.812-.31-.933 3.044 1.565v1.726l-4.705-2.419Zm7.77 4.146a4.508 4.508 0 0 1-1.384-1.117 5.462 5.462 0 0 1-.939-1.662 6.055 6.055 0 0 1-.336-2.04c0-.729.112-1.294.336-1.695.229-.398.542-.63.939-.696.403-.063.864.039 1.384.306.52.268.979.638 1.376 1.113.403.477.716 1.031.939 1.662.23.633.344 1.315.344 2.044 0 .729-.114 1.293-.344 1.69-.223.401-.536.633-.939.696-.397.067-.856-.034-1.376-.301Zm0-1.783c.129.066.244.075.344.026.101-.049.179-.181.235-.398.062-.213.092-.531.092-.952 0-.428-.03-.777-.092-1.047-.056-.274-.134-.487-.235-.64a.924.924 0 0 0-.344-.327c-.128-.066-.243-.075-.344-.026-.1.049-.181.18-.243.393-.056.211-.084.529-.084.957 0 .421.028.769.084 1.043.062.277.143.491.243.644a.94.94 0 0 0 .344.327Z"/><path fill="#FFA8A7" d="M81.256 75.955h-4.565v6.507h4.565v-6.507Z"/><path fill="#F28F8F" d="m83.983 74.465 1.085 1.38a.278.278 0 0 1-.043.393 1.74 1.74 0 0 1-1.042.466v-2.24Z"/><path fill="#FFA8A7" d="M79.41 69.362s3.555-2.23 4.683 5.52c.928 6.441-3.594 4.965-5.276 4.075-1.681-.89-4.896-3.575-2.782-7.35.956-1.714 3.375-2.245 3.375-2.245Z"/><path fill="#263238" d="M82.688 71.842s.027 1.412-1.432 1.48c.361.37.544.851.511 1.34 0 .917-.355.74-.511.565-.156-.176-1.775 0-1.775 0l.827 1.38a2.77 2.77 0 0 1-.15 1.56c-.201.5-.543.947-.993 1.297 0 0-2.17.528-3.157 0 0 0-2.731-2.681-3.235-4.582-.503-1.901-.51-3.56.75-4.337 0 0 .39-2.398 3.273-2.398 2.884 0 3.73.656 5.287.345.632-.124 1.58-.528 1.58.035 0 .562-.78 1.035-.78 1.035s.78-.038 1.202-.073c.421-.034 1.362-.158 1.202.918-.16 1.077-1.249 1.622-2.599 1.435Z"/><path fill="#263238" d="M73.905 70.631s-.757-1.352-1.701-.572a.063.063 0 0 0-.018.02.056.056 0 0 0 0 .052.05.05 0 0 0 .018.02l1.69.901.01-.42Z"/><path fill="#FFA8A7" d="M81.256 75.237v2.095s-2.45-.042-2.45-1.646c0-1.477 1.97-1.146 2.45-.449Z"/><path fill="#253239" d="M63.35 129.587s-.113 2.785 4.257 3.927c0 0 .652-3.927-4.257-3.927Z"/><path fill="#37474F" d="M66.757 135.853v-1.677c0-.354.09-.703.266-1.022a2.4 2.4 0 0 1 .748-.813s-.647-2.446-3.27-2.302a4.503 4.503 0 0 0-2.095 1.456 1.87 1.87 0 0 0-.391.76 1.73 1.73 0 0 0 .001.834.306.306 0 0 1 .008-.188.348.348 0 0 1 .118-.157.433.433 0 0 1 .405-.055l.632.231c.394.143.742.37 1.015.66.272.29.46.634.546 1.003l.78 3.261c.065.303.234.581.484.796.25.216.568.358.913.408h.054c.072.003.143.003.215 0h.058c.071-.003.141-.008.211-.018h.059c.072-.01.144-.024.214-.041h.047c.087-.022.172-.051.254-.086.088-.035.173-.077.253-.124l.664-.383a.616.616 0 0 0 .227-.222.528.528 0 0 0 .073-.292c-.05-.663-.382-2.029-2.49-2.029Z"/><path fill="#263238" d="m68.922 138.389-.663.383a1.81 1.81 0 0 1-.254.124 1.693 1.693 0 0 1-.253.086h-.047c-.07.017-.142.031-.215.042h-.585a1.797 1.797 0 0 1-.9-.397 1.468 1.468 0 0 1-.49-.776.085.085 0 0 0 0-.031l-.78-3.261a2.2 2.2 0 0 0-.545-1.003 2.61 2.61 0 0 0-1.015-.66l-.632-.231c-.277-.11-.457.079-.57.176a.634.634 0 0 0-.217.307.567.567 0 0 0 .006.362l.78 3.033c.175.693.64 1.302 1.3 1.704l1.666 1.011c.272.153.578.251.896.287.32.037.643.01.95-.076h.046c.118-.037.233-.081.344-.131l.714-.345a1.15 1.15 0 0 0 .39-.303.982.982 0 0 0 .203-.422.488.488 0 0 1-.129.121Z"/><path fill="#FFA8A7" d="M63.96 130.26s2.996.256 2.984 3.057l1.861-2.57-3.055-2.823-1.79 2.336Z"/><path fill="#455A64" d="M70.623 97.829v4.464a51.9 51.9 0 0 0 .274 5.32l.612 5.976a4.472 4.472 0 0 1-.302 2.154 4.963 4.963 0 0 1-1.305 1.838 11.357 11.357 0 0 0-2.295 2.864c-1.853 3.225-4.257 9.139-4.257 9.139s4.257 0 4.257 3.926l9.696-14.311a7.596 7.596 0 0 0 1.265-3.322l2.06-16.358-10.005-1.69Z"/><path fill="#263238" d="M91.967 123.57c.18.286.46.512.8.642h.038a3.34 3.34 0 0 0 2.228.066l6.173-1.984c.437-.169.445-.745.418-.983h-9.657v2.259Z"/><path fill="#37474F" d="M92.333 120.338s-.87.8-.55 2.315c.052.239.17.463.342.653.172.189.393.34.645.437l.04.017a3.34 3.34 0 0 0 2.227.062l6.173-1.984a.62.62 0 0 0 .346-.278.513.513 0 0 0 .044-.412c-.285-.886-1.291-1.78-3.625-1.238a9.894 9.894 0 0 1-1.814.345l-.316-.456-3.512.539Z"/><path fill="#FFA8A7" d="M96.161 120.238c-.324.765-1.56 1.035-2.989.61a3.042 3.042 0 0 1-.897-.438v-3.026h3.902l-.016 2.854Z"/><path fill="#455A64" d="M75.04 98.97v.511c-.005 1.542.567 3.042 1.625 4.266 1.058 1.225 2.545 2.106 4.228 2.507l9.942 2.326a.666.666 0 0 1 .355.208.542.542 0 0 1 .137.357v10.496s4.799 2.132 6.188-1.173V107.13a4.233 4.233 0 0 0-.894-2.594c-.586-.765-1.42-1.357-2.391-1.698l-10.32-3.58-8.87-.287Z"/><path fill="#37474F" d="m79.387 109.314.39-3.47s-3.2-.949-3.691-2.25c-.164 1.349 1.978 2.584 2.517 2.86.199 1.046.784 2.86.784 2.86ZM75.844 82.32s.09-1.666.738-1.666c.519 0 3.148.659 4.163.921.277.067.515.223.667.438.406.521.644 1.13.69 1.76l-6.258-1.453Z"/><path fill="#FFA8A7" d="M87.464 88.037s2.938-2.643 3.352-2.415c.507.283-.106 1.301-.57 1.725l2.306-1.331a.7.7 0 0 1 .72.025.573.573 0 0 1 .166.171c.643 1.035 1.338 3.45-4.823 5.051l-1.151-3.226Z"/><path fill="#263238" d="M89.485 91.577s-1.53.621-3.512 1.38c-3.324 1.284-7.924 2.978-8.767 2.857a52.855 52.855 0 0 1-6.532-1.352l.425-5.23 6.368 1.655 9.544-3.308.39-.138c2.693.876 2.084 4.136 2.084 4.136Z"/><path fill="#37474F" d="m75.048 81.454-2.376-.576a2.918 2.918 0 0 0-1.181-.035c-.392.07-.76.218-1.076.433a2.369 2.369 0 0 0-.745.812 2.07 2.07 0 0 0-.26 1.02v.748c-.002.971.252 1.93.743 2.798a6.494 6.494 0 0 0 2.082 2.208L75 90.69l.047-9.237Z"/><path fill="#263238" d="m85.224 95.873 1.861 7.404s-5.154 2.287-10.737.845c-5.584-1.442-6.243-2.681-6.243-2.681l.57-6.973.425-5.23.499-6.096c.022-.297.117-.586.278-.847a2.14 2.14 0 0 1 .657-.664c.271-.176.582-.298.912-.356a2.6 2.6 0 0 1 .997.017l7.828 1.725c1.384.314 2.61 1.028 3.485 2.028.874 1 1.346 2.229 1.341 3.493l-1.124 4.433-.749 2.902Z"/><path fill="#FFA8A7" d="M88.95 104.653s3.071 2.464 2.876 2.86c-.195.397-1.463-.027-1.95-.414l1.61 1.984a.497.497 0 0 1 .01.643.612.612 0 0 1-.185.158c-1.116.631-3.789 1.38-5.9-4.034l3.54-1.197Z"/><path fill="#37474F" d="M83.46 83.397s-2.844 4.83-3.753 12.507c-.144 1.21 5.396 10.74 5.396 10.74s3.676.369 4.507-2.07l-4.386-8.691 1.838-7.018a3.325 3.325 0 0 0-.04-1.863c-.378-1.204-1.322-3.032-3.562-3.605Z"/><path fill="#E6E6E6" d="m141.368 22.564 3.937 2.001v-1.791c.144-1.649 1.541-2.284 3.25-1.4.778.423 1.444.99 1.951 1.663.39-2.243 2.431-3.05 4.905-1.774 2.75 1.418 4.978 4.865 4.978 7.701v2.67c.003.21.066.414.184.595.117.181.285.333.487.44l2.318 1.215c.504.265.922.642 1.211 1.093.289.452.441.962.44 1.48.002.215-.06.427-.179.613-.12.187-.294.342-.504.45a1.512 1.512 0 0 1-.691.165 1.51 1.51 0 0 1-.69-.165l-21.527-11.11a3.614 3.614 0 0 1-1.379-1.234 3.076 3.076 0 0 1-.502-1.677.99.99 0 0 1 .163-.533c.106-.162.258-.297.441-.392.183-.094.39-.145.602-.146.211-.002.42.045.605.136Zm-2.809-16.23 2.547 1.294V6.49c.094-1.066.995-1.473 2.1-.904.495.267.921.625 1.248 1.049.25-1.45 1.561-1.97 3.169-1.146 1.775.914 3.215 3.143 3.215 4.975v1.725a.715.715 0 0 0 .112.397.84.84 0 0 0 .321.293l1.498.784c.325.171.595.415.781.706.187.292.285.622.284.957a.717.717 0 0 1-.115.396.851.851 0 0 1-.325.291.983.983 0 0 1-.894.003l-13.902-7.177a2.334 2.334 0 0 1-.889-.796 1.986 1.986 0 0 1-.325-1.08.624.624 0 0 1 .091-.358.73.73 0 0 1 .285-.266.865.865 0 0 1 .799-.005Z"/></svg>